<svg id="Capa_1" enable-background="new 0 0 512 512" height="512" viewBox="0 0 512 512" width="512"
    xmlns="http://www.w3.org/2000/svg">
    <g>
        <g>
            <path
                d="m419.5 7.5h-327c-13.255 0-24 10.745-24 24v46.921l9.833 7.5-9.833 7.5v98.386l7.167 7.5-7.167 7.5v98.387l5.167 7.5-5.167 7.5v98.386l7.167 7.5-7.167 7.5v46.92c0 13.255 10.745 24 24 24h327c13.255 0 24-10.745 24-24v-449c0-13.255-10.745-24-24-24z"
                fill="#e7ecf6" />
            <g fill="#407093">
                <circle cx="114.926" cy="85.921" r="18.08" />
                <circle cx="114.926" cy="199.307" r="18.08" />
                <circle cx="114.926" cy="312.693" r="18.08" />
                <circle cx="114.926" cy="426.079" r="18.08" />
            </g>
            <path
                d="m419.5 7.5h-28.346c13.255 0 24 10.745 24 24v449c0 13.255-10.745 24-24 24h28.346c13.255 0 24-10.745 24-24v-449c0-13.255-10.745-24-24-24z"
                fill="#d8e2f1" />
        </g>
        <g>
            <path
                d="m443.5 122.857c-4.142 0-7.5 3.357-7.5 7.5v350.143c0 9.099-7.402 16.5-16.5 16.5h-222c-4.142 0-7.5 3.357-7.5 7.5s3.358 7.5 7.5 7.5h222c17.369 0 31.5-14.131 31.5-31.5v-350.143c0-4.142-3.358-7.5-7.5-7.5z" />
            <path
                d="m419.5 0h-327c-17.369 0-31.5 14.131-31.5 31.5v449c0 17.369 14.131 31.5 31.5 31.5h70c4.142 0 7.5-3.357 7.5-7.5s-3.358-7.5-7.5-7.5h-70c-9.098 0-16.5-7.401-16.5-16.5v-46.921h14.471c3.213 10.456 12.96 18.079 24.456 18.079 14.105 0 25.58-11.475 25.58-25.579s-11.475-25.58-25.58-25.58c-11.496 0-21.242 7.624-24.456 18.08h-14.471v-98.386h14.471c3.213 10.456 12.96 18.079 24.456 18.079 14.105 0 25.58-11.475 25.58-25.579s-11.475-25.58-25.58-25.58c-11.496 0-21.242 7.624-24.456 18.08h-14.471v-98.387h14.471c3.213 10.456 12.96 18.08 24.456 18.08 14.105 0 25.58-11.476 25.58-25.58s-11.475-25.579-25.58-25.579c-11.496 0-21.242 7.623-24.456 18.079h-14.471v-98.385h14.471c3.213 10.456 12.96 18.08 24.456 18.08 14.105 0 25.58-11.476 25.58-25.58s-11.475-25.579-25.58-25.579c-11.496 0-21.242 7.623-24.456 18.079h-14.471v-46.921c0-9.099 7.402-16.5 16.5-16.5h327c9.098 0 16.5 7.401 16.5 16.5v63.857c0 4.143 3.358 7.5 7.5 7.5s7.5-3.357 7.5-7.5v-63.857c0-17.369-14.131-31.5-31.5-31.5zm-304.574 415.499c5.834 0 10.58 4.746 10.58 10.58 0 5.833-4.746 10.579-10.58 10.579-5.833 0-10.58-4.746-10.58-10.579.001-5.834 4.747-10.58 10.58-10.58zm0-113.386c5.834 0 10.58 4.746 10.58 10.58 0 5.833-4.746 10.579-10.58 10.579-5.833 0-10.58-4.746-10.58-10.579.001-5.834 4.747-10.58 10.58-10.58zm0-113.385c5.834 0 10.58 4.746 10.58 10.579 0 5.834-4.746 10.58-10.58 10.58-5.833 0-10.58-4.746-10.58-10.58.001-5.833 4.747-10.579 10.58-10.579zm0-113.386c5.834 0 10.58 4.746 10.58 10.579 0 5.834-4.746 10.58-10.58 10.58-5.833 0-10.58-4.746-10.58-10.58.001-5.833 4.747-10.579 10.58-10.579z" />
            <path
                d="m181.167 93.421h210c4.142 0 7.5-3.357 7.5-7.5s-3.358-7.5-7.5-7.5h-210c-4.142 0-7.5 3.357-7.5 7.5s3.357 7.5 7.5 7.5z" />
            <path
                d="m181.167 161.453h210c4.142 0 7.5-3.357 7.5-7.5s-3.358-7.5-7.5-7.5h-210c-4.142 0-7.5 3.357-7.5 7.5s3.357 7.5 7.5 7.5z" />
            <path
                d="m181.167 229.484h210c4.142 0 7.5-3.357 7.5-7.5s-3.358-7.5-7.5-7.5h-210c-4.142 0-7.5 3.357-7.5 7.5s3.357 7.5 7.5 7.5z" />
            <path
                d="m181.167 297.516h210c4.142 0 7.5-3.357 7.5-7.5s-3.358-7.5-7.5-7.5h-210c-4.142 0-7.5 3.357-7.5 7.5s3.357 7.5 7.5 7.5z" />
            <path
                d="m181.167 365.547h210c4.142 0 7.5-3.357 7.5-7.5s-3.358-7.5-7.5-7.5h-210c-4.142 0-7.5 3.357-7.5 7.5s3.357 7.5 7.5 7.5z" />
            <path
                d="m398.667 426.079c0-4.143-3.358-7.5-7.5-7.5h-210c-4.142 0-7.5 3.357-7.5 7.5s3.358 7.5 7.5 7.5h210c4.142 0 7.5-3.357 7.5-7.5z" />
        </g>
    </g>
</svg>