<svg height="511pt" viewBox="-64 0 511 511.99901" width="511pt" xmlns="http://www.w3.org/2000/svg">
    <path
        d="m333.765625 25.414062 40.125-15.304687v93.410156l-247.398437 94.375v-93.414062l130.792968-49.894531"
        fill="#bdd9ff" />
    <path
        d="m126.492188 443.9375c0 31.992188-25.9375 57.925781-57.929688 57.925781s-57.929688-25.933593-57.929688-57.925781c0-31.996094 25.9375-57.929688 57.929688-57.929688s57.929688 25.933594 57.929688 57.929688zm0 0"
        fill="#8690a6" />
    <path
        d="m373.890625 348.257812c0 31.992188-25.9375 57.929688-57.929687 57.929688-31.992188 0-57.929688-25.9375-57.929688-57.929688 0-31.992187 25.9375-57.925781 57.929688-57.925781 31.992187 0 57.929687 25.933594 57.929687 57.925781zm0 0"
        fill="#8690a6" />
    <path
        d="m116.355469 395.535156c-12.300781-12.148437-29.183594-19.660156-47.792969-19.660156-37.53125 0-68.0625 30.53125-68.0625 68.0625 0 37.527344 30.53125 68.0625 68.0625 68.0625s68.0625-30.535156 68.0625-68.0625v-239.0625l227.128906-86.640625v181.621094c-12.300781-12.144531-29.183594-19.660157-47.792968-19.660157-37.53125 0-68.0625 30.535157-68.0625 68.0625 0 37.53125 30.53125 68.0625 68.0625 68.0625 37.527343 0 68.0625-30.53125 68.0625-68.0625v-338.148437c0-6.90625-7.257813-11.945313-13.746094-9.46875l-40.125 15.304687c-12.15625 4.636719-4.949219 23.585938 7.226562 18.9375l26.375-10.058593v71.714843l-227.128906 86.640626v-71.714844l124.273438-47.40625c12.160156-4.636719 4.949218-23.585938-7.222657-18.941406l-130.796875 49.894531c-3.925781 1.5-6.523437 5.265625-6.523437 9.46875zm-47.792969 96.195313c-26.351562 0-47.792969-21.441407-47.792969-47.792969 0-26.355469 21.441407-47.792969 47.792969-47.792969s47.792969 21.4375 47.792969 47.792969c0 26.351562-21.441407 47.792969-47.792969 47.792969zm247.398438-95.679688c-26.355469 0-47.792969-21.4375-47.792969-47.792969 0-26.351562 21.4375-47.792968 47.792969-47.792968 26.351562 0 47.792968 21.441406 47.792968 47.792968 0 26.355469-21.441406 47.792969-47.792968 47.792969zm0 0" />
    <path
        d="m294.710938 50.238281c5.503906 0 10.132812-4.632812 10.132812-10.136719 0-5.507812-4.628906-10.132812-10.132812-10.132812-5.351563-.003906-9.878907 4.355469-10.117188 9.691406-.25 5.667969 4.429688 10.578125 10.117188 10.578125zm0 0" />
</svg>