<?xml version="1.0" encoding="iso-8859-1"?><!-- Generator: Adobe Illustrator 19.0.0, SVG Export Plug-In . SVG Version: 6.00 Build 0)  -->
<svg version="1.1" id="Capa_1" xmlns="http://www.w3.org/2000/svg"
    xmlns:xlink="http://www.w3.org/1999/xlink" x="0px" y="0px" viewBox="0 0 512 512"
    style="enable-background:new 0 0 512 512;" xml:space="preserve">
<path style="fill:#EB5664;" d="M372.61,24.713C363.189,15.292,350.412,10,337.089,10H174.911c-13.323,0-26.1,5.292-35.521,14.713
	L24.713,139.39C15.292,148.811,10,161.588,10,174.911v162.178c0,13.323,5.292,26.1,14.713,35.521L139.39,487.287
	c9.421,9.42,22.198,14.713,35.521,14.713h162.178c13.323,0,26.1-5.292,35.521-14.713l114.677-114.678
	c9.421-9.42,14.713-22.197,14.713-35.521V174.911c0-13.323-5.292-26.1-14.713-35.521L372.61,24.713z M444.333,306.931
	c0,17.339-6.888,33.967-19.148,46.228l-72.027,72.027c-12.26,12.26-28.889,19.148-46.228,19.148H205.069
	c-17.339,0-33.967-6.888-46.228-19.148l-72.027-72.027c-12.26-12.26-19.148-28.889-19.148-46.228V205.069
	c0-17.339,6.888-33.967,19.148-46.228l72.027-72.027c12.26-12.26,28.889-19.148,46.228-19.148H306.93
	c17.339,0,33.967,6.888,46.228,19.148l72.027,72.027c12.26,12.26,19.148,28.889,19.148,46.228V306.931z" />
    <path style="fill:#ffea60;" d="M353.158,86.815c-12.26-12.26-28.889-19.148-46.228-19.148H205.069
	c-17.339,0-33.967,6.888-46.228,19.148l-72.027,72.027c-12.26,12.26-19.148,28.889-19.148,46.228v101.861
	c0,17.339,6.888,33.967,19.148,46.228l72.027,72.027c12.26,12.26,28.889,19.148,46.228,19.148H306.93
	c17.339,0,33.967-6.888,46.228-19.148l72.027-72.027c12.26-12.26,19.148-28.889,19.148-46.228V205.069
	c0-17.339-6.888-33.967-19.148-46.228L353.158,86.815z M278.333,385.667c0,11.046-8.954,20-20,20h-4.667c-11.046,0-20-8.954-20-20
	l0,0c0-11.045,8.954-20,20-20h4.667C269.379,365.667,278.333,374.621,278.333,385.667L278.333,385.667z M287.324,137.92
	l-6.514,186.87c-0.198,5.681-4.861,10.184-10.545,10.184h-28.53c-5.684,0-10.347-4.503-10.545-10.184l-6.514-186.87
	c-0.618-17.728,13.586-32.435,31.324-32.435l0,0C273.738,105.485,287.942,120.193,287.324,137.92z" />
    <g>
	<path style="fill:#8690a6;" d="M256,105.485L256,105.485c-17.739,0-31.942,14.708-31.324,32.435l6.514,186.87
		c0.198,5.681,4.861,10.184,10.545,10.184h28.53c5.684,0,10.347-4.503,10.545-10.184l6.514-186.87
		C287.942,120.193,273.738,105.485,256,105.485z" />
        <path style="fill:#8690a6;" d="M258.333,365.667h-4.667c-11.046,0-20,8.955-20,20l0,0c0,11.046,8.954,20,20,20h4.667
		c11.046,0,20-8.954,20-20l0,0C278.333,374.621,269.379,365.667,258.333,365.667z" />
</g>
    <path d="M379.681,17.642C368.305,6.266,353.178,0,337.089,0H174.911c-16.089,0-31.216,6.266-42.592,17.642L17.642,132.319
	C6.265,143.695,0,158.821,0,174.911v162.178c0,16.09,6.265,31.216,17.642,42.592l114.677,114.678
	C143.695,505.734,158.822,512,174.911,512h162.178c16.089,0,31.216-6.266,42.592-17.642L494.358,379.68
	C505.735,368.305,512,353.179,512,337.089V174.911c0-16.09-6.265-31.216-17.642-42.592L379.681,17.642z M492,337.089
	c0,10.747-4.185,20.851-11.784,28.449L365.539,480.216c-7.599,7.6-17.703,11.784-28.45,11.784H174.911
	c-10.747,0-20.851-4.185-28.45-11.784L31.784,365.538C24.185,357.939,20,347.836,20,337.089V174.911
	c0-10.747,4.185-20.851,11.784-28.449L146.461,31.784C154.06,24.185,164.164,20,174.911,20h162.178
	c10.747,0,20.851,4.185,28.45,11.784l114.678,114.678c7.599,7.599,11.784,17.702,11.784,28.449v162.178H492z" />
    <path d="M360.229,79.743c-14.236-14.236-33.165-22.076-53.298-22.076H205.069c-20.133,0-39.062,7.84-53.299,22.076L79.744,151.77
	c-14.237,14.236-22.078,33.165-22.078,53.299V306.93c0,20.134,7.841,39.063,22.077,53.299l72.027,72.027
	c14.236,14.236,33.165,22.076,53.298,22.076h101.861c20.133,0,39.062-7.84,53.299-22.076l72.026-72.027
	c14.237-14.236,22.078-33.165,22.078-53.299V205.069c0-20.134-7.841-39.063-22.077-53.299L360.229,79.743z M434.333,306.931
	c0,14.792-5.76,28.697-16.22,39.156l-72.026,72.027c-10.459,10.459-24.365,16.219-39.157,16.219H205.069
	c-14.792,0-28.697-5.76-39.156-16.219l-72.027-72.027c-10.459-10.459-16.219-24.364-16.219-39.156V205.069
	c0-14.792,5.76-28.697,16.22-39.156l72.026-72.027c10.459-10.459,24.365-16.219,39.157-16.219h101.861
	c14.792,0,28.697,5.76,39.156,16.219l72.027,72.027c10.459,10.459,16.219,24.364,16.219,39.156V306.931z" />
    <path d="M256,95.485c-11.316,0-21.878,4.483-29.739,12.623s-11.973,18.852-11.579,30.161l6.514,186.869
	c0.388,11.122,9.41,19.835,20.54,19.835h28.529c11.129,0,20.151-8.713,20.54-19.835l2.712-77.795
	c0.192-5.52-4.126-10.15-9.646-10.343c-5.518-0.177-10.15,4.126-10.343,9.646l-2.712,77.795c-0.01,0.299-0.252,0.532-0.551,0.532
	h-28.529c-0.299,0-0.541-0.233-0.551-0.532l-6.514-186.869c-0.204-5.839,1.919-11.368,5.977-15.57
	c4.059-4.202,9.511-6.517,15.353-6.517s11.294,2.314,15.353,6.517c4.058,4.202,6.181,9.731,5.977,15.57l-1.084,31.099
	c-0.192,5.52,4.126,10.15,9.646,10.343c5.503,0.208,10.15-4.125,10.342-9.646l1.084-31.099c0.394-11.31-3.718-22.021-11.579-30.161
	S267.316,95.485,256,95.485z" />
    <path d="M258.333,355.667h-4.667c-16.542,0-30,13.458-30,30s13.458,30,30,30h4.667c16.542,0,30-13.458,30-30
	S274.875,355.667,258.333,355.667z M258.333,395.667h-4.667c-5.514,0-10-4.486-10-10s4.486-10,10-10h4.667c5.514,0,10,4.486,10,10
	S263.848,395.667,258.333,395.667z" />
    <path d="M294.09,204.83c-0.25-0.601-0.56-1.19-0.92-1.73c-0.36-0.55-0.78-1.06-1.24-1.52c-2.33-2.32-5.78-3.391-9.03-2.73
	c-0.63,0.13-1.26,0.32-1.87,0.57c-0.6,0.25-1.18,0.56-1.72,0.92c-0.55,0.36-1.06,0.78-1.52,1.24s-0.88,0.97-1.25,1.52
	c-0.36,0.54-0.67,1.13-0.92,1.73c-0.24,0.6-0.44,1.229-0.56,1.87c-0.13,0.64-0.2,1.3-0.2,1.949c0,0.66,0.07,1.311,0.2,1.96
	c0.12,0.641,0.32,1.261,0.56,1.87c0.25,0.601,0.56,1.181,0.92,1.721c0.37,0.55,0.79,1.06,1.25,1.52c0.46,0.47,0.97,0.88,1.52,1.25
	c0.54,0.36,1.12,0.67,1.72,0.92c0.61,0.25,1.24,0.44,1.87,0.57c0.65,0.13,1.31,0.189,1.96,0.189s1.31-0.06,1.95-0.189
	c0.64-0.13,1.27-0.32,1.87-0.57c0.61-0.25,1.19-0.56,1.73-0.92c0.55-0.37,1.06-0.78,1.52-1.25c0.46-0.46,0.88-0.97,1.24-1.52
	c0.36-0.54,0.67-1.12,0.92-1.721c0.25-0.609,0.44-1.239,0.57-1.87c0.13-0.649,0.2-1.3,0.2-1.96c0-0.649-0.07-1.31-0.2-1.949
	C294.53,206.06,294.34,205.43,294.09,204.83z" />
    <g>
</g>

</svg>
