<svg xmlns="http://www.w3.org/2000/svg" width="400" height="400">
    <g fill-rule="evenodd">
        <path fill="#f57f17"
            d="M172.1.3c-2 0-3.7.3-3.7.5s-1.2.4-2.6.4c-1.4 0-2.7.2-2.8.4-.1.2-1.2.4-2.4.4s-2.2.2-2.2.4-.9.4-2 .4-2 .2-2 .4-.9.4-2 .4-2 .2-2 .4-.7.4-1.6.4c-.9 0-1.6.2-1.6.4s-.7.4-1.6.4c-.9 0-1.6.2-1.6.4s-.6.4-1.4.4c-.8 0-1.4.2-1.4.4s-.6.4-1.4.4c-.7 0-1.5.2-1.6.4-.1.2-.8.4-1.4.4-.7 0-1.2.2-1.2.4s-.5.4-1.2.4-1.2.2-1.2.4-.5.4-1.2.4-1.2.2-1.2.4-.3.4-.8.4c-.9 0-5 1.3-5.2 1.6-.1.2-1 .5-2.1.8-1 .3-1.9.7-1.9.9 0 .2-.4.3-1 .3-.5 0-1 .2-1.2.4-.1.2-.6.4-1 .4-.5 0-.8.2-.8.4s-.4.4-.8.4-.8.2-.8.4-.3.4-.8.4c-.8 0-4.1 1.6-4.3 2.1-.1.2-.5.3-1 .3-.4 0-.7.2-.7.4s-.4.4-.8.4-.8.2-.8.4-.4.4-.8.4-.8.2-.8.4-.4.4-.8.4-.8.2-.8.4-.4.4-.8.4-.8.2-.8.4-.4.4-.8.4-.8.2-.8.4-.3.4-.7.4c-.4 0-1 .4-1.3.8-.3.4-.9.8-1.3.8s-.7.1-.7.3c0 .2-.6.6-1.4.9-.8.3-1.4.7-1.4.8 0 .2-.5.5-1.1.7-1.4.6-3.2 1.7-4.3 2.6-.4.4-1 .7-1.3.7-.3 0-.5.2-.5.4s-.2.4-.5.4-1 .4-1.4.8c-.5.4-1 .8-1.3.8-.2 0-.4.2-.4.4s-.2.4-.5.4c-.2 0-.7.3-1 .7-.4.4-1.2 1-1.8 1.3-.6.3-1.1.7-1.1.9 0 .1-.2.3-.4.3-.3 0-1.2.7-2 1.6-.8.9-1.7 1.6-2 1.6-.3 0-1 .5-1.5 1.1a281.4 281.4 0 0 0-29.2 28.3c-.3.3-.5.8-.5 1 0 .3-.5 1-1.2 1.6-.7.6-1.2 1.3-1.2 1.5 0 .2-.7 1.1-1.6 2a9 9 0 0 0-1.6 2.1c0 .2-.2.4-.3.4-.2 0-.6.5-1 1.1-.2.6-.8 1.4-1.2 1.7-.4.4-.7.9-.7 1.1 0 .3-.2.5-.4.5s-.4.2-.4.4-.4.8-.8 1.3-.8 1-.8 1.4c0 .3-.2.5-.4.5-.1 0-.5.5-.8 1.2-.3.7-.7 1.2-.8 1.2-.2 0-.4.2-.4.5s-.3.9-.7 1.3a5 5 0 0 0-1 2c-.2.5-.5 1-.7 1-.2 0-.4.3-.4.6s-.2.6-.4.6-.4.4-.4.8-.2.8-.4.8-.4.2-.4.5-.4 1-.8 1.4c-.4.5-.8 1.1-.8 1.5 0 .3-.2.6-.4.6s-.4.4-.4.8-.2.8-.4.8-.4.4-.4.8-.2.8-.4.8-.4.4-.4.8-.2.8-.4.8-.4.4-.4.8-.2.8-.4.8-.4.4-.4.8-.2.8-.4.8-.4.3-.4.8c0 .4-.1.8-.3.9a136.4 136.4 0 0 1-2.5 4.8l-.4 1.3c0 .3-.2.6-.4.6s-.4.3-.4.6-.2 1-.4 1.3a32.3 32.3 0 0 0-2 5.3c0 .4-.2.8-.4.8s-.4.3-.4.8c0 .4-.2.9-.4 1-.2.1-.4 1.1-.6 2.2-.2 1.1-.4 2-.6 2-.2 0-.4.5-.4 1.2s-.2 1.2-.4 1.2-.4.5-.4 1.2-.2 1.2-.4 1.2-.4.5-.4 1.2-.2 1.2-.4 1.2-.4.7-.4 1.6c0 .9-.2 1.6-.4 1.6s-.4.6-.4 1.4c0 .8-.2 1.4-.4 1.4s-.4.7-.4 1.6c0 .9-.2 1.6-.4 1.6s-.4.7-.4 1.6c0 .9-.2 1.6-.4 1.6s-.4.8-.4 1.8-.2 1.9-.4 2c-.2.1-.4 1.1-.4 2.2s-.2 2-.4 2-.4 1-.4 2.2c0 1.2-.2 2.2-.4 2.2s-.4 1.1-.4 2.5c0 1.5-.2 2.7-.5 3-.7.8-.7 49 0 49.8.3.3.5 1.5.5 3 0 1.4.2 2.5.4 2.5s.4 1 .4 2.4c0 1.3.2 2.4.4 2.4s.4.9.4 2 .2 2 .4 2 .4.8.4 1.8.2 1.8.4 1.8.4.7.4 1.6c0 .8.2 1.7.4 1.8.2.1.4.9.4 1.6 0 .8.2 1.4.4 1.4s.4.6.4 1.4c0 .7.2 1.5.4 1.6.2.1.4.8.4 1.4 0 .7.2 1.2.4 1.2s.4.5.4 1.2c0 .6.2 1.3.4 1.4.2.1.4.8.4 1.4 0 .7.2 1.2.4 1.2s.4.5.4 1.2c0 .6.2 1.3.4 1.4.2.1.5 1 .6 2 .2 1 .5 1.8.6 1.8.2 0 .4.4.4 1 0 .5.2 1 .4 1.2.2.1.4.6.4 1 0 .5.2.8.4.8s.4.4.4 1c0 .5.2 1 .4 1.2.2.1.4.6.4 1 0 .5.2.8.4.8s.4.3.4.8c0 .4.5 1.7 1.2 3s1.2 2.5 1.2 2.8c0 .3.2.6.4.6s.4.4.4 1 .2 1 .4 1 .4.4.4.8.2.8.4.8.4.3.4.8c0 .4.1.8.3.9a32 32 0 0 1 3.5 6.2c.2.5.5.9.7.9.2 0 .3.4.3.8s.2.8.4.8.4.3.4.6.2.6.4.6.4.3.4.6.2.6.4.6.4.3.4.6.2.6.4.6.4.3.4.6a24 24 0 0 0 3.2 5.8l.8 1.3c.3.6.7 1.1.9 1.1.1 0 .3.2.3.5s.5 1 1 1.7a15 15 0 0 1 1.7 2.3c.4.6.8 1.1 1 1.1.2 0 .3.2.3.4 0 .3.5 1 1.2 1.6.7.6 1.2 1.3 1.2 1.6 0 .3.5 1 1.2 1.6.7.6 1.2 1.3 1.2 1.5 0 .2.6 1 1.4 2l1.7 1.9 1.2 1.6a193.7 193.7 0 0 0 35.7 32.6c0 .2.2.4.5.4.2 0 .7.3 1 .7.4.4 1.2 1 1.8 1.3.6.3 1.1.7 1.1.9 0 .2.4.3.8.3s.8.2.8.4c0 .1.5.5 1.2.8l1.2.7c0 .2 1 .8 2.3 1.5 1.3.6 2.4 1.3 2.5 1.4.1.2.8.5 1.5.8.7.3 1.3.7 1.3.9 0 .2.3.3.6.3s.6.2.6.4.3.4.6.4.6.2.6.4.4.4.8.4.8.2.8.4.4.4.8.4.8.2.8.4.4.4.8.4.8.2.8.4.4.4.8.4.8.2.8.4.4.4.8.4.8.2.8.4.4.4.8.4.8.1.8.3c0 .4 2 1.3 2.7 1.3.3 0 .5.2.5.4s.3.4.6.4 1 .2 1.3.4l2.7.7c1.1.2 3.3.9 4.8 1.5a192.2 192.2 0 0 0 182.8-21.8l4.4-3.2a196.6 196.6 0 0 0 66.4-90.4c3.3-9.5 6.4-21.3 7.8-29.1 2.5-14.7 3-20 3-34.9 0-14.9-.6-20.6-3-34.9a210 210 0 0 0-11.6-39.2c-.3-.4-.6-1.7-.7-2.7-.1-1.1-.4-2.1-.6-2.2-.1-.2-.3-.6-.3-1 0-.5-.2-.8-.4-.8s-.4-.2-.4-.5c0-.8-1-2.7-1.3-2.7-.2 0-.3-.4-.3-.8s-.2-.8-.4-.8-.4-.4-.4-.8-.2-.8-.4-.8-.4-.4-.4-.8-.2-.8-.4-.8-.4-.4-.4-.8-.2-.8-.4-.8-.4-.4-.4-.8-.2-.8-.4-.8-.4-.4-.4-.8-.2-.8-.4-.8-.4-.2-.4-.5-.4-1-.8-1.4c-.4-.5-.8-1.1-.8-1.5 0-.3-.2-.6-.4-.6s-.4-.2-.4-.4a39.7 39.7 0 0 0-4-6.9c-.3-.6-.7-1.1-.9-1.1-.1 0-.3-.4-.3-.8s-.1-.8-.3-.8c-.2 0-.6-.5-1-1.1-.2-.6-.8-1.4-1.2-1.7l-.7-1c0-.4-1.7-2.6-3.1-4-.5-.6-.9-1.2-.9-1.4 0-.2-.7-1-1.6-2a7.4 7.4 0 0 1-1.6-2c0-.3-.7-1.1-1.5-2l-2.2-2.6c-1.6-2.8-17-18.3-22.1-22.3l-1.6-1.2-2-1.7a7.4 7.4 0 0 0-2-1.4A5 5 0 0 1 312 40c-.6-.7-1.3-1.2-1.6-1.2-.3 0-1-.5-1.6-1.2-.6-.7-1.3-1.2-1.6-1.2-.2 0-.4-.1-.4-.3 0-.2-.5-.6-1.1-1a15 15 0 0 1-2.3-1.7c-.7-.5-1.4-1-1.7-1-.3 0-.5-.1-.5-.3 0-.2-.5-.6-1.1-1-.6-.2-1.2-.6-1.3-.7a27.8 27.8 0 0 0-6.4-3.6c0-.2-.3-.4-.6-.4s-.6-.2-.6-.4-.3-.4-.6-.4-.6-.2-.6-.4-.3-.4-.6-.4-.6-.2-.6-.4-.3-.4-.8-.4c-.4 0-.8-.1-.9-.3 0-.2-.9-.7-1.8-1.2l-3.4-1.8c-1-.5-1.8-1-1.8-1.2-.1-.2-.5-.3-1-.3-.4 0-.7-.2-.7-.4s-.3-.4-.6-.4-1.2-.3-2-.8l-4.2-2c-1.4-.6-2.8-1.2-3.3-1.2-.4 0-.7-.2-.7-.4s-.3-.4-.8-.4c-.4 0-.9-.2-1-.4-.1-.2-.7-.4-1.2-.4-.6 0-1-.1-1-.3 0-.2-.9-.6-2-.9a6 6 0 0 1-2-.8c0-.2-1-.5-2.2-.6a6.8 6.8 0 0 1-2.2-.6c0-.2-.5-.4-1.2-.4s-1.2-.2-1.2-.4-.5-.4-1.2-.4-1.2-.2-1.2-.4-.5-.4-1.2-.4-1.2-.2-1.2-.4-.5-.4-1.2-.4c-.6 0-1.3-.2-1.4-.4-.1-.2-.9-.4-1.6-.4-.8 0-1.4-.2-1.4-.4s-.6-.4-1.4-.4c-.7 0-1.5-.2-1.6-.4-.1-.2-1-.4-1.8-.4-.9 0-1.7-.2-1.8-.4-.1-.2-1-.4-1.8-.4-.9 0-1.6-.2-1.6-.4s-.9-.4-2-.4c-1 0-2-.2-2.2-.4-.1-.2-1.2-.4-2.4-.4s-2.3-.2-2.4-.4c-.1-.2-1.4-.4-2.7-.4-1.5 0-2.7-.2-3-.5-.5-.5-36.5-.8-45.6-.4m26.5 19.3c.1.2 2.7.4 6.2.4s6 .2 6.2.4c.1.2 1.5.4 3 .4a8 8 0 0 1 3 .4c.2.2 1.4.4 2.6.6 5.5.5 6.6.7 7 1 .2.2 1 .4 1.9.4.8 0 1.6.2 1.7.4a2901.3 2901.3 0 0 1 6.3 1.3c1.7.2 3.1.6 3.1.8 0 .2.5.3 1.2.3s1.2.2 1.2.4.6.4 1.4.4c.8 0 1.4.2 1.4.4s.5.4 1.2.4 1.2.2 1.2.4.5.4 1.2.4 1.2.2 1.2.4.4.4 1 .4c.5 0 1 .2 1.2.4.1.2.6.4 1 .4.5 0 .8.2.8.4s.5.4 1.2.4 1.2.2 1.2.4.4.4.8.4.8.2.8.4.5.4 1.2.4 1.2.2 1.2.4.4.4.8.4.8.2.8.4.4.4.8.4.8.2.8.4.3.4.8.4c.4 0 .9.2 1 .4.1.2.6.4 1 .4.5 0 .8.2.8.4s.4.4.8.4.8.2.8.4.4.4.8.4.8.2.8.4.4.4.8.4.8.2.8.4.4.4.8.4.8.2.8.4.4.4.8.4.8.2.8.4.3.4.8.4a58 58 0 0 0 6.8 3.5 160.3 160.3 0 0 1 54 49.6 175.4 175.4 0 0 1 29.3 73.1c1.5 10.8 1.7 13 1.7 26.6 0 15-.3 17.6-2.6 31.6-1 6.2-4 17.7-6.5 25a181.6 181.6 0 0 1-14.4 31.2 178 178 0 0 1-79.5 71.5c-17.2 7.6-33.3 12-53.6 14.4-6.4.8-30 .6-36.6-.2a175.2 175.2 0 0 1-85.6-34 160.3 160.3 0 0 1-51.8-64.3c-.2 0-.4-.4-.4-.8s-.2-.8-.4-.8-.4-.4-.4-.8-.2-.8-.4-.8-.4-.3-.4-.8c0-.4-.2-.9-.4-1-.2-.1-.4-.6-.4-1 0-.5-.2-.8-.4-.8s-.4-.4-.4-.8-.2-.8-.4-.8-.4-.5-.4-1.2-.2-1.2-.4-1.2-.4-.4-.4-.8-.2-.8-.4-.8-.4-.5-.4-1.2-.2-1.2-.4-1.2-.4-.4-.4-.8-.2-.8-.4-.8-.4-.5-.4-1.2-.2-1.2-.4-1.2-.4-.5-.4-1.2-.2-1.2-.4-1.2-.4-.5-.4-1.2-.2-1.2-.4-1.2-.4-.6-.4-1.4c0-.8-.2-1.4-.4-1.4s-.4-.5-.4-1.2-.1-1.2-.3-1.2c-.2 0-.5-1.3-.8-2.9a42 42 0 0 0-1.3-6.5c-.4-1-.8-2.8-1-5.4-.2-1-.4-2.2-.6-2.6-.4-.8-.7-3-1-7.8a14 14 0 0 0-.6-3.4c-.2-.4-.5-3.2-.6-6.2-.6-15.6-.6-17.3-.2-17.7.2-.3.4-2.7.4-6.2s.2-5.7.4-5.7.4-1.3.4-3c0-1.6.2-3 .4-3.2.2-.1.4-1.2.4-2.4s.2-2.3.4-2.4c.2-.1.4-1.2.4-2.4s.2-2.2.4-2.2.4-.8.5-1.7c.5-3.2.8-4.9 1.1-5.3.2-.2.4-1.5.6-2.9.2-1.4.4-2.5.6-2.5.2 0 .4-.7.4-1.6 0-.9.2-1.6.4-1.6s.4-.5.4-1.2.2-1.2.4-1.2.4-.4.4-1c0-.5.2-1 .4-1.2.2-.1.4-.7.4-1.2 0-.6.2-1 .4-1s.4-.5.4-1.2.2-1.2.4-1.2.4-.5.4-1.2.2-1.2.4-1.2.4-.4.4-.8.2-.8.4-.8.4-.5.4-1.2.2-1.2.4-1.2.4-.4.4-.8.2-.8.4-.8.4-.3.4-.7c0-.6 1.5-4 4.5-9.8a46.6 46.6 0 0 0 4.3-8.7c.2 0 .4-.3.4-.6s.2-.6.4-.6.4-.3.4-.6.2-.6.4-.6.4-.4.4-.8.2-.8.4-.8.4-.3.4-.6.2-.6.4-.6.4-.3.4-.6.2-.6.4-.6.4-.3.4-.7c0-.4.4-1 .8-1.3.4-.3.8-.9.8-1.2 0-.3.4-.9.8-1.2.4-.3.8-.8.8-1 0-.4.5-1.2 1.2-1.9s1.2-1.4 1.2-1.7c0-.2.4-.7.8-1 .4-.3.8-.8.8-1 0-.3.1-.6.3-.7a68.4 68.4 0 0 1 4-4.7c.5-.5.9-1.2.9-1.5 0-.3 1.3-1.8 2.8-3.3 1.5-1.6 2.8-3 2.8-3.3a140.5 140.5 0 0 0 12.2-12.3c.3 0 1.8-1.3 3.4-2.8 1.6-1.5 3.1-2.8 3.4-2.8.2 0 .9-.4 1.4-.9a68.4 68.4 0 0 1 4.7-4c.1-.2.4-.3.6-.3.3 0 .8-.4 1.1-.8.3-.4.8-.8 1-.8.3 0 1-.5 1.7-1.2s1.5-1.2 1.8-1.2c.3 0 .8-.4 1.1-.8.3-.4.8-.8 1.1-.8.3 0 1-.4 1.4-.8.5-.4 1-.8 1.4-.8.3 0 .5-.2.5-.4s.2-.4.5-.4 1-.4 1.4-.8c.5-.4 1.1-.8 1.5-.8.3 0 .6-.2.6-.4s.3-.4.6-.4.6-.2.6-.4.3-.4.6-.4.6-.2.6-.4.2-.4.5-.4 1.7-.6 3.2-1.4l5-2.5a46.4 46.4 0 0 1 8.5-4.1c0-.2.5-.4 1-.4s1-.2 1-.4.4-.4.8-.4.8-.2.8-.4.5-.4 1.2-.4 1.2-.2 1.2-.4.4-.4.8-.4.8-.2.8-.4.5-.4 1.2-.4 1.2-.2 1.2-.4.5-.4 1.2-.4 1.2-.2 1.2-.4.4-.4 1-.4c.5 0 1-.2 1.2-.4.1-.2.7-.4 1.2-.4.6 0 1-.2 1-.4s.5-.4 1.2-.4 1.2-.2 1.2-.4.7-.4 1.6-.4c.9 0 1.6-.2 1.6-.3 0-.2 1.2-.6 2.7-.8 4.7-.8 5.5-1 6.3-1.3a26 26 0 0 1 6.1-1c1.2-.2 2.1-.4 2.1-.6 0-.2 1-.4 2.3-.4a51.4 51.4 0 0 1 14.9-1.4c3.2-.2 6-.4 6.2-.6a39 39 0 0 1 10.8 0m-75 101.4a22.2 22.2 0 0 0-10.2 37.2 22 22 0 0 0 37.6-15.6 22.1 22.1 0 0 0-27.5-21.6m128.5-.1c-17.9 4.8-23.4 25.7-10 38a22 22 0 0 0 37-16.5c-.2-14.1-14-25.1-27-21.5M108.2 253.2c-8 2-9.7 12-2.8 16.7l1.9 1.3h89.5c98 0 90.9.2 93.5-2.4a9.3 9.3 0 0 0-2.1-14.9l-1.6-.9H198c-48.7-.1-89.1 0-89.8.2" />
        <path fill="#fff176"
            d="M202.2 32c-.1.2-2 .4-4 .4-2.3 0-3.8.2-3.8.4s-1.3.4-3 .4c-1.6 0-3 .2-3.2.4-.1.2-1.3.4-2.6.4s-2.4.2-2.4.4-.8.4-1.8.4-1.9.2-2 .4c-.1.2-1 .4-2 .4s-1.8.2-1.8.4-.7.4-1.6.4c-.9 0-1.6.2-1.6.4s-.7.4-1.6.4c-.9 0-1.6.2-1.6.4s-.6.4-1.4.4c-.7 0-1.5.2-1.6.4-.1.2-.8.4-1.4.4-.7 0-1.2.2-1.2.4s-.6.4-1.4.4c-.8 0-1.4.2-1.4.4s-.5.4-1.2.4-1.2.2-1.2.4-.5.4-1.2.4-1.2.2-1.2.4-.5.4-1.2.4-1.2.2-1.2.4-.3.4-.6.4-1 .2-1.3.4c-.4.2-1.8.7-3.2 1-1.4.5-2.5 1-2.5 1.1 0 .2-.3.3-.6.3a9 9 0 0 0-2.3.8c-1 .4-1.9.8-2.2.8-.3 0-.5.2-.5.4s-.4.4-.8.4-.8.2-.8.4-.2.4-.5.4c-.6 0-7.3 3.3-7.4 3.7-.1.2-.5.3-1 .3-.4 0-.7.2-.7.4s-.4.4-.8.4-.8.2-.8.4-.3.4-.6.4-.6.2-.6.4-.3.4-.6.4c-.4 0-1 .4-1.5.8s-1 .8-1.4.8c-.3 0-.5.2-.5.4s-.4.4-.8.4-.8.2-.8.4-.3.4-.7.4c-.4 0-1 .4-1.3.8-.3.4-.8.8-1 .8-.4 0-1.5.6-2.6 1.4-1 .8-2.1 1.4-2.3 1.4-.2 0-.7.4-1.1.8l-1 .8c-.3 0-.9.4-1.4 1-.6.5-1.2 1-1.4 1-.2 0-.8.4-1.4 1-.5.5-1.1 1-1.3 1a8 8 0 0 0-2 1.6 9 9 0 0 1-2.1 1.6c-.3 0-1.2.7-2 1.6a10 10 0 0 1-1.8 1.6c-.3 0-1.6 1.1-3.4 2.8l-4 3.6c-3.2 2.8-6 5.5-8.8 8.8l-3.6 4a14.6 14.6 0 0 0-2.8 3.4c0 .2-.7 1-1.6 1.8-.9.8-1.6 1.7-1.6 1.9a9 9 0 0 1-1.6 2.1c-.9 1-1.6 2-1.6 2.1 0 .2-.5.8-1 1.3-.6.6-1 1.2-1 1.4 0 .2-.5.8-1 1.4-.6.5-1 1.1-1 1.3 0 .2-.4.7-.8 1.1-.4.4-.8 1-.8 1.2 0 .3-.4.8-.8 1.2-.4.4-.8 1-.8 1.2 0 .3-.3.7-.6 1-.3.3-.6.8-.6 1.2 0 .3-.4.9-.8 1.2-.4.3-.8.9-.8 1.3s-.2.7-.4.7-.4.3-.4.6c0 .4-.4 1-.8 1.5s-.8 1-.8 1.4c0 .3-.2.5-.4.5s-.4.4-.4.8-.2.8-.4.8-.4.3-.4.6-.2.6-.4.6-.4.4-.4.8-.2.8-.4.8-.4.3-.4.8c0 .4-.1.8-.3.9a40.3 40.3 0 0 0-4.1 7.9c-.2 0-.4.4-.4.8s-.2.8-.4.8-.4.4-.4.8-.2.8-.4.8-.4.3-.4.6c0 .5-1.1 3.3-2 5a10 10 0 0 0-.6 2.2c-.2.8-.4 1.5-.6 1.6-.2.1-.4.7-.4 1.2 0 .6-.2 1-.4 1s-.4.5-.4 1.2-.2 1.2-.4 1.2-.4.5-.4 1.2-.2 1.2-.4 1.2-.4.5-.4 1.2-.2 1.2-.4 1.2-.4.6-.4 1.4c0 .8-.2 1.4-.4 1.4s-.4.5-.4 1.2c0 .6-.2 1.3-.4 1.4-.2.1-.4.9-.4 1.6 0 .8-.2 1.4-.4 1.4s-.4.7-.4 1.6c0 .9-.2 1.6-.4 1.6s-.4.7-.4 1.6c0 .8-.2 1.7-.4 1.8-.2.1-.4 1-.4 1.8 0 .9-.2 1.6-.4 1.6s-.4.9-.4 2-.2 2-.4 2-.4 1-.4 2.4c0 1.3-.2 2.4-.4 2.4s-.4 1.3-.4 3.2c0 1.9-.2 3.2-.4 3.2s-.4 1.5-.4 3.7a253.2 253.2 0 0 0 1.2 45.9c.2 0 .4 1 .4 2.4 0 1.3.2 2.5.4 2.6.2.1.4 1.1.4 2.2s.2 2 .4 2 .4.7.4 1.6c0 .8.2 1.7.4 1.8.3.2.4.7 1 4.9.2 1 .4 1.8.6 2 .2 0 .4.7.4 1.3 0 .7.2 1.2.4 1.2.3 0 .4.4 1 4.1.2.8.4 1.5.6 1.5.2 0 .4.4.4 1 0 .5.2 1 .4 1.2.2.1.4.7.4 1.2 0 .6.2 1 .4 1s.4.5.4 1.2.2 1.2.4 1.2.4.4.4.8.2 1.1.4 1.5l2 4.1c7 14 26.7 35.8 43.4 47.9l4.8 3.6A183 183 0 0 0 109 346a173 173 0 0 0 65.2 20.7c6.6.8 30.2 1 36.6.2a175 175 0 0 0 155.9-154.7c1-7.4 1-30.6 0-38-1.8-13.2-2.7-18-5.7-28.8a169.2 169.2 0 0 0-27.5-55.8c-13-17.8-34.3-37.2-48.7-44.4l-4.1-2c-.4-.2-1-.4-1.5-.4-.4 0-.8-.2-.8-.4s-.5-.4-1.2-.4-1.2-.2-1.2-.4-.5-.4-1.2-.4-1.2-.2-1.2-.4-.5-.4-1-.4c-.6 0-1-.2-1-.4s-.5-.4-1.2-.4c-.6 0-1.3-.2-1.4-.4-.1-.2-.9-.4-1.6-.4-.8 0-1.4-.2-1.4-.4s-.5-.4-1.2-.4c-.6 0-1.3-.2-1.4-.4-.1-.2-1-.4-1.8-.4-.9 0-1.7-.2-1.8-.4-.1-.2-.9-.4-1.6-.4-.7 0-1.5-.2-1.6-.4-.1-.2-1-.4-1.8-.4-.9 0-1.6-.2-1.6-.4s-1-.4-2.2-.4c-1.2 0-2.2-.2-2.2-.4s-1-.4-2.4-.4c-1.3 0-2.4-.2-2.4-.4s-1.3-.4-3-.4c-1.6 0-3-.2-3.2-.4-.1-.2-2-.4-4-.4s-3.9-.2-4-.4c-.2-.3-5.2-.4-13.8-.4-8.6 0-13.6.1-13.8.4m168.7 84.8a211.3 211.3 0 0 1 12.2 41.5c2.5 14.3 3 20 3 34.9a163 163 0 0 1-3 34.9c-1.3 7.8-4.4 19.6-7.7 29.1a200.5 200.5 0 0 1-27.9 51.9 196.7 196.7 0 0 1-78.5 61.7 204.4 204.4 0 0 1-38 11.7 193.3 193.3 0 0 1-109.2-9.9c-3.9-1.5-5.3-1.9-6.1-1.7-.6.2-.5.3.2.5l.9.5c0 .2.9.7 1.9 1.3 1 .5 2.1 1.2 2.4 1.5.3.3.9.5 1.3.5.5 0 .8.2.8.4s.3.4.6.4c.4 0 1 .4 1.5.8s1 .8 1.4.8c.3 0 .5.1.5.3 0 .2.6.6 1.4.9.8.3 1.4.7 1.4.9 0 .2.4.3.8.3s.8.2.8.4.4.4.8.4.8.2.8.4.4.4.8.4.8.2.8.4.4.4.8.4.8.2.8.4.3.4.6.4c.4 0 1.7.6 4.7 2l1.3.4c.3 0 .6.2.6.4s.4.4.8.4.8.2.8.4.4.4.8.4 1.4.4 2.2.8c.8.4 1.8.8 2.2.8.4 0 .8.2.8.4s.4.4 1 .4c.5 0 1 .2 1.2.4.1.2.7.4 1.2.4s1 .2 1.2.4c.1.2 1.1.5 2.2.6 1.1.2 2 .5 2 .7 0 .1.6.3 1.4.3.8 0 1.4.2 1.4.4s.5.4 1.2.4c.6 0 1.3.2 1.4.4.1.2.9.4 1.6.4.8 0 1.4.2 1.4.4s.7.4 1.6.4c.9 0 1.6.2 1.6.4s.7.4 1.6.4c.9 0 1.6.2 1.6.4s.7.4 1.6.4c.9 0 1.6.2 1.6.4s1 .4 2.2.4c1.2 0 2.2.2 2.2.4s.9.4 2 .4c1 0 2 .2 2.2.4.1.2 1.4.4 2.8.4 1.7 0 2.6.2 2.7.5.1.4 5.3.5 23.8.5a176 176 0 0 0 24.2-.5c.3-.3 1.5-.5 3-.5 1.4 0 2.5-.2 2.5-.4s1-.4 2.2-.4c1.2 0 2.3-.2 2.4-.4.1-.2 1.1-.4 2.2-.4s2-.2 2-.4.7-.4 1.6-.4c.8 0 1.7-.2 1.8-.4.1-.2 1-.4 1.8-.4.9 0 1.6-.2 1.6-.4s.6-.4 1.4-.4c.7 0 1.5-.2 1.6-.4.1-.2.8-.4 1.4-.4.7 0 1.2-.2 1.2-.4s.6-.4 1.4-.4c.7 0 1.5-.2 1.6-.4.1-.2.8-.4 1.4-.4.7 0 1.2-.2 1.2-.4s.9-.4 2-.6c1.1-.2 2.1-.4 2.2-.6.1-.2.6-.4 1-.4.5 0 1.2-.2 1.6-.4l1.6-.8 1.6-.4c.4 0 .8-.1.8-.3 0-.2.9-.6 2-.9 1.1-.3 2-.7 2-.9 0-.2.3-.3.8-.3.4 0 .9-.2 1-.4.1-.2.6-.4 1-.4.5 0 .8-.2.8-.4s.4-.4.8-.4.8-.2.8-.4.4-.4.8-.4.8-.2.8-.4.4-.4.8-.4.8-.2.8-.4.2-.4.5-.4c.8 0 2.7-1 2.7-1.3 0-.2.4-.3.8-.3s.8-.2.8-.4.4-.4.8-.4.8-.2.8-.4.4-.4.8-.4.8-.2.8-.4.4-.4.8-.4.8-.1.8-.3c0-.2.6-.6 1.3-.9.7-.3 1.6-.8 1.9-1.2a4 4 0 0 1 1.8-1c.7-.1 1.6-.6 2-1 .8-.6 4-2.5 5.9-3.5.6-.4 1.1-.8 1.1-1 0-.1.2-.3.5-.3s1.1-.5 1.7-1.1a15 15 0 0 1 2.3-1.7c.6-.3 1.1-.7 1.1-.9 0-.1.2-.3.4-.3.3 0 1-.5 1.6-1.2.6-.7 1.3-1.2 1.6-1.2.2 0 1.1-.7 2-1.6l2-1.6c.3 0 .7-.2 1-.5l2.4-2.1a491.7 491.7 0 0 0 23.3-23.6c.3-.3.5-.8.5-1 0-.3.7-1.2 1.6-2 .9-.8 1.6-1.7 1.6-2 0-.2.4-.9.9-1.4 1.1-1.1 1.9-2 3.1-3.8a27 27 0 0 1 1.7-2.2l.7-1c0-.3.4-.8.8-1.3s.8-1 .8-1.4c0-.3.2-.5.4-.5.1 0 .4-.3.5-.7.3-.9 1.5-2.8 2.4-3.8.4-.5.8-1.4 1-2a4 4 0 0 1 .9-1.9c.4-.3 1-1.2 1.2-1.9.3-.7.7-1.3.9-1.3.2 0 .3-.4.3-.8s.2-.8.4-.8.4-.4.4-.8.2-.8.4-.8.4-.3.4-.8c0-.4.1-.8.3-.9.4-.2 2.9-5.1 2.9-5.8 0-.3.2-.5.4-.5s.4-.4.4-.8.2-.8.4-.8.4-.4.4-.8.2-.8.4-.8.4-.3.4-.8c0-.4.2-.9.4-1 .2-.1.4-.6.4-1 0-.5.1-.8.3-.8.2 0 .6-.9.9-2a6 6 0 0 1 .8-2l.8-2a7 7 0 0 1 .9-2.2c.2-.2.3-.7.3-1.2s.2-1 .4-1.2c.2-.1.4-1.1.6-2.2.2-1.1.4-2.1.6-2.2.2-.1.4-.7.4-1.2 0-.6.2-1 .4-1s.4-.7.4-1.6c0-.9.2-1.6.4-1.6s.4-.5.4-1.2.2-1.2.4-1.2.4-.7.4-1.6c0-.9.2-1.6.4-1.6s.4-.7.4-1.6c0-.8.2-1.7.4-1.8.2-.1.4-1 .4-1.8 0-.9.2-1.6.4-1.6s.4-.9.4-2 .2-2 .4-2 .4-1 .4-2.4c0-1.3.2-2.4.4-2.4s.4-1.1.4-2.6c0-1.7.2-2.6.5-2.7.4-.1.5-5.3.5-24.1s-.1-24-.5-24.1c-.3-.1-.5-1-.5-3 0-1.5-.2-2.7-.4-2.7s-.4-.9-.4-2c0-1-.2-2-.4-2.2-.2-.1-.4-1.1-.4-2.2s-.2-2-.4-2-.4-.7-.4-1.6c0-.9-.2-1.6-.4-1.6s-.4-.8-.4-1.8-.2-1.9-.4-2c-.2-.1-.4-.8-.4-1.4 0-.6-.2-1.3-.4-1.4-.2-.1-.4-.9-.4-1.6 0-.8-.2-1.4-.4-1.4s-.4-.5-.4-1.2c0-.6-.2-1.3-.4-1.4-.2-.1-.4-.8-.4-1.4 0-.7-.2-1.2-.4-1.2s-.4-.4-.4-1c0-1.2-2-7.5-2.5-7.7-.2-.1-.3-.6-.3-1.1 0-.5-.2-1-.4-1.2-.2-.1-.4-.6-.4-1 0-.5-.2-.8-.4-.8s-.4-.3-.4-.7c0-1-.9-2.9-1.3-2.9-.2 0-.3-.4-.3-1 0-.5-.2-1-.4-1.2-.2-.1-.4-.6-.4-1 0-.5-.2-.8-.4-.8s-.4-.4-.4-.8-.2-.8-.4-.8-.4-.4-.4-.8-.2-.8-.4-.8-.4-.4-.4-.8-.2-.8-.4-.8-.4-.4-.4-.8-.2-.8-.4-.8-.4-.4-.4-.8-.2-.8-.4-.8-.4-.4-.4-.8-.1-.8-.3-.8c-.2 0-.6-.6-.9-1.4-.3-.8-.7-1.4-.9-1.4-.2 0-.3-.3-.3-.7 0-.4-.4-1-.8-1.3-.4-.3-.8-.9-.8-1.3s-.2-.7-.4-.7-.4-.3-.4-.6c0-.7-2.8-5.5-3.3-5.7-.2-.1-.3-.4-.3-.7a1 1 0 0 0-.5-.8c-.3-.2-.3.1-.2 1.4M134.3 121c20.7 5.5 22.7 34.4 2.9 42.1a22.2 22.2 0 1 1-2.9-42.1m127.7 0a22.2 22.2 0 1 1-26 29.4 22.3 22.3 0 0 1 26-29.4m26.2 133a9.3 9.3 0 0 1 2 14.8c-2.5 2.6 4.6 2.4-93.4 2.4h-89.5l-2-1.3a9.2 9.2 0 0 1 2.9-16.7c.7-.2 41-.3 89.8-.3l88.6.1 1.6 1" />
    </g>
</svg>
