<svg xmlns="http://www.w3.org/2000/svg" width="400" height="400">
    <g fill-rule="evenodd">
        <path fill="#827717"
            d="M180.4 2.4c0 .2-2 .4-5 .4-2.9 0-5 .2-5.2.4-.1.2-1.6.4-3.2.4s-3 .2-3.2.4c-.1.2-1.3.4-2.6.4s-2.5.2-2.6.4c-.1.2-1.1.4-2.2.4s-2 .2-2 .4-.9.4-2 .4-2 .2-2 .4-.8.4-1.8.4-1.9.2-2 .4c-.1.2-.9.4-1.6.4-.8 0-1.4.2-1.4.4s-.7.4-1.6.4c-.9 0-1.6.2-1.6.4s-.5.4-1.2.4-1.2.2-1.2.3c0 .2-1.1.5-2.5.7a8 8 0 0 0-2.9.6l-2.2.8c-1 .3-2 .7-2.2.9-.2.2-.8.3-1.3.3-.4 0-1 .1-1 .3a7 7 0 0 1-2.3.9c-1 .3-2 .7-2 .9 0 .2-.4.3-1 .3-.5 0-1 .2-1.2.4-.1.2-.6.4-1 .4-.5 0-.8.2-.8.4s-.3.4-.7.4c-.4 0-2.5.9-4.7 2a25.1 25.1 0 0 1-5.5 2.3c0 .2-.9.7-1.8 1.2l-3.4 1.8c-1 .5-1.8 1-1.8 1.2-.1.2-.5.3-1 .3-.4 0-.7.2-.7.4s-.4.4-.8.4-.8.1-.8.3c0 .2-.8.7-1.8 1-1 .5-1.8 1-1.8 1.2 0 .2-.3.3-.7.3-.4 0-1 .4-1.3.8-.3.4-.8.8-1.1.8-.3 0-1 .4-1.4.8-.5.4-1 .8-1.4.8-.3 0-.5.2-.5.4s-.2.4-.5.4-1 .4-1.4.8c-.5.4-1 .8-1.2.8-.2 0-1 .5-1.7 1.2-.8.7-1.6 1.2-1.8 1.2-.2 0-.7.4-1 .8-.3.4-.7.8-1 .8a5 5 0 0 0-1.4 1.2c-.6.7-1.3 1.2-1.6 1.2-.3 0-1 .5-1.5 1.1a6 6 0 0 1-2 1.4L69 45.5c-.9.8-2.2 2-3 2.5a209.8 209.8 0 0 0-24.8 26c0 .3-.7 1.2-1.6 2-.9.8-1.6 1.7-1.6 1.9 0 .2-.4.6-.8.9-.4.3-.8.8-.8 1 0 .4-.2.6-.4.6s-.4.3-.4.6-.1.6-.3.6c-.2 0-.6.5-1 1.1-.2.6-.9 1.5-1.4 2-.4.5-1 1.2-1.1 1.7-.1.4-.4.8-.6.8-.2 0-.4.2-.4.5s-.4 1-.8 1.4c-.4.5-.8 1.1-.8 1.5 0 .3-.2.6-.4.6s-.7.7-1 1.6c-.4.9-.9 1.6-1 1.6-.1 0-.5.6-.8 1.4-.3.8-.7 1.4-.9 1.4-.2 0-.3.3-.3.6 0 .4-.4 1-.8 1.5s-.8 1-.8 1.4c0 .3-.2.5-.4.5s-.4.4-.4.8-.2.8-.4.8-.4.4-.4.8-.2.8-.4.8-.4.4-.4.8-.2.8-.4.8-.4.4-.4.8-.2.8-.4.8-.4.4-.4.8-.2.8-.4.8-.4.3-.4.6-.2.6-.4.6-.4.2-.4.5c0 .5-1.2 3.1-2.8 6.4l-.4 1.3c0 .3-.1.6-.3.6-.2 0-.6.9-.9 2a6 6 0 0 1-.8 2 6 6 0 0 0-.8 2 6 6 0 0 1-.8 2c-.2 0-.5 1-.6 2.2a6.8 6.8 0 0 1-.6 2.2c-.2 0-.4.5-.4 1.2S9 134 8.8 134s-.4.5-.4 1.2-.2 1.2-.4 1.2-.4.5-.4 1.2-.2 1.2-.4 1.2-.4.5-.4 1.2c0 .6-.2 1.3-.4 1.4-.2.1-.4.9-.4 1.6 0 .8-.2 1.4-.4 1.4s-.4.6-.4 1.4c0 .7-.2 1.5-.4 1.6-.2.1-.4.9-.4 1.6 0 .7-.2 1.5-.4 1.6-.2.1-.4 1-.4 2s-.2 1.8-.4 1.8-.4.9-.4 2-.2 2-.4 2-.4 1-.4 2.2c0 1.2-.2 2.3-.4 2.4-.2.1-.4 1.4-.4 2.7 0 1.5-.2 2.7-.5 3-.7.8-.7 48.6 0 49.4.3.2.5 1.5.5 2.8 0 1.2.2 2.4.4 2.5.2.1.4 1.2.4 2.4s.2 2.3.4 2.4c.2.1.4 1 .4 2s.2 1.9.4 2c.2.1.4 1 .4 1.8 0 .9.2 1.6.4 1.6s.4.8.4 1.8.2 1.8.4 1.8.4.6.4 1.4c0 .7.2 1.5.4 1.6.2.1.4.8.4 1.4 0 .7.2 1.2.4 1.2s.4.7.4 1.6c0 .9.2 1.6.4 1.6s.4.5.4 1.2.2 1.2.4 1.2.4.5.4 1.2.2 1.2.4 1.2.4.5.4 1.2.2 1.2.4 1.2.4.3.4.7c0 1 1.3 5.3 1.7 5.3.2 0 .3.4.3 1 0 .5.2 1 .4 1.2.2.1.4.6.4 1 0 .5.2.8.4.8s.4.4.4 1c0 .5.2 1 .4 1.2.2.1.4.6.4 1 0 .5.2.8.4.8s.4.4.4.8.2.8.4.8.4.3.4.8c0 .4.2.9.4 1 .2.1.4.6.4 1 0 .5.2.8.4.8s.4.4.4.8.2.8.4.8.4.4.4.8.2.8.4.8.4.4.4.8.2.8.4.8.4.4.4.8.2.8.4.8.4.4.4.8.2.8.4.8.4.4.4.8.2.8.4.8.4.2.4.5.4 1 .8 1.4c.4.5.8 1.1.8 1.5 0 .3.2.6.4.6s.4.4.4.8.2.8.4.8.4.2.4.5.4.8.8 1.1c.4.3.8.8.8 1.1 0 .7 1.3 3 1.7 3.2.2.1.3.4.3.7 0 .2.3.8.7 1.2l1.3 1.9c.3.6.7 1.1.9 1.1.1 0 .3.2.3.5s.5 1.1 1.2 1.9c.7.8 1.2 1.6 1.2 1.8 0 .2.4.7.8 1 .4.3.8.8.8 1 0 .4.2.6.4.6s.4.3.4.6.4.7.8.8c.4.1.8.5.8.9 0 .3.7 1.3 1.6 2.1.9.8 1.6 1.7 1.6 2 0 .2.4.9.9 1.4a47.6 47.6 0 0 1 4.2 5c.6.8 2 2.2 3 3.2a669.9 669.9 0 0 1 14.3 14 49 49 0 0 1 3.2 2.7c1 1 2 1.7 2.3 1.7.3 0 1.3.7 2.1 1.6.8.9 1.7 1.6 2 1.6.3 0 1 .5 1.6 1.2.6.7 1.3 1.2 1.6 1.2.2 0 .4.1.4.3 0 .2.5.6 1.1 1a15 15 0 0 1 2.3 1.7c.7.5 1.4 1 1.7 1 .3 0 .5.2.5.3 0 .2.5.6 1.1 1 .6.2 1.4.8 1.9 1.2.4.4 1 .7 1.3.7.3 0 .5.2.5.4 0 .1.5.5 1.2.8.7.3 1.2.7 1.2.8 0 .2.4.4.8.4s.8.2.8.3c0 .2.8.7 1.7 1.1a9 9 0 0 1 1.9 1l1.3.8c.6.3 1.1.7 1.1.9 0 .2.4.3.8.3s.8.2.8.4.4.4.8.4.8.2.8.4.4.4.8.4.8.2.8.4.4.4.8.4.8.2.8.4.4.4.8.4.8.2.8.4.4.4.8.4.8.2.8.4.4.4.8.4.8.2.8.4.3.4.8.4c.4 0 .9.2 1 .4.1.2.6.4 1 .4.5 0 .8.2.8.4s.4.4.8.4.8.2.8.4.3.4.6.4 1 .2 1.3.4a55 55 0 0 0 4 1.7l3.8 1.5 1.3.4c.3 0 1 .2 1.5.5 2 1 2.3 1 3.4.9.7-.2 3 .3 6 1.2a191.5 191.5 0 0 0 116.3-2.5 199.7 199.7 0 0 0 51-27c8.2-6 15-12 22.5-19.7a186.2 186.2 0 0 0 41.5-63.7A191.3 191.3 0 0 0 356 99.4a22.4 22.4 0 0 1-2.9-6.6c-.1 0-.5-.5-.8-1.2-.3-.7-.7-1.2-.8-1.2-.2 0-.4-.3-.4-.7 0-.4-.4-1-.8-1.3-.4-.3-.8-.9-.8-1.2 0-.3-.4-.9-.8-1.2-.4-.3-.8-.8-.8-1 0-.2-.5-1-1.2-1.8a5.9 5.9 0 0 1-1.2-1.8c0-.2-.4-.7-.8-1-.4-.3-.8-.8-.8-1 0-.4-.2-.6-.4-.6s-.4-.3-.4-.6-.3-.7-.8-.8c-.4-.1-.8-.6-1-1.1 0-.5-.8-1.6-1.6-2.5a8.3 8.3 0 0 1-1.4-1.8l-2.1-2.5a39.6 39.6 0 0 1-3.1-3.5c-.5-.8-2-2.4-3.4-3.7a200 200 0 0 1-7.7-7.7 48.2 48.2 0 0 0-4.5-4.2 40 40 0 0 1-3.5-3 15.6 15.6 0 0 0-3.6-2.9l-2-1.5-2.4-2.1a5.8 5.8 0 0 0-1.9-1.3c-.2 0-.7-.4-1-.8-.3-.4-.8-.8-1-.8-.4 0-1.2-.5-1.9-1.2s-1.4-1.2-1.7-1.2c-.2 0-.7-.4-1-.8-.3-.4-.8-.8-1.1-.8-.3 0-1-.4-1.4-.8-.5-.4-1-.8-1.4-.8-.3 0-.5-.2-.5-.4s-.2-.4-.5-.4-.9-.4-1.3-.8-1-.8-1.3-.8c-.3 0-.5-.2-.5-.4s-.2-.4-.4-.4c-.3 0-1-.3-1.6-.8a8 8 0 0 0-2.2-1 5 5 0 0 1-1.8-1c-.4-.5-1-.8-1.3-.8-.4 0-.7-.2-.7-.4s-.4-.4-.8-.4-.8-.2-.8-.4-.4-.4-.8-.4-.8-.2-.8-.4-.4-.4-.8-.4-.8-.2-.8-.4-.4-.4-.8-.4-.8-.2-.8-.4-.3-.4-.6-.4-.6-.2-.6-.4-.4-.4-.8-.4-.8-.2-.8-.4-.3-.4-.6-.4l-1.4-.4-1.6-.8c-.4-.2-1-.4-1.4-.4-.3 0-.6-.2-.6-.4s-.4-.4-.8-.4-.8-.2-.8-.4-.3-.4-.8-.4c-.4 0-.9-.2-1-.4-.1-.2-.7-.4-1.2-.4-.6 0-1-.2-1-.4s-.3-.4-.6-.4-1-.2-1.5-.5c-2-1-2.3-1.1-3.1-1.1-.4 0-.8-.2-.8-.4s-.5-.4-1.2-.4c-.6 0-1.3-.2-1.4-.4-.1-.2-.7-.4-1.2-.4s-1-.2-1.2-.4c-.1-.2-.7-.4-1.2-.4-.6 0-1-.2-1-.4s-1-.4-2.4-.6c-1.3-.2-2.4-.4-2.4-.6 0-.2-.6-.4-1.4-.4-.7 0-1.5-.2-1.6-.4-.1-.2-.9-.4-1.6-.4-.8 0-1.4-.2-1.4-.4s-.7-.4-1.6-.4c-.9 0-1.6-.2-1.6-.4s-.7-.4-1.6-.4c-.9 0-1.6-.2-1.6-.4s-.9-.4-2-.4-2-.2-2-.4-1-.4-2.2-.4c-1.2 0-2.3-.2-2.4-.4-.1-.2-1.3-.4-2.6-.4s-2.5-.2-2.6-.4c-.1-.2-1.7-.4-3.4-.4-1.9 0-3.2-.2-3.2-.4s-2-.4-5-.4-5-.2-5-.4c0-.3-3.6-.4-10-.4s-10 .1-10 .4M208.6 23c1.8.1 3.6.4 4 .6.4.2 1.8.5 3 .6a55 55 0 0 1 15.2 2.6c.8 0 1.7.2 1.8.4.1.2.9.4 1.6.4.8 0 1.4.2 1.4.4s.5.4 1.2.4 1.2.2 1.2.4.7.4 1.6.4c.9 0 1.6.2 1.6.4s.5.4 1.2.4 1.2.2 1.2.4.4.4 1 .4c.5 0 1 .2 1.2.4.1.2.7.4 1.2.4.6 0 1 .2 1 .4s.3.4.8.4c.4 0 .9.2 1 .4.1.2.7.4 1.2.4.6 0 1 .2 1 .4s.4.4 1 .4c.5 0 1 .2 1.2.4.1.2.6.4 1 .4.5 0 .8.2.8.4s.3.4.6.4 1 .2 1.3.4c3.1 1.6 10.3 4.9 11.9 5.4a126.9 126.9 0 0 1 33.6 22.2c2 1.6 15.5 15.2 17.7 17.8 15.7 18.6 29 43.1 34.5 63.6l1.3 5a175 175 0 0 1-7.3 108.6 171.8 171.8 0 0 1-271.2 65 118 118 0 0 1-22.8-25.2c-.7-1-1.5-1.9-1.7-2-.2 0-.3-.3-.3-.6s-.1-.6-.3-.6c-.2 0-.7-.7-1.3-1.5-.5-.8-1.3-1.8-1.7-2.1-.4-.4-.7-1-.7-1.3 0-.3-.4-.8-.8-1.1-.4-.3-.8-.9-.8-1.2 0-.3-.4-.9-.8-1.2-.4-.3-.8-.9-.8-1.2 0-.3-.4-.9-.8-1.2-.4-.3-.8-.9-.8-1.3s-.2-.7-.4-.7-.4-.3-.4-.6-.2-.6-.4-.6-.4-.3-.4-.6-.2-.6-.4-.6-.4-.4-.4-.8-.1-.8-.3-.8c-.2 0-.7-.8-1-1.8-.5-1-1-1.8-1.2-1.8-.2 0-.3-.4-.3-.8s-.2-.8-.4-.8-.4-.4-.4-.8-.2-.8-.4-.8-.4-.4-.4-.8-.2-.8-.4-.8-.4-.4-.4-.8-.2-.8-.4-.8-.4-.4-.4-.8-.2-.8-.4-.8-.4-.4-.4-.8-.2-.8-.4-.8-.4-.4-.4-.8-.2-.8-.4-.8-.4-.5-.4-1c0-.6-.2-1-.4-1s-.4-.4-.4-.8-.2-.8-.4-.8-.4-.4-.4-.8-.2-.8-.4-.8-.4-.5-.4-1.2-.2-1.2-.4-1.2-.4-.4-.4-.8-.2-.8-.4-.8-.4-.5-.4-1.2-.2-1.2-.4-1.2-.4-.4-.4-1c0-.5-.2-1-.4-1.2-.2-.1-.4-.7-.4-1.2s-.2-1-.4-1.2c-.2-.1-.4-.7-.4-1.2 0-.6-.2-1-.4-1s-.4-.5-.4-1.2-.2-1.2-.4-1.2-.4-.5-.4-1.2-.2-1.2-.3-1.2c-.2 0-.5-1.2-.7-2.7-.1-1.5-.4-2.9-.6-3-.3-.5-.5-1.5-1-5.2-.2-.8-.4-1.6-.6-1.7-.2-.1-.4-1.1-.4-2.2 0-1-.2-2-.4-2.2-.2-.1-.4-1.1-.4-2.2s-.2-2-.4-2-.4-1.3-.4-3c0-1.6-.2-3-.4-3.2-.2-.1-.4-2-.4-4.2s-.2-4-.4-4.2a154 154 0 0 1 1.2-34c0-1.6.2-3 .4-3.2.2-.1.4-1.1.4-2.2 0-1 .2-2 .4-2.2.2-.1.4-1.1.4-2.2 0-1 .2-2 .4-2.2.2 0 .4-.9.5-1.7.6-3.7.8-4.7 1.1-5.1a8 8 0 0 0 .6-2.9c.2-1.4.5-2.5.7-2.5.1 0 .3-.5.3-1.2 0-.6.2-1.3.4-1.4.2-.1.4-.8.4-1.4 0-.7.2-1.2.4-1.2s.4-.4.4-1c0-.5.2-1 .4-1.2.2-.1.4-.6.4-1 0-.8.1-1.2 1.1-3a5 5 0 0 0 .5-1.8c0-.4.2-.8.4-.8s.4-.3.4-.8c0-.4.2-.9.4-1 .2-.1.4-.7.4-1.2 0-.6.2-1 .4-1s.4-.3.4-.8c0-.4.2-.9.4-1 .2-.1.4-.6.4-1 0-.5.2-.8.4-.8s.4-.2.4-.5a82 82 0 0 1 5.6-11.3c0-.6 1-2.6 1.3-2.6.1 0 .4-.5.5-1.2.1-.7.4-1.2.6-1.2.2 0 .4-.3.4-.6s.2-.6.4-.6.4-.4.4-.8.2-.8.4-.8.4-.3.4-.6.2-.6.4-.6.4-.3.4-.6.2-.6.4-.6.4-.3.4-.6.2-.6.4-.6.4-.3.4-.6.2-.6.4-.6.4-.3.4-.7c0-.4.4-1 .8-1.3.4-.3.8-.8.8-1 0-.4.5-1.2 1.2-1.9s1.2-1.4 1.2-1.7c0-.2.4-.7.8-1 .4-.3.8-.8.8-1 0-.3.1-.6.3-.7a67.8 67.8 0 0 1 4-4.7l1.4-2c.3-.5 1.5-2 2.8-3.3a9.2 9.2 0 0 0 2.3-2.8c0-.3.8-1.1 1.6-1.9l6-5.6a97.8 97.8 0 0 1 14.7-13 59 59 0 0 0 7-5c.3-.5.8-.8 1.2-.8.3 0 .8-.4 1.1-.8.3-.4.9-.8 1.2-.8.3 0 .9-.4 1.2-.8.3-.4.8-.8 1.1-.8.3 0 1-.4 1.4-.8.5-.4 1-.8 1.4-.8.3 0 .5-.2.5-.4s.3-.4.6-.4c.4 0 1-.4 1.5-.8s1-.8 1.4-.8c.3 0 .5-.1.5-.3 0-.2.6-.6 1.4-.9.8-.3 1.4-.7 1.4-.9 0-.2.4-.3.8-.3s.8-.2.8-.4.2-.4.4-.4c.7 0 3.6-1.4 3.6-1.7 0-.2.4-.3.8-.3s.8-.2.8-.4.3-.4.6-.4 1-.2 1.3-.4a147.3 147.3 0 0 1 12.9-5.6c0-.2.5-.4 1.2-.4s1.2-.2 1.2-.4.5-.4 1.2-.4 1.2-.2 1.2-.4.4-.4 1-.4c.5 0 1-.2 1.2-.4.1-.2.7-.4 1.2-.4.6 0 1-.2 1-.4s.5-.4 1.2-.4 1.2-.2 1.2-.4.7-.4 1.6-.4c.9 0 1.6-.2 1.6-.4s.5-.4 1.2-.4 1.2-.2 1.2-.4.8-.4 1.8-.4 1.9-.2 2-.4c.1-.2 1-.4 1.8-.4.9 0 1.6-.2 1.6-.3 0-.2 1.8-.6 4.1-.8l6.7-1 6-.6c2-.2 3.7-.4 3.8-.6.4-.3 27.7-.1 32.8.3m-83.8 92.3c-17.5 3.5-28.4 15.3-21.4 23.1 4 4.4 9.2 4.3 14.3-.2a22 22 0 0 1 17.2-5c5 .8 8.6 2.5 12.3 5.6 6.6 5.6 14.5 4 16.4-3.5 2.7-11.1-21.4-23.6-38.8-20m124 .1a38.8 38.8 0 0 0-10.2 3.4 34 34 0 0 0-11.6 9.7 9 9 0 0 0 8.2 13c2.5 0 4.3-.8 7.7-3.6 1.9-1.6 3.8-2.6 6.7-3.8a24 24 0 0 1 22.7 5c4 3.8 9.1 4.2 12.9 1 12.8-11-14-29.2-36.4-24.7M113 212.1c-5.7 1.7-7.3 5.1-6.6 14.4a73.2 73.2 0 0 0 62.2 67.4c5.3 1 51.8 1 57.4.2a73.8 73.8 0 0 0 62-57.7l.8-4.5c1-4.8.5-12.4-.8-14.4-4.9-7.7-16.8-4.5-16.8 4.4a55 55 0 0 1-44.6 53.4c-6.8 1.4-50.8 1.4-57.5 0a55.2 55.2 0 0 1-44.6-51.7c-.3-7.2-2.3-10.3-7.4-11.5-2.1-.6-2-.6-4.1 0" />
        <path fill="#d4e157"
            d="M205.4 34.4c-.1.2-2 .4-4 .4s-3.9.2-4 .4c-.1.2-1.5.4-3 .4s-2.9.2-3 .4c-.1.2-1.1.4-2.2.4-1 0-2 .2-2.2.4-.1.2-1.2.4-2.4.4s-2.2.2-2.2.4-.8.4-1.8.4-1.8.2-1.8.4-.7.4-1.6.4c-.9 0-1.6.2-1.6.4s-.7.4-1.6.4c-.9 0-1.6.2-1.6.4s-.7.4-1.6.4c-.9 0-1.6.2-1.6.4s-.5.4-1.2.4-1.2.2-1.2.4-.6.4-1.4.4c-.7 0-1.5.2-1.6.4-.1.2-.7.4-1.2.4-.6 0-1 .2-1 .3 0 .2-.7.5-1.6.7-2.3.3-4.8 1.1-4.8 1.5 0 .2-.4.3-1 .3-.5 0-1 .2-1.2.4-.1.2-.6.4-1 .4-.5 0-.8.2-.8.4s-.4.4-1 .4c-.5 0-1 .2-1.2.4-.1.2-.6.4-1 .4-.5 0-.8.2-.8.4s-.3.4-.8.4c-.4 0-.9.2-1 .4-.1.2-.6.4-1 .4-.5 0-.8.2-.8.4s-.4.4-.8.4-.8.2-.8.4-.4.4-.8.4-.8.2-.8.4-.4.4-.8.4-.8.2-.8.4-.4.4-.8.4-.8.2-.8.4-.4.4-.8.4-.8.2-.8.4-.4.4-.8.4-.8.2-.8.4-.4.4-.8.4-.8.2-.8.4-.4.4-.8.4-.8.2-.8.4-.2.4-.5.4-1 .4-1.4.8c-.5.4-1 .8-1.3.8-.2 0-.4.2-.4.4s-.4.4-.8.4-.8.2-.8.4-.3.4-.7.4c-.4 0-1.2.4-1.7.8a6 6 0 0 1-1.6 1c-.5.1-.8.4-.8.6 0 .2-.2.4-.5.4s-1 .4-1.4.8c-.5.4-1 .8-1.3.8-.3 0-.8.3-1.2.7-.3.4-1 1-1.7 1.3-.6.3-1.1.7-1.1.9 0 .2-.2.3-.4.3-.4 0-1.4.8-2.6 1.9l-.8.5c-.2 0-.8.5-1.4 1.2-.6.7-1.3 1.2-1.5 1.2-.2 0-1.1.7-2 1.6a9 9 0 0 1-2.1 1.6c-.2 0-.9.4-1.4.9L98.6 79a314.2 314.2 0 0 0-20.5 21.1c-.6 1-1.4 2-1.8 2.3-.4.4-.7.9-.7 1.1 0 .2-.7 1.1-1.6 2-.9 1-1.6 2-1.6 2.2 0 .3-.4.8-.8 1.1-.4.3-.8.7-.8.9 0 .3-.8 1.4-1.9 2.5l-.5.8-.8 1c-.4.6-.8 1.2-.8 1.5 0 .3-.2.5-.4.5-.1 0-.5.5-.8 1.2-.3.7-.7 1.2-.8 1.2-.2 0-.4.2-.4.5s-.4 1-.8 1.4c-.4.5-.8 1.1-.8 1.5 0 .3-.1.6-.3.7-.2 0-1 1.5-1.9 3.2-.8 1.7-1.7 3.1-1.9 3.1-.2 0-.3.4-.3.8s-.1.8-.3.8c-.2 0-.7 1-1.3 2.2-.5 1.2-1 2.2-1.3 2.2-.1 0-.3.4-.3.8s-.2.8-.4.8-.4.3-.4.8c0 .4-.2.9-.4 1-.2.1-.4.7-.4 1.2 0 .6-.2 1-.4 1s-.4.4-.4.8-.2.8-.4.8-.4.4-.4.8-.2.8-.4.8-.4.3-.4.6-.2 1-.4 1.3a32.3 32.3 0 0 0-1.6 3.8l-.4 1.3c0 .3-.2.6-.4.6s-.4.4-.4 1c0 .5-.2 1-.4 1.2-.2.1-.4.7-.4 1.1 0 .5-.1 1.1-.3 1.3-.2.2-.8 1.8-1.3 3.4l-1.2 3.7c-.2.4-.5 1.8-.7 3.1-.1 1.3-.4 2.4-.6 2.4-.1 0-.3.5-.3 1.2 0 .6-.2 1.3-.4 1.4-.2.1-.4 1-.4 2s-.2 1.8-.4 1.8-.4.7-.4 1.6c0 .9-.2 1.6-.4 1.6s-.4.9-.4 2-.2 2-.4 2-.4 1-.4 2.2c0 1.2-.2 2.2-.4 2.2s-.4 1.2-.4 2.8c0 1.6-.2 2.8-.4 2.8s-.4 1.4-.4 3.4-.2 3.4-.4 3.4c-.3 0-.4 6-.4 17.2a144.7 144.7 0 0 0 5.6 46c0 .9.2 1.6.4 1.6.1 0 .4 1.2.6 2.6.1 1.4.4 2.7.6 2.8.2.1.4.7.4 1.2s.2 1 .4 1.2c.2.1.4.7.4 1.2s.2 1 .4 1.2c.2.1.4.7.4 1.2 0 .6.2 1 .4 1s.4.4.4 1c0 .5.2 1 .4 1.2.2.1.4.7.4 1.2s.2 1 .4 1.2c.2.1.4.6.4 1 0 .5.2.8.4.8s.4.4.4 1c0 .5.2 1 .4 1.2.2.1.4.6.4 1 0 .5.2.8.4.8s.4.5.4 1c0 .6.2 1 .4 1s.4.2.4.5c0 .8 1 2.7 1.3 2.7.2 0 .3.4.3.8s.2.8.4.8.4.4.4 1c0 .4.4 1.2.8 1.7s.8 1.1.8 1.5c0 .3.2.6.4.6s.4.4.4.8.2.8.4.8.4.3.4.8c0 .4.1.8.3.9a114.3 114.3 0 0 0 20.5 22.4 170.2 170.2 0 0 0 42.2 26.8 177.5 177.5 0 0 0 43.2 12.7 219 219 0 0 0 44.2 1.3c17-2 31.6-5.7 45-11 42.8-17 79.9-52.9 95.8-92.9a213.8 213.8 0 0 1 2.8-7.1l1.6-4.4a175 175 0 0 0 3.7-99.1l-1.3-5c-5.5-20.5-18.8-45-34.5-63.6a398.3 398.3 0 0 0-17.7-17.8 511 511 0 0 1-3.4-2.9c-12-10-29-20.3-33.9-20.3-.5 0-.9-.2-.9-.4s-.7-.4-1.6-.4c-.9 0-1.6-.2-1.6-.4s-.7-.4-1.6-.4c-.9 0-1.6-.2-1.6-.4s-.7-.4-1.6-.4c-.8 0-1.7-.2-1.8-.4-.1-.2-1.1-.4-2.2-.4-1 0-2-.2-2.2-.4-.1-.2-1.2-.4-2.4-.4s-2.2-.2-2.2-.4-1.3-.4-3.2-.4c-1.7 0-3.3-.2-3.4-.4-.1-.2-1.8-.4-3.8-.4a95.3 95.3 0 0 0-17.2-.8c-8.3 0-13.2.1-13.4.4m148.2 59.9c0 .4 1.1 2.7 2.5 5.1a194 194 0 0 1 24 75.4 203.6 203.6 0 0 1-7 72 130 130 0 0 1-5.9 17.2l-1.2 3-2.3 5.2a228.9 228.9 0 0 1-12.4 22.9 194.4 194.4 0 0 1-62.8 61.4 185.3 185.3 0 0 1-82.3 26.5c-22.1 2-47.3-.5-69.9-7.2-4.7-1.4-6.3-1.7-6.3-1 0 .1.6.5 1.4.8.8.3 1.4.7 1.4.8 0 .1.6.5 1.4.8.8.3 1.4.7 1.4.9 0 .2.4.3.8.3s.8.2.8.4.4.4.8.4.8.2.8.4.4.4.8.4.8.2.8.4.3.4.7.4c.5 0 2.2.7 3.9 1.6 1.7.9 3.4 1.6 3.9 1.6.4 0 .7.2.7.4s.3.4.8.4c.4 0 .9.2 1 .4.1.2.7.4 1.2.4.6 0 1 .2 1 .4s.3.4.8.4c.4 0 .9.2 1 .4.1.2.7.4 1.2.4s1 .2 1.2.4c.1.2.7.4 1.2.4s1 .2 1.2.4c.1.2.7.4 1.2.4.6 0 1 .2 1 .4 0 .3.5.5 3.6 1 .8.2 1.6.5 1.8.7l3 .6c1.3.1 2.4.4 2.4.6 0 .1.7.3 1.6.3.9 0 1.6.2 1.6.4s.7.4 1.6.4c.9 0 1.6.2 1.6.4s.8.4 1.8.4 1.9.2 2 .4c.1.2 1.2.4 2.4.4s2.2.2 2.2.4 1 .4 2.4.4c1.3 0 2.4.2 2.4.4s1.3.4 3 .4c1.6 0 3 .2 3.2.4.1.2 2.3.4 5.2.4 3 0 5 .2 5 .4 0 .3 3.5.4 9.6.4s9.6-.1 9.6-.4c0-.2 2-.4 5-.4 2.9 0 5-.2 5.2-.4.1-.2 1.6-.4 3.2-.4 1.7 0 3-.2 3-.4s1-.4 2.4-.4c1.3 0 2.4-.2 2.4-.4s1-.4 2.2-.4c1.2 0 2.3-.2 2.4-.4.1-.2 1-.4 2-.4s1.8-.2 1.8-.4.7-.4 1.6-.4c.9 0 1.6-.2 1.6-.4s.7-.4 1.6-.4c.9 0 1.6-.2 1.6-.4 0-.1 1.2-.4 2.6-.6 1.4-.1 2.7-.4 2.8-.6.1-.2.8-.4 1.4-.4.6 0 1.3-.2 1.4-.4.1-.2.8-.4 1.4-.4.7 0 1.2-.2 1.2-.4s.5-.4 1.2-.4 1.2-.2 1.2-.4.4-.4 1-.4c.5 0 1-.2 1.2-.4.1-.2.7-.4 1.2-.4s1-.2 1.2-.4c.1-.2.6-.4 1-.4.5 0 .8-.2.8-.4s.4-.4.8-.4 1.4-.4 2.2-.8c.8-.4 1.8-.8 2.2-.8.4 0 .8-.2.8-.4s.4-.4.8-.4.8-.2.8-.4.4-.4.8-.4.8-.1.8-.3c0-.2.9-.6 2-.9 1.1-.3 2-.7 2-.9 0-.2.4-.3.8-.3s.8-.2.8-.4.3-.4.8-.4c.4 0 .8-.1.9-.3 0-.2 1-.7 2.1-1.3l2.2-1.2c.1-.1 1.6-1 3.3-1.8a13 13 0 0 0 3.1-1.9c0-.2.4-.3.8-.3s.8-.2.8-.4.2-.4.5-.4 1-.4 1.4-.8c.5-.4 1-.8 1.3-.8.2 0 .8-.4 1.3-.8s1-.8 1.4-.8c.3 0 .5-.2.5-.4s.3-.4.6-.4.6-.2.6-.4.3-.4.6-.4.6-.1.6-.3c0-.2.7-.8 1.6-1.3.9-.5 1.6-1.1 1.6-1.3 0-.2.2-.3.4-.3.3 0 1-.5 1.6-1.2.6-.7 1.3-1.2 1.6-1.2.3 0 1-.5 1.5-1.1a6 6 0 0 1 2-1.4l2.4-1.8 2.2-2a189.2 189.2 0 0 0 32.7-36.1c.4-.3.8-.8.8-1.1 0-.3.4-1 .8-1.4.4-.5.8-1 .8-1.4 0-.3.2-.5.4-.5.1 0 .5-.5.8-1.2.3-.7.6-1.2.8-1.2.2 0 .7-.8 1-1.8l1.1-1.8c.2 0 .3-.3.3-.6 0-.4.4-1 .8-1.5s.8-1 .8-1.4c0-.3.2-.5.4-.5s.4-.4.4-.8.2-.8.4-.8.4-.4.4-.8.2-.8.4-.8.4-.4.4-.8.2-.8.4-.8.4-.4.4-.8.2-.8.4-.8.4-.4.4-.8.1-.8.3-.8c.4 0 1.3-2 1.3-2.7 0-.3.2-.5.4-.5s.4-.4.4-.8.2-.8.4-.8.4-.4.4-.8.2-.8.4-.8.4-.3.4-.8c0-.4.2-.9.4-1 .2-.1.4-.6.4-1 0-.5.2-.8.4-.8s.4-.3.4-.8c0-.4.2-.9.4-1 .2-.1.4-.7.4-1.2 0-.6.2-1 .4-1s.4-.3.4-.8c0-.4.2-.9.4-1 .2-.1.4-.7.4-1.2s.2-1 .4-1.2c.2-.1.4-.7.4-1.2 0-.6.2-1 .4-1s.5-1 .6-2.2c.2-1.2.5-2.2.6-2.2.2 0 .4-.5.4-1.2s.2-1.2.4-1.2.4-.6.4-1.4c0-.8.2-1.4.4-1.4s.4-.6.4-1.4c0-.8.2-1.4.4-1.4s.4-.7.4-1.6c0-.9.2-1.6.4-1.6s.4-.7.4-1.6c0-.9.2-1.6.4-1.6s.4-.7.4-1.6c0-.9.2-1.6.4-1.6s.4-1 .4-2.2c0-1.2.2-2.2.4-2.2s.4-.9.4-2c0-1 .2-2 .4-2.2.2-.1.4-1.5.4-3 0-1.8.2-2.8.5-2.9.7-.2.7-47.2 0-47.4-.3-.1-.5-1-.5-3 0-1.5-.2-2.7-.4-2.7s-.4-.9-.4-2c0-1-.2-2-.4-2.2-.2-.1-.4-1.1-.4-2.2s-.2-2-.4-2-.4-.7-.4-1.6c0-.9-.2-1.6-.4-1.6s-.4-.7-.4-1.6c0-.8-.2-1.7-.4-1.8-.2-.1-.4-.9-.4-1.6 0-.8-.2-1.4-.4-1.4s-.4-.6-.4-1.4c0-.7-.2-1.5-.4-1.6-.2-.1-.4-.8-.4-1.4 0-.7-.2-1.2-.4-1.2s-.4-.6-.4-1.4c0-.8-.2-1.4-.4-1.4s-.4-.9-.6-2c-.2-1.1-.4-2-.6-2-.2 0-.4-.5-.4-1.2s-.2-1.2-.4-1.2-.4-.3-.4-.7a8 8 0 0 0-.8-2.4 10 10 0 0 1-.8-2l-.8-2-.8-2.3c0-.3-.2-.6-.4-.6s-.4-.4-.4-.8-.2-.8-.4-.8-.4-.4-.4-.8-.1-.8-.3-.8c-.2 0-.6-.9-.9-1.9a9 9 0 0 0-.8-2.1l-1.2-2.2-1.2-2.2-1.2-2.2a9 9 0 0 0-1.3-2.1c-.2-.1-.3-.4-.3-.7 0-.3-.2-.6-.4-.6s-.4-.3-.4-.6c0-.4-.3-1-.8-1.5a5 5 0 0 1-1-1.8c-.1-.6-.6-1.5-1-1.9-.4-.4-1.1-1.6-1.6-2.6-.6-1-1.1-1.9-1.3-2-.2 0-.3-.3-.3-.5 0-.3-.4-1-.9-1.6a644 644 0 0 1-1.6-1.9c-.4-.4-.7-1-.7-1.2 0-.2-.2-.4-.4-.4s-.4-.2-.4-.5-.4-.8-.8-1.1c-.4-.3-.8-.8-.8-1a8 8 0 0 0-1.6-2.2 9 9 0 0 1-1.6-2.1c0-.2-.5-.9-1.2-1.5s-1.2-1.3-1.2-1.6c0-.2-.2-.4-.4-.4s-.4-.2-.4-.5a7 7 0 0 0-1.6-2l-2.6-2.9c-.9-1-1-1-1-.3m-214 21.1c18.5 3.9 29.3 16 21.4 24-4 4.1-8.5 4-13.8-.6-6.4-5.4-15.6-7.4-22.4-4.7-2.7 1-5.4 2.6-7.1 4.1-5.1 4.5-10.3 4.6-14.3.2-10-11.1 15.4-27.3 36.2-23m124.4 0c13.2 2.5 24.4 10.7 24.4 17.9 0 8.4-9.8 12-16 5.8a24 24 0 0 0-22.8-5c-3 1.2-4.8 2.2-6.7 3.8-3.4 2.8-5.2 3.7-7.7 3.7a9 9 0 0 1-8.2-13.1 34 34 0 0 1 13.5-10.5c6.5-3 16.2-4 23.5-2.6M117.1 212c5.1 1.2 7.1 4.3 7.4 11.5a55.2 55.2 0 0 0 44.6 51.7c6.7 1.4 50.7 1.4 57.5 0a55 55 0 0 0 44.6-53.4c0-9 12-12 16.8-4.4 1.3 2 1.7 9.6.8 14.4l-.8 4.5a73.8 73.8 0 0 1-62 57.7c-5.6.9-52 .7-57.4-.2a73.2 73.2 0 0 1-62.2-67.4c-.7-9.3 1-12.7 6.6-14.4 2.1-.6 2-.6 4.1 0" />
    </g>
</svg>
