<svg xmlns="http://www.w3.org/2000/svg" width="400" height="400">
    <g fill-rule="evenodd">
        <path fill="#33691e"
            d="M179.4 8c-.1.2-2.5.4-5.6.4-3.3 0-5.4.2-5.4.4s-1.4.4-3.4.4c-1.9 0-3.4.1-3.4.3 0 .2-2 .6-4.5.8-4.5.4-6.9.8-10.3 1.7l-3.3.7c-.8 0-1.6.3-1.7.5-.1.2-.9.4-1.6.4-.8 0-1.4.2-1.4.4s-.6.4-1.4.4c-.7 0-1.5.2-1.6.4-.1.2-.8.4-1.4.4-.7 0-1.2.2-1.2.4s-.5.4-1.2.4c-.6 0-1.3.2-1.4.4-.1.2-.6.4-1 .4-.8 0-1.2.1-3 1.1-.6.3-1.3.5-1.8.5-.4 0-.9.2-1 .4-.1.2-.7.4-1.2.4-.6 0-1 .2-1 .4s-.4.4-1 .4c-.5 0-1 .2-1.2.4-.1.2-.6.4-1 .4-.5 0-.8.2-.8.4s-.4.4-1 .4c-.5 0-1 .2-1.2.4-.1.2-.6.4-1 .4-.5 0-.8.2-.8.4s-.4.4-.8.4-.8.2-.8.4-.5.4-1 .4-1 .2-1 .4-.4.4-.8.4-.8.2-.8.4-.4.4-.8.4-.8.2-.8.4-.4.4-.8.4-.8.2-.8.4-.3.4-.7.4a42.7 42.7 0 0 0-11.7 6c-.4 0-.8.2-.8.4 0 .1-.5.5-1.2.8-.7.3-1.2.7-1.2.8 0 .2-.3.4-.7.4-.4 0-1 .4-1.3.8-.3.4-.9.8-1.2.8-.3 0-.9.4-1.2.8-.3.4-.9.8-1.3.8s-.7.2-.7.4-.3.4-.6.4-.6.2-.6.4-.2.4-.5.4-.8.4-1.1.8c-.3.4-.8.8-1 .8-.4 0-.6.2-.6.4s-.3.4-.6.4-.6.2-.6.4-.3.4-.6.4-1 .5-1.8 1.2c-.7.7-1.4 1.2-1.6 1.2a6 6 0 0 0-1.8 1.4c-.7.8-1.5 1.4-1.7 1.4-.2 0-1.1.7-2 1.5l-3 2.7a21.7 21.7 0 0 0-5.1 5l-1.2 1a115.6 115.6 0 0 0-16.9 17.9l-1.5 1.7c0 .2-.5.8-1.2 1.4-.7.6-1.2 1.3-1.2 1.6 0 .2-.2.4-.4.4s-.4.2-.4.5-.4.8-.8 1.1c-.4.3-.8.8-.8 1 0 .2-.5 1-1.2 1.8s-1.2 1.6-1.2 1.8c0 .2-.4.7-.8 1-.4.3-.8.9-.8 1.2 0 .3-.4.9-.8 1.2-.4.3-.8.8-.8 1.1 0 .3-.3.9-.7 1.3-.5.5-1.1 1.5-1.5 2.3L26.7 98c-.2.1-.3.5-.3.8 0 .4-.4 1-.8 1.3-.4.3-.8.9-.8 1.3s-.2.7-.4.7-.4.4-.4.8-.2.8-.4.8-.4.3-.4.7c0 .4-.4 1-.8 1.3-.4.3-.8.9-.8 1.3s-.2.7-.4.7-.4.4-.4.8-.2.8-.4.8-.4.3-.4.8c0 .4-.1.8-.3.9a232.5 232.5 0 0 1-3.3 6.4l-.4 1.3c0 .3-.2.6-.4.6s-.4.4-.4.8-.2.8-.4.8-.4.4-.4.8-.2.8-.4.8-.4.5-.4 1.2-.2 1.2-.4 1.2-.4.3-.4.6-.2 1-.4 1.3c-1.1 2.2-2 4.8-2.3 6.3-.1 1-.4 1.8-.6 1.8-.1 0-.3.5-.3 1.2s-.2 1.2-.4 1.2-.4.5-.4 1.2-.2 1.2-.4 1.2-.4.5-.4 1.2-.2 1.2-.4 1.2-.4.6-.4 1.4c0 .7-.2 1.5-.4 1.6-.2.1-.4.8-.4 1.4 0 .7-.2 1.2-.4 1.2s-.4.6-.4 1.4c0 .7-.2 1.5-.4 1.6-.2.1-.4 1-.4 2s-.2 1.8-.4 1.8-.4.7-.4 1.6c0 .9-.2 1.6-.4 1.6s-.4.9-.4 2-.2 2-.4 2-.4 1-.4 2.2c0 1.2-.2 2.3-.4 2.4-.2.1-.4 1.4-.4 2.8 0 1.7-.2 2.6-.5 2.7-.7.2-.7 48 0 48.8.3.3.5 1.5.5 3 0 1.4.2 2.5.4 2.5s.4 1 .4 2.4c0 1.3.2 2.4.4 2.4s.4.9.4 2 .2 2 .4 2 .4.7.4 1.6c0 .9.2 1.6.4 1.6s.4.8.4 1.8.2 1.8.4 1.8.4.7.4 1.6c0 .9.2 1.6.4 1.6s.4.5.4 1.2.2 1.2.4 1.2.4.6.4 1.4c0 .7.2 1.5.4 1.6.2.1.4.8.4 1.4 0 .7.2 1.2.4 1.2s.4.5.4 1.2.2 1.2.4 1.2.4.4.4 1c0 .5.2 1 .4 1.2.2.1.4.6.4 1 0 .9 1.3 5 1.6 5.2.2.1.5 1 .8 2.1.3 1 .7 1.9.9 1.9a30 30 0 0 0 3.2 7.3l.3 1.3c0 .3.2.6.4.6s.4.4.4.8.2.8.4.8.4.4.4.8.2.8.4.8.4.4.4.8.2.8.4.8.4.3.4.8c0 .4.1.8.3.9.2 0 .7 1 1.3 2 .5 1 1 1.9 1.3 1.9.1 0 .3.4.3.8s.1.8.3.8c.2 0 .6.6.9 1.3.3.7.9 1.6 1.3 2 .4.3.7.9.7 1.2 0 .4.2.7.4.7s.4.3.4.7c0 .4.4 1.2.8 1.7a6 6 0 0 1 1 1.6c.1.5.4.8.6.8.2 0 .4.2.4.5s.3.9.7 1.3l1.3 1.9c.3.6.7 1.1.9 1.1.1 0 .3.3.3.6s.2.6.4.6.4.2.4.5.4.8.8 1.1c.4.3.8.8.8 1 0 .2.5 1 1.2 1.5.7.7 1.2 1.4 1.2 1.6 0 .2.5.9 1.2 1.5s1.2 1.3 1.2 1.5c0 .2.7 1.1 1.5 2 .8.8 2 2.2 2.6 3.1 1.3 2 5.7 6.6 6.3 6.6a31.6 31.6 0 0 0 6.5 6.8c.3 0 3 2.5 3.2 3a55 55 0 0 0 8.1 7.3c.5.5 1.2.9 1.4.9.2 0 1.1.7 2 1.6a7 7 0 0 0 2.2 1.6c.2 0 .7.4 1 .8.3.4.8.8 1 .8.4 0 .8.4 1 .8.4.4.8.8 1.1.8.3 0 .5.2.5.4s.3.4.6.4.6.2.6.3c0 .2.5.6 1.1 1 .6.2 1.4.8 1.7 1.2.4.4 1 .7 1.2.7.2 0 .8.4 1.3.8s1 .8 1.4.8c.3 0 .5.2.5.4 0 .1.5.5 1.2.8.7.3 1.2.7 1.2.8 0 .2.3.4.6.4.4 0 1 .3 1.3.6.3.3.9.6 1.3.6.5 0 .8.2.8.4s.3.4.6.4.6.1.7.3c.1.4 2.3 1.7 3.2 2 .4 0 .7.4.7.5 0 .2.4.4.8.4s.8.2.8.4.4.4.8.4.8.2.8.4.4.4.8.4.8.2.8.4.4.4.8.4.8.2.8.4.4.4.8.4.8.2.8.4.4.4.8.4.8.2.8.4.4.4 1 .4c.5 0 1 .2 1 .4s.3.4.6.4c.4 0 1.7.6 4.7 2l1.3.4c.3 0 .6.2.6.4s.4.4.8.4l1.6.4 1.6.8 1.6.4c.4 0 .8.2.8.4s.5.4 1.2.4 1.2.2 1.2.4.9.4 2 .6c1.1.2 2.1.4 2.2.6.1.2.8.4 1.4.4.7 0 1.2.2 1.2.4s.5.4 1.2.4c.6 0 1.3.2 1.4.4.1.2.9.4 1.6.4.8 0 1.4.2 1.4.4s.7.4 1.6.4c.9 0 1.6.2 1.6.4s.6.4 1.4.4c.7 0 1.5.2 1.6.4.1.2.9.4 1.6.4.7 0 1.5.2 1.6.4.1.2 1 .4 2 .4s1.9.2 2 .4c.1.2 1.2.4 2.4.4s2.2.2 2.2.4 1.1.4 2.5.4 2.7.1 2.9.3c.1.2 2.3.3 4.7.4l17.3.3c8.8.2 14.5.2 18.2-.2a194.6 194.6 0 0 0 57.4-13.8 193.2 193.2 0 0 0 92-82.4 214 214 0 0 0 17-41.6c1-3.5 2.6-10.5 3.6-15.4 4-21.4 3.8-49.2-.6-70.6a199 199 0 0 0-9.4-31.8A203.5 203.5 0 0 0 345 93.8a210.3 210.3 0 0 0-18.2-23.6c-3.8-4.1-4-4.4-3.8-5 .1-.3-.8-1.4-2.3-2.7l-5-4.8a16.1 16.1 0 0 0-2.9-2.5c-.2 0-1.4-1-2.8-2.4a20.3 20.3 0 0 0-3.6-3.1 9.2 9.2 0 0 0-2-1.7l-2.6-2a11 11 0 0 0-2.5-1.9c-.7-.4-1.3-.8-1.3-1 0-.2-.3-.3-.7-.3-.4 0-1-.4-1.3-.8-.3-.4-.8-.8-1-.8-.2 0-1-.5-1.8-1.2a16 16 0 0 0-2.4-1.7l-1.8-1.2-1-.7c-.3 0-.8-.4-1.3-.8s-1-.8-1.4-.8c-.3 0-.5-.2-.5-.4s-.4-.4-.8-.4-.8-.2-.8-.4c0-.1-.5-.5-1.2-.8-.7-.3-1.2-.7-1.2-.8 0-.2-.4-.4-.8-.4s-.8-.2-.8-.4-.3-.4-.8-.4c-.4 0-.8-.1-.9-.3a45 45 0 0 0-8.7-4.5c0-.2-.4-.4-1-.4s-1-.2-1-.4-.4-.4-.8-.4-.8-.2-.8-.4-.4-.4-.8-.4-.8-.2-.8-.4-.4-.4-.8-.4-.8-.2-.8-.4-.5-.4-1.2-.4-1.2-.2-1.2-.4-.4-.4-.8-.4-.8-.2-.8-.4-.4-.4-1-.4-1-.2-1-.4-.4-.4-1-.4-1-.2-1-.4-.4-.4-1-.4-1-.2-1-.4-.5-.4-1.2-.4-1.2-.2-1.2-.4-.5-.4-1.2-.4-1.2-.2-1.2-.4-.5-.4-1.2-.4-1.2-.2-1.2-.4-.5-.4-1.2-.4-1.2-.2-1.2-.4-.6-.4-1.4-.4c-.8 0-1.4-.2-1.4-.4s-.5-.4-1.2-.4c-.6 0-1.3-.2-1.4-.4-.1-.2-.9-.4-1.6-.4-.7 0-1.5-.2-1.6-.4-.2-.3-1.2-.5-5.3-1-1-.2-1.7-.4-1.7-.6 0-.2-.8-.4-1.7-.4-1 0-2-.2-2.1-.4a19 19 0 0 0-4.9-.6c-2.5-.2-4.5-.5-4.5-.7 0-.1-1.4-.3-3.2-.3-1.9 0-3.2-.2-3.2-.4s-2.2-.4-5.8-.4a18 18 0 0 1-5.8-.4c0-.3-3-.4-8-.4-4.9 0-8 .2-8.2.4m18.4 19.2c.1.2 2.1.4 4.6.4 2.7 0 4.4.2 4.4.4s1.3.4 3 .4 3 .2 3 .4 1 .4 2.2.4c1.2 0 2.2.2 2.2.4s1 .4 2.2.4c1.2 0 2.2.2 2.2.4s.7.4 1.6.4c.9 0 1.6.2 1.6.4s.7.4 1.6.4c.8 0 1.7.2 1.8.4.1.2.9.4 1.6.4.7 0 1.5.2 1.6.4.1.2.8.4 1.4.4.7 0 1.2.2 1.2.4s.6.4 1.4.4c5.4 0 25.8 8.2 36.1 14.4l2.7 1.6a165.2 165.2 0 0 1 43.2 36.5 174 174 0 0 1 16.2 22.8 167.9 167.9 0 0 1 16.8 135.5c-.5 2-1.1 3.7-1.6 5l-1.6 4.4a210.2 210.2 0 0 1-13.4 28.4 174.5 174.5 0 0 1-59 59.2A166.6 166.6 0 0 1 160 363.6l-4.4-.8c-17.6-3.2-37-10.4-53.6-20.2a69.6 69.6 0 0 1-15.5-11.3c-.9-.9-2.2-2-2.9-2.4-.7-.4-1.1-.9-1-1.2 0-.3 0-.4-.4-.3-.3.2-1-.2-1.5-.8a19.2 19.2 0 0 1-4.8-4 503.2 503.2 0 0 1-13.6-13.4 40.5 40.5 0 0 1-6-7.3 8.8 8.8 0 0 1-1.5-1.9c0-.1-.6-.9-1.3-1.6l-1.9-2.5c-.3-.6-.7-1.1-.9-1.1-.2 0-.3-.2-.3-.4s-.5-1-1.2-1.7-1.2-1.4-1.2-1.7c0-.2-.4-.7-.8-1-.4-.3-.8-.9-.8-1.3s-.2-.7-.4-.7-.4-.2-.4-.5-.3-.9-.7-1.3l-1.3-1.9c-.3-.6-.7-1.1-.9-1.1-.2 0-.3-.4-.3-.8s-.1-.8-.3-.8c-.2 0-.8-1.2-1.5-2.6a9.2 9.2 0 0 0-1.5-2.6c-.2 0-.3-.4-.3-.8s-.2-.8-.4-.8-.4-.4-.4-.8-.2-.8-.4-.8-.4-.3-.4-.8c0-.4-.1-.8-.3-.9-.4-.2-2.1-3.5-2.1-4.1 0-.3-.2-.6-.4-.6s-.4-.4-.4-.8-.2-.8-.4-.8-.4-.4-.4-.8-.2-.8-.4-.8-.4-.5-.4-1c0-.6-.2-1-.4-1s-.4-.4-.4-.8-.2-.8-.4-.8-.4-.5-.4-1.2-.2-1.2-.4-1.2-.4-.4-.4-.8-.2-.8-.4-.8-.4-.5-.4-1.2-.2-1.2-.4-1.2-.4-.4-.4-1c0-.5-.2-1-.4-1.2-.2-.1-.4-.7-.4-1.2 0-.6-.2-1-.4-1s-.4-.5-.4-1.2-.2-1.2-.4-1.2-.4-.5-.4-1.2-.1-1.2-.3-1.2c-.2 0-.6-1.1-.8-2.5a69.3 69.3 0 0 0-1.6-7.6c0-.8-.3-1.6-.5-1.7-.2-.1-.4-1-.4-1.8 0-.9-.2-1.7-.4-1.8-.2-.1-.4-1.1-.4-2.2s-.2-2-.4-2-.4-1-.4-2.4c0-1.3-.2-2.5-.4-2.6-.2-.1-.4-1.5-.4-3s-.2-2.9-.4-3a22 22 0 0 1-.4-5.7c0-3.4-.2-5.7-.4-6-.3-.2-.4-2.4-.2-6.2l.4-11.7c.1-3.2.4-5.8.6-5.8.2 0 .4-1.2.4-2.8 0-1.5.2-2.9.4-3 .2-.1.4-1.3.4-2.5 0-1.3.2-2.5.4-2.7.2-.2.4-1.2.5-2.2.6-4.3.8-5.4 1.1-5.8.2-.2.4-1 .4-1.7s.2-1.4.4-1.5c.2 0 .4-.8.5-1.5 1-5.7 1.3-6.7 1.6-6.7.2 0 .3-.5.3-1.2 0-1.2.1-1.5 1.1-3.5.3-.5.5-1.2.5-1.7 0-.4.2-.9.4-1 .2-.1.4-.7.4-1.2 0-.6.2-1 .4-1s.4-.5.4-1c0-.6.2-1 .4-1s.4-.3.4-.8c0-.4.2-.9.4-1 .2-.1.4-.7.4-1.2 0-.6.2-1 .4-1s.4-.3.4-.8c0-.4.2-.9.4-1 .2-.1.4-.7.4-1.2 0-.6.2-1 .4-1s.4-.4.4-.8.2-.8.4-.8.4-.4.4-.8.2-.8.4-.8.4-.3.4-.8c0-.4.1-.8.3-.9.2 0 1.3-2 2.5-4.5a34.5 34.5 0 0 1 2.8-5.3c0-.3.3-.8.6-1.2.3-.3.6-.9.6-1.3 0-.5.2-.8.4-.8s.4-.3.4-.7c0-.4.4-1 .8-1.3.4-.3.8-.8.8-1 0-.4.2-.6.4-.6s.4-.2.4-.5.4-1 .8-1.4c.4-.5.8-1.1.8-1.4 0-.3.4-.8.8-1.1.4-.3.8-.8.8-1 0-.4.5-1.2 1.2-1.9s1.2-1.4 1.2-1.7c0-.2.4-.7.8-1 .4-.3.8-.8.8-1.1 0-.3.5-1.1 1.2-1.8 1.7-1.9 4.3-5 5.1-6.3.4-.5 1.6-2 2.7-3l3.2-3.6c1.3-1.7 4.4-4.8 8-8l4.4-4.1c1.2-1.2 2.3-2.1 2.5-2.1.2 0 1.3-.9 2.5-2a12 12 0 0 1 2.5-2c.2 0 .9-.5 1.5-1.2s1.3-1.2 1.5-1.2l1.5-1c.6-.5 1.4-1 1.6-1 .3 0 .8-.3 1-.7.4-.4 1-1 1.7-1.3.6-.3 1.1-.7 1.1-.9 0-.1.3-.3.7-.3.4 0 1-.4 1.3-.8.3-.4.9-.8 1.3-.8s.7-.1.7-.3c0-.2.5-.6 1.1-1 .6-.2 1.2-.6 1.3-.7a16 16 0 0 1 3.3-1.9c.4 0 .7-.4.7-.5 0-.2.4-.4.8-.4s.8-.2.8-.4.3-.4.6-.4.6-.2.6-.4.3-.4.8-.4c.4 0 .8-.1.9-.3a9 9 0 0 1 2.8-1.7 9.4 9.4 0 0 0 2.7-1.7c0-.1.5-.3 1.2-.3s1.2-.2 1.2-.4.4-.4.8-.4.8-.2.8-.4.3-.4.6-.4c.4 0 1.6-.5 2.8-1 1.2-.6 2.5-1 2.8-1 .3 0 .6-.2.6-.4s.4-.4 1-.4c.5 0 1-.2 1.2-.4.1-.2.6-.4 1-.4.5 0 .8-.2.8-.4s.5-.4 1.2-.4 1.2-.2 1.2-.4.5-.4 1.2-.4 1.2-.2 1.2-.4.5-.4 1.2-.4 1.2-.2 1.2-.4.4-.4 1-.4c.5 0 1-.2 1.2-.4.1-.2.8-.4 1.4-.4.6 0 1.3-.2 1.4-.4.1-.2.8-.4 1.4-.4.7 0 1.2-.2 1.2-.4s.7-.4 1.6-.4c.9 0 1.6-.2 1.6-.4s.7-.4 1.6-.4c.9 0 1.6-.2 1.6-.4s.8-.4 1.8-.4 1.8-.2 1.8-.4.9-.4 2-.4c1 0 2-.2 2.2-.4.1-.2 1.2-.4 2.4-.4s2.2-.2 2.2-.4 1.3-.4 3-.4c1.6 0 3-.2 3.2-.4.1-.2 2-.4 4.4-.4 2.5 0 4.2-.2 4.2-.4 0-.3 3.6-.4 10-.4 6.2 0 10 .2 10.2.4M103 105.4C86 108 72.7 123.7 73.7 140c1 14.8 28 51.3 43.8 59 8.2 3.9 17.4-1.8 32.5-20.1 16.6-20 23.6-34.2 21.6-44-2.9-14-11.8-24.6-23.6-28l-3-.8a22 22 0 0 0-19.9 4.3c-1.4 1-2.5 1.6-2.8 1.4l-2.5-1.8a22.2 22.2 0 0 0-16.8-4.5m143.2 0a34.6 34.6 0 0 0-27.3 22c-1.8 5.3-1.9 6-1.9 11 0 5.4.3 6.4 3 12.3l1.2 2.7c0 2.5 14.7 23.1 21.8 30.6 14.3 15 21 18.4 28.8 14.6 12.3-6 36.5-36.1 41.8-52.2 8.5-25.5-25.4-52.6-45.3-36.2l-2.4 1.9-1.6-1.3c-6.4-4.8-11.5-6.3-18.1-5.4m-138.2 18c.6.3 2.8 2.1 4.8 4 8.3 7.6 11.4 7.6 19.7 0 4.8-4.4 5.1-4.6 8-4.1 8 1.5 14.9 10.2 13.1 17-2.2 8.2-26.9 40.9-31 40.9-1.4 0-15.2-15.2-20.5-22.7-8.5-12.1-10.6-16.3-10.4-20.5.3-7 5.3-12.9 12.5-14.6 2.6-.7 2.5-.7 3.8 0m143.4.1 4 3.3c8.7 8.2 11.8 8.3 19.6 1.1 6.1-5.6 6.8-5.8 12-3.6 6.8 2.9 12 12.3 9.4 17.2l-2 4.1c-4.7 9.4-25.7 35.6-28.5 35.6-1.7 0-14.7-14.3-20.8-23-9-12.7-11.2-17.2-10.3-21.5 1.4-6.9 6-11.7 12.3-13.3 3-.7 3-.7 4.3.1M112.1 234.1c-5.3 1.5-7.3 5.4-6.7 12.8a67.4 67.4 0 0 0 61.6 63c4.8.6 39.6.6 44.5 0a79 79 0 0 0 20.5-5 65.9 65.9 0 0 0 41-58.1V241l-1.4-2a8.8 8.8 0 0 0-14-.7c-1.5 1.9-1.8 3-2.4 9.3a47 47 0 0 1-30.6 41.2 59.9 59.9 0 0 1-12.7 3.2c-5.1.7-41.3.5-45.9-.2a49.3 49.3 0 0 1-42.8-46.5 21 21 0 0 0-1-6.2c-2-4-6.3-6.1-10.1-5" />
        <path fill="#9ccc65"
            d="M211 33.6c-.1.2-2.2.4-4.8.4-2.6 0-4.7.2-4.8.4-.1.2-1.5.4-3 .4s-2.9.2-3 .4c-.1.2-1.3.4-2.6.4s-2.4.2-2.4.4-1 .4-2.2.4c-1.2 0-2.3.2-2.4.4-.1.2-1 .4-1.8.4-.9 0-1.6.2-1.6.4s-.7.4-1.6.4c-.8 0-1.7.2-1.8.4-.1.2-1 .4-1.8.4-.9 0-1.6.2-1.6.4s-.5.4-1.2.4-1.2.2-1.2.4-.7.4-1.6.4c-.9 0-1.6.2-1.6.4s-.5.4-1.2.4c-.6 0-1.3.2-1.4.4-.1.2-.7.4-1.2.4-.6 0-1 .2-1 .4s-.5.4-1.2.4-1.2.2-1.2.4c0 .1-1 .4-2.2.6-1.2.1-2.2.4-2.2.5 0 .2-.6.5-1.3.8a31 31 0 0 0-6.6 2.6c-.1.2-.5.3-1 .3-.4 0-.7.2-.7.4s-.4.4-.8.4-.8.2-.8.4-.4.4-1 .4c-.5 0-1 .2-1 .4s-.4.4-.8.4-.8.2-.8.4-.4.4-.8.4-.8.2-.8.4-.4.4-.8.4-.8.2-.8.4-.4.4-.8.4-.8.2-.8.4-.4.4-.8.4-.8.2-.8.4-.4.4-.8.4-.8.2-.8.4-.2.4-.5.4-1 .4-1.4.8c-.5.4-1.1.8-1.5.8-.3 0-.6.1-.6.3 0 .2-.6.6-1.4.9-.8.3-1.4.7-1.4.8 0 .2-.7.7-1.6 1-.9.4-1.6.9-1.6 1 0 .3-.2.4-.5.4s-1 .4-1.4.8c-.5.4-1.1.8-1.5.8-.3 0-.6.2-.6.3 0 .2-.5.6-1.1 1-.6.2-1.4.8-1.7 1.2l-1 .7c-.2 0-1 .5-1.8 1.2a7 7 0 0 1-1.7 1.2c-.3 0-2 1.5-4.1 3.5a7 7 0 0 1-1.8 1.3c-.3 0-1.3.9-2.3 1.9a126.3 126.3 0 0 0-16.2 15.4A102.8 102.8 0 0 0 74 110c-.4.3-.8.7-.8 1 0 .3-.2.5-.4.5s-.4.2-.4.4-.4.8-.8 1.3-.8 1-.8 1.4c0 .3-.2.5-.4.5s-.4.2-.4.5-.4 1-.8 1.4c-.4.5-.8 1.1-.8 1.4 0 .3-.4.8-.8 1.1-.4.3-.8.9-.8 1.3s-.2.7-.4.7-.4.4-.4.8-.2.8-.4.8c-.1 0-.5.5-.8 1.2-.3.7-.7 1.2-.8 1.2-.2 0-.4.3-.4.8 0 .4-.1.8-.3.9-.5.2-3.3 6-3.3 6.8 0 .4-.2.7-.4.7s-.4.4-.4.8-.2.8-.4.8-.4.4-.4.8-.2.8-.4.8-.4.4-.4.8-.2.8-.4.8-.4.4-.4 1c0 .5-.2 1-.4 1.2-.2.1-.4.6-.4 1 0 .5-.2.8-.4.8s-.4.4-.4.8-.2.8-.4.8-.4.5-.4 1c0 .6-.2 1-.4 1s-.4.4-.4 1c0 .5-.2 1-.4 1.2-.2.1-.4.6-.4 1 0 .5-.2.8-.4.8s-.4.5-.4 1.2-.2 1.2-.4 1.2-.4.5-.4 1.2-.2 1.2-.4 1.2-.4.5-.4 1.2-.2 1.2-.4 1.2-.4.5-.4 1.2c0 .6-.2 1.3-.4 1.4-.2.1-.4.8-.4 1.4 0 .6-.2 1.3-.4 1.4-.2.1-.4.8-.4 1.4 0 .6-.2 1.3-.4 1.4-.3.2-.6 1.6-1 4.9-.2 1-.4 1.7-.6 1.7-.2 0-.4.7-.4 1.6 0 .8-.2 1.7-.4 1.8-.2.1-.4 1-.4 1.8a35.7 35.7 0 0 0-1.1 8c-.1 2.6-.4 4.8-.6 4.8a17 17 0 0 0-.3 4 221.9 221.9 0 0 0 1.6 49.4c.2.2.4 1.3.5 2.4.5 3.8.8 5.4 1.1 5.6.2.1.4 1 .4 1.8 0 .9.2 1.7.4 1.8.2.1.4.6.4 1.1 0 .9.7 3.2 1.2 4.4.2.4.4 1 .4 1.4 0 .7.7 3.1 1.2 4.2.2.4.4 1 .4 1.5 0 .4.2.9.4 1 .2.1.4.7.4 1.2s.2 1 .4 1.2c.2.1.4.7.4 1.2 0 .6.2 1 .4 1s.4.4.4.8.2.8.4.8.4.5.4 1.2.2 1.2.4 1.2.4.3.4.8c0 .4.2.9.4 1 .2.1.4.7.4 1.2 0 .6.2 1 .4 1s.4.4.4.8.2.8.4.8.4.4.4 1 .2 1 .4 1 .4.3.4.8c0 .4.2.9.4 1 .2.1.4.6.4 1 0 .5.2.8.4.8s.4.4.4.8.2.8.4.8.4.2.4.5a58.6 58.6 0 0 0 5.2 10.3c0 .4.1.8.3.8.2 0 .6.6.9 1.4.3.8.7 1.4.9 1.4.2 0 .3.3.3.6s.2.6.4.6.4.2.4.5.4.8.8 1.1c.4.3.8.9.8 1.3s.2.7.4.7.4.2.4.5.4 1 .8 1.4c.4.5.8 1 .8 1.2 0 .2.5 1 1.1 1.5a15 15 0 0 1 1.7 2.3c.3.6.7 1.1.9 1.1.2 0 .3.3.3.6s.2.6.4.6.4.2.4.5.5 1 1 1.6a5 5 0 0 1 1 1.3c0 .2.6 1 1.4 1.7a66.7 66.7 0 0 0 14.5 13.7 172 172 0 0 0 75.7 26.6c20.1 2.5 47.6-.4 68.8-7.2a178 178 0 0 0 50-26 174.5 174.5 0 0 0 46-52.4 210.2 210.2 0 0 0 15.6-37.4 174 174 0 0 0 4-74.2 167.1 167.1 0 0 0-23.8-62 174 174 0 0 0-19-24.8 169.4 169.4 0 0 0-40.9-32.6C260.1 41.5 240.7 34 234.3 34a57.6 57.6 0 0 0-13-.8c-6.3 0-10.1.2-10.3.4m111.8 32c0 .3.5.8 4 4.6a210.3 210.3 0 0 1 20.6 27.4 195.6 195.6 0 0 1 24.4 61.8 196.8 196.8 0 0 1-3 86.1l-1.6 5.5a215 215 0 0 1-18.8 42 199.3 199.3 0 0 1-59.1 61l-6 3.5a201.7 201.7 0 0 1-29.1 14.1 197.7 197.7 0 0 1-42.4 10.6 228 228 0 0 1-39.4 1c-5-.5-7.2-.4-7.2.4 0 .2.5.4 1.2.4s1.2.2 1.2.4.7.4 1.6.4c.9 0 1.6.2 1.6.4s.5.4 1.2.4c.6 0 1.3.2 1.4.4.1.2.9.4 1.6.4.8 0 1.4.2 1.4.4s.6.4 1.4.4c.7 0 1.5.2 1.6.4.1.2 1 .4 1.7.4.9 0 1.7.2 2 .4.3.3 1.8.6 5.7 1 1 .1 2.2.4 2.6.6.4.2 1.7.5 2.8.6a101.2 101.2 0 0 0 13.9 1c3.1 0 5.1.2 5.1.4 0 .3 3 .4 8 .4s8-.1 8-.4c0-.2 2-.4 4.9-.4a97.4 97.4 0 0 0 19.3-1.9 5 5 0 0 0 2.4-.5c.2-.2 1.1-.4 2-.4 1 0 1.8-.2 1.8-.4s.7-.4 1.6-.4c.9 0 1.6-.2 1.6-.4s.8-.4 1.8-.4 1.9-.2 2-.4c.1-.2.8-.4 1.4-.4.7 0 1.2-.2 1.2-.4s.4-.4.9-.4c.9 0 3.2-.7 4.4-1.2a4 4 0 0 1 1.5-.4c.4 0 .8-.2.8-.4s.5-.4 1.2-.4 1.2-.2 1.2-.4.5-.4 1.2-.4 1.2-.2 1.2-.4.5-.4 1.2-.4 1.2-.2 1.2-.4.4-.4 1-.4 1-.2 1-.4.4-.4 1-.4 1-.2 1-.4.4-.4 1-.4 1-.2 1-.4.4-.4.8-.4.8-.2.8-.4.4-.4.8-.4.8-.2.8-.4.4-.4 1-.4c.5 0 1-.2 1.2-.4.1-.2.6-.4 1-.4.5 0 .8-.2.8-.4s.3-.4.7-.4a56.4 56.4 0 0 0 10.9-5.7c0-.1.4-.3.8-.3s.8-.2.8-.4.4-.4.8-.4.8-.2.8-.4.2-.4.5-.4 1-.4 1.4-.8c.5-.4 1-.8 1.3-.8.2 0 .8-.4 1.3-.8s1-.8 1.4-.8c.3 0 .5-.2.5-.4s.3-.4.6-.4.6-.2.6-.4.3-.4.6-.4.6-.2.6-.4.2-.4.5-.4 1-.4 1.6-.9l1.8-1.6 2.2-1.3a8 8 0 0 0 2-1.5c.3-.4.8-.7 1-.7.2 0 .9-.5 1.5-1.1l2.6-2 2.4-2 2.9-2.5c1-.8 2-1.7 2.1-2a17 17 0 0 1 2.7-2.8c4-3.6 12.3-12 13-13.1a18 18 0 0 1 2.8-3.5l1.3-1.6.9-1.2a10 10 0 0 0 2.3-3l.8-.8c.4-.3.8-.8.8-1 0-.4.2-.6.4-.6s.4-.2.4-.5.4-.8.8-1.1c.4-.3.8-.8.8-1.1 0-.3.4-1 1-1.5.5-.5 1-1.3 1.2-1.8.1-.4.4-.8.6-.8.2 0 .4-.3.4-.8 0-.4.1-.8.3-.9a19 19 0 0 0 3.3-5c0-.3.4-1 .8-1.4.4-.5.8-1 .8-1.4 0-.3.2-.5.4-.5s.4-.4.4-.8.1-.8.3-.8c.2 0 .5-.4.7-.9 1.2-2.4 2.4-4.5 2.7-4.6.2-.1.3-.4.3-.7 0-.7 1-2.6 1.3-2.6.2 0 .3-.3.3-.8 0-.4.2-.9.4-1 .2-.1.4-.6.4-1 0-.5.2-.8.4-.8s.4-.4.4-.8.2-.8.4-.8.4-.4.4-.8.2-.8.4-.8.4-.3.4-.8c0-.4.2-.9.4-1 .2-.1.4-.7.4-1.2 0-.6.2-1 .4-1s.4-.3.4-.8c0-.4.2-.9.4-1 .2-.1.4-.7.4-1.2 0-.6.1-1 .3-1 .2 0 .6-1 1-2 .2-1.1.6-2.1.8-2.2.1-.1.4-1.1.5-2.2.2-1.1.5-2 .7-2 .1 0 .3-.5.3-1.2s.2-1.2.4-1.2.4-.7.4-1.6c0-.9.2-1.6.4-1.6s.4-.5.4-1.2.2-1.2.4-1.2.4-.7.4-1.6c0-.9.2-1.6.4-1.6s.4-.7.4-1.6c0-.9.2-1.6.4-1.6s.4-.8.4-1.8.2-1.8.4-1.8.4-.9.4-2 .2-2 .4-2 .4-1 .4-2.2c0-1.2.2-2.3.4-2.4.2-.1.4-1.4.4-2.8 0-1.7.2-2.6.5-2.7.4-.1.5-5.1.5-23.2a168 168 0 0 0-.5-23.6c-.3-.3-.5-1.5-.5-3.2 0-1.4-.2-2.8-.4-2.9-.2-.1-.4-1.1-.4-2.2s-.2-2-.4-2-.4-.8-.4-1.8-.2-1.8-.4-1.8-.4-.8-.4-1.8-.2-1.9-.4-2c-.2-.1-.4-1-.4-1.8 0-.9-.2-1.6-.4-1.6s-.4-.6-.4-1.4c0-.7-.2-1.5-.4-1.6-.2-.1-.4-.7-.4-1.2s-.2-1-.4-1.2c-.2-.1-.4-.9-.4-1.6 0-.8-.2-1.4-.4-1.4s-.4-.5-.4-1.2-.2-1.2-.4-1.2-.4-.4-.4-.9a33 33 0 0 0-2.8-8.7c0-.6-.5-1.8-2-4.9l-.4-1.3c0-.3-.2-.6-.4-.6s-.4-.4-.4-.8-.2-.8-.4-.8-.4-.4-.4-1c0-.5-.2-1-.4-1.2-.2-.1-.4-.6-.4-1 0-.5-.1-.8-.3-.8-.4 0-1.3-2-1.3-2.7 0-.3-.1-.5-.3-.5-.2 0-.8-1-1.3-2.2-.6-1.2-1.1-2.2-1.3-2.2-.2 0-.3-.3-.3-.7 0-.4-.4-1-.8-1.3-.4-.3-.8-.9-.8-1.3s-.2-.7-.4-.7-.4-.3-.4-.8c0-.4-.1-.8-.3-.9a11 11 0 0 1-1.5-2.4c-.6-1.3-1.3-2.3-1.5-2.3-.1 0-.3-.2-.3-.4a7 7 0 0 0-1.2-2.2c-.7-1-1.2-2-1.2-2.2 0-.2-.1-.4-.3-.4-.2 0-.7-.7-1.3-1.5-.5-.8-1.3-1.8-1.7-2.1-.4-.4-.7-.9-.7-1.2 0-.2-.5-1-1.2-1.7a5.1 5.1 0 0 1-1.2-1.6c0-.2-.5-.9-1.2-1.5s-1.2-1.3-1.2-1.5c0-.2-.8-1.2-1.8-2.3a9 9 0 0 1-1.8-2.2c0-.2-1.5-1.9-3.3-3.7a47.4 47.4 0 0 1-5.5-6.2c0-.2-2.2-2.3-4.4-4l-3.8-3.5c-2.2-2.2-4-3.8-4.4-3.8-.2 0-1-.7-1.8-1.6a6.6 6.6 0 0 0-2-1.6c-.2 0-1.1-.7-2-1.6a8 8 0 0 0-2-1.6c-.3 0-.9-.5-1.4-1-.6-.5-1.2-1-1.4-1-.2 0-.8-.5-1.4-1-1-1-2.2-1.3-2.2-.7m-208 41.4a30.1 30.1 0 0 1 7.5 4.8c.3.2 1.4-.3 2.8-1.4a22 22 0 0 1 20-4.3l2.9.8c11.8 3.4 20.7 14 23.6 28 2 9.8-5 24-21.6 44-15.1 18.3-24.3 24-32.5 20-15.8-7.6-42.9-44-43.8-58.9-1.3-21.2 23.5-41.2 41.1-33m142.2-.4c2.4 1 4.2 2 7.3 4.3l1.6 1.3 2.4-2c6.6-5.4 14.6-6.3 24.5-2.7 15.7 5.7 25.7 24.4 20.8 39-5.3 16-29.5 46.2-41.8 52.2-9.3 4.5-21-3.4-38.5-26.2a155 155 0 0 1-13.3-21.7c-2.7-6-3-7-3-12.3 0-5 .1-5.7 2-11 5-15.3 25-26.2 38-21m-152.8 17A16 16 0 0 0 91.7 138c-.2 4.2 1.9 8.4 10.4 20.5 5.3 7.5 19 22.7 20.6 22.7 4 0 28.7-32.7 31-41 1.7-6.7-5.1-15.4-13.3-17-2.8-.4-3.1-.2-7.9 4.1-8.3 7.7-11.4 7.7-19.7.1-3.4-3.2-5.5-4.7-6.3-4.6l-2.3.6m142.9 0a16.4 16.4 0 0 0-12.3 13.3c-.9 4.3 1.3 8.8 10.3 21.5 6.1 8.7 19 23 20.8 23 2.8 0 23.8-26.2 28.5-35.6l2-4c2.5-5-2.6-14.4-9.4-17.3-5.2-2.2-5.9-2-12 3.6-7.8 7.2-10.9 7-19.7-1.1-2.8-2.6-4.8-4-5.5-4l-2.7.6m-131 110.7c2.8.7 4.9 2.5 6.2 5 .3.5.7 3.3 1 6.2a49.3 49.3 0 0 0 42.7 46.5c4.6.7 40.8.9 45.9.2 4-.5 10-2 12.7-3.2a47 47 0 0 0 30.6-41.2c.6-6.2.9-7.4 2.4-9.3a8.8 8.8 0 0 1 14 .7l1.4 2v5.8a65.9 65.9 0 0 1-36.6 56c-13.5 6.6-19.9 7.6-47.3 7.6-32.3 0-43.5-3-59.2-15.5-15.5-12.6-26.8-37-24.5-53.3.7-5.3 6-9 10.8-7.5" />
    </g>
</svg>
