<svg xmlns="http://www.w3.org/2000/svg" width="400" height="400">
    <g fill-rule="evenodd">
        <path fill="#e65100"
            d="M184 2.4c0 .2-2 .4-5.4.4-3.3 0-5.4.2-5.4.4s-1.4.4-3.4.4-3.4.2-3.4.4-1 .4-2.4.4c-1.3 0-2.5.2-2.6.4-.1.2-1.2.4-2.4.4s-2.2.2-2.2.4-.9.4-2 .4-2 .2-2 .4-.8.4-1.8.4-1.8.2-1.8.4-.7.4-1.6.4c-.9 0-1.6.2-1.6.4s-.7.4-1.6.4c-.9 0-1.6.2-1.6.4s-.5.4-1.2.4-1.2.2-1.2.3c0 .2-1.1.5-2.5.6a12 12 0 0 0-2.9.7c-.2.2-.8.4-1.3.4-.4 0-1 .2-1.1.4-.1.2-.7.4-1.2.4s-1 .2-1.2.4c-.1.2-.7.4-1.2.4-.6 0-1 .2-1 .4s-.4.4-1 .4c-.5 0-1 .2-1.2.4-.1.2-.6.4-1 .4-.5 0-.8.2-.8.4s-.4.4-1 .4c-.5 0-1 .2-1.2.4-.1.2-.6.4-1 .4-.5 0-.8.2-.8.4s-.4.4-1 .4c-.5 0-1 .2-1.2.4-.1.2-.6.4-1 .4-.5 0-.8.2-.8.4s-.4.4-.8.4-.8.2-.8.4-.3.4-.8.4c-.4 0-.9.2-1 .4-.1.2-.6.4-1 .4-.5 0-.8.2-.8.4s-.4.4-.8.4-.8.2-.8.4-.4.4-.8.4-.8.2-.8.4-.4.4-.8.4-.8.2-.8.4-.4.4-.8.4-.8.2-.8.4-.4.4-.8.4-.8.2-.8.4-.4.4-.8.4-.8.2-.8.4-.2.4-.5.4-1 .4-1.4.8c-.5.4-1 .8-1.3.8-.6 0-4.2 2-4.3 2.5-.1.2-.5.3-1 .3-.4 0-.7.2-.7.4 0 .1-.5.5-1.2.8-.7.3-1.2.7-1.2.8 0 .2-.2.4-.5.4s-1 .4-1.4.8c-.5.4-1.1.8-1.4.8-.3 0-.8.4-1.1.8-.3.4-.8.8-1 .8-.4 0-1.2.5-1.9 1.2S81 38 80.6 38c-.2 0-.7.4-1 .8-.3.4-.7.8-.9.8-.2 0-.9.5-1.6 1.2a5 5 0 0 1-1.6 1.2c-.2 0-.7.3-1 .7L72 44.6c-1 .6-2.3 1.6-2.8 2.2-.5.6-1.5 1.3-2 1.7-1.3.9-8 7.3-11.8 11.1a122.7 122.7 0 0 0-15 17.2c-.9.9-1.6 1.7-1.6 2l-.8.8c-.4.3-.8.8-.8 1 0 .4-.2.6-.4.6s-.4.2-.4.5-.4.8-.8 1.1c-.4.3-.8.8-.8 1 0 .4-.5 1.2-1.2 1.9s-1.2 1.5-1.2 1.8c0 .3-.2.5-.4.5-.1 0-.5.5-.8 1.2-.3.7-.7 1.2-.8 1.2-.2 0-.4.2-.4.4s-.6 1.4-1.4 2.5a10 10 0 0 0-1.4 2.6c0 .3-.2.5-.4.5s-.4.3-.4.6c0 .4-.4 1-.8 1.5s-.8 1-.8 1.4c0 .3-.2.5-.4.5s-.4.4-.4.8-.2.8-.4.8-.4.4-.4.8-.1.8-.3.8c-.2 0-.6.6-.9 1.4-.3.8-.7 1.4-.8 1.4-.1 0-.5.6-.8 1.4-.3.8-.7 1.4-.9 1.4-.2 0-.3.4-.3.8s-.2.8-.4.8-.4.3-.4.8c0 .4-.2.9-.4 1-.2.1-.4.6-.4 1 0 .5-.2.8-.4.8s-.4.4-.4.8-.2.8-.4.8-.4.4-.4.8-.2.8-.4.8-.4.3-.4.8c0 .4-.2.9-.4 1-.2.1-.4.7-.4 1.2 0 .6-.2 1-.4 1s-.4.4-.4.8-.2.8-.4.8-.4.5-.4 1.2-.2 1.2-.4 1.2-.4.3-.4.6-.2 1-.5 1.5c-1 2-1 2.3-1.3 4.3-.2 1-.5 2-.7 2-.1 0-.3.5-.3 1.2s-.2 1.2-.4 1.2-.4.5-.4 1.2-.2 1.2-.4 1.2-.4.5-.4 1.2-.2 1.2-.4 1.2-.4.5-.4 1.2c0 .6-.2 1.3-.4 1.4-.2.1-.4.8-.4 1.4 0 .6-.2 1.3-.4 1.4-.2.1-.4.9-.4 1.6 0 .7-.2 1.5-.4 1.6-.2.1-.4.9-.4 1.6 0 .7-.2 1.5-.4 1.6-.2.1-.4 1-.4 2s-.2 1.8-.4 1.8-.4.9-.4 2-.2 2-.4 2-.4 1-.4 2.2c0 1.2-.2 2.3-.4 2.4-.2.1-.4 1.4-.4 2.7 0 1.5-.2 2.7-.5 3-.7.8-.7 49 0 49.8.3.2.5 1.5.5 2.8 0 1.2.2 2.4.4 2.5.2.1.4 1.2.4 2.4s.2 2.2.4 2.2.4.9.4 2c0 1 .2 2 .4 2.2.2.1.4 1 .4 2s.2 1.8.4 1.8.4.6.4 1.4c0 .7.2 1.5.4 1.6.2.1.4 1 .4 1.8 0 .9.2 1.7.4 1.8.2.1.4.8.4 1.4 0 .7.2 1.2.4 1.2s.4.6.4 1.4c0 .7.2 1.5.4 1.6.2.1.4.8.4 1.4 0 .7.2 1.2.4 1.2s.4.5.4 1.2.2 1.2.4 1.2.4.4.4 1c0 .5.2 1 .4 1.2.2.1.4 1.1.6 2.2.2 1.1.4 2.1.6 2.2.2.1.4.6.4 1 0 .5.2.8.4.8s.4.4.4.8.2 1.1.4 1.5a32.3 32.3 0 0 1 1.6 3.8l.4 1.3c0 .3.2.6.4.6s.4.3.4.8c0 .4.2.9.4 1 .2.1.4.6.4 1 0 .5.2.8.4.8s.4.4.4.8.2.8.4.8.4.4.4.8.2.8.4.8.4.4.4.8.2.8.4.8.4.4.4.8.2.8.4.8.4.4.4.8.2.8.4.8.4.4.4.8.2.8.4.8.4.4.4.8.2.8.4.8.4.4.4.8.2.8.4.8.4.3.4.6.2.6.4.6.4.2.4.5.4 1 .8 1.4c.4.5.8 1.1.8 1.5 0 .3.2.6.4.6s.4.4.4.8.2.8.4.8.5.5.7 1.1a17 17 0 0 0 2.4 4c.2.3.6.9.7 1.3.1.4.4.8.6.8.2 0 .4.2.4.5s.4 1 .8 1.4l.8 1c0 .3 1 1.5 1.9 2.5.3.3.5.7.5.9 0 .2.4.6.8.9.4.3.8.8.8 1.1 0 .3.5 1 1.2 1.7.7.6 1.2 1.3 1.2 1.6 0 .2.2.4.4.4s.4.2.4.4c0 .3.5 1 1.1 1.5a249.6 249.6 0 0 0 29.3 29.7c.3 0 1 .6 1.8 1.4a6 6 0 0 0 1.8 1.4c.2 0 1 .6 1.8 1.4.7.8 1.5 1.4 1.7 1.4.2 0 .7.4 1.1.8.4.4 1 .8 1.2.8.2 0 .7.4 1 .8.3.4.8.8 1 .8.2 0 1 .5 1.6 1 .6.6 1.2 1 1.4 1 .2 0 .7.4 1.2.8s1.2.8 1.5.8c.3 0 1 .4 1.4.8.5.4 1 .8 1.4.8.3 0 .5.2.5.4s.3.4.7.4c.3 0 .9.3 1.3.7.3.4 1.1 1 1.8 1.3l1.4.8a16 16 0 0 0 3.3 1.9c.4 0 .7.4.7.5 0 .2.4.4.8.4s.8.2.8.4.4.4.8.4.8.2.8.4.4.4.8.4.8.2.8.4.4.4.8.4.8.2.8.4.4.4.8.4.8.2.8.4.4.4.8.4.8.2.8.4.4.4.8.4.8.2.8.4.3.4.8.4c.4 0 .9.2 1 .4.1.2.6.4 1 .4.5 0 .8.2.8.4s.4.4.8.4.8.2.8.4.9.5 2 .6c1.1.2 2 .5 2 .7 0 .1.4.3.8.3s.8.2.8.4.5.4 1.2.4 1.2.2 1.2.4.4.4.8.4.8.2.8.4.4.4 1 .4c.5 0 1 .2 1.2.4.1.2.7.4 1.2.4.6 0 1 .2 1 .4s.5.4 1.2.4 1.2.2 1.2.4.5.4 1.2.4 1.2.2 1.2.4.5.4 1.2.4c.6 0 1.3.2 1.4.4.1.2.9.4 1.6.4.8 0 1.4.2 1.4.4s.6.4 1.4.4c.7 0 1.5.2 1.6.4.1.2 1.2.4 2.3.4 1.2 0 3 .2 3.9.4l4.1.8a190.7 190.7 0 0 0 76.7.1l3.8-.8 11.8-3a201.6 201.6 0 0 0 59-28.8c5.6-4.2 7.7-5.9 10.2-7.9a197.5 197.5 0 0 0 40.5-46.3 192.2 192.2 0 0 0 25.9-140.7l-.8-3.8a181.8 181.8 0 0 0-19.6-51.5 16 16 0 0 1-1.6-3.7c0-.5-.2-.8-.4-.8s-.4-.5-.4-1-.2-1-.4-1-.4-.4-.5-1a5 5 0 0 0-1-1.6l-2.3-3.6-.9-1.3c-.3-.3-.5-.7-.5-1 0-.1-.4-.7-1-1.3-.6-.5-1-1.2-1-1.5 0-.3-.4-.8-.8-1.1-.4-.3-.8-.8-.8-1a4 4 0 0 0-.9-1.5 644 644 0 0 1-2.3-3c0-.3-.4-.6-.8-.7-.4-.1-.8-.5-.8-.9 0-.3-.7-1.2-1.5-2s-1.7-2-2-2.5c-.3-.6-1.5-2.1-2.7-3.3a287.6 287.6 0 0 0-24.5-23.8c-.8-.7-1.7-1.3-2-1.3-.3 0-1-.5-1.7-1.2-.6-.7-1.4-1.2-1.7-1.2-.4 0-.8-.4-.9-.8-.1-.4-.5-.8-.8-.8-.3 0-.6-.2-.6-.4s-.2-.4-.5-.4-.8-.4-1.1-.8c-.3-.4-.8-.8-1-.8-.2 0-1-.5-1.8-1.2a5.4 5.4 0 0 0-1.9-1.2c-.3 0-.5-.2-.5-.4s-.2-.4-.5-.4-1-.4-1.4-.8c-.5-.4-1.1-.8-1.4-.8-.3 0-.8-.4-1.1-.8-.3-.4-.9-.8-1.3-.8-.3 0-.7-.1-.8-.3a30 30 0 0 0-5.8-3.5c-1-.4-1.7-1-1.7-1.1 0-.2-.4-.3-.8-.3s-.8-.2-.8-.4-.4-.4-.8-.4-.8-.2-.8-.4-.4-.4-.8-.4-.8-.2-.8-.4-.4-.4-.8-.4-.8-.2-.8-.4-.4-.4-.8-.4-.8-.2-.8-.4-.4-.4-.8-.4-.8-.2-.8-.4-.4-.4-.8-.4-.8-.2-.8-.4-.4-.4-.8-.4-.8-.2-.8-.4-.4-.4-.8-.4-.8-.2-.8-.4-.4-.4-1-.4-1-.2-1-.4-.4-.4-.8-.4-.8-.2-.8-.4-.3-.4-.8-.4c-.4 0-.9-.2-1-.4-.1-.2-.7-.4-1.2-.4-.6 0-1-.1-1-.3 0-.2-.9-.6-2-.9-1.1-.3-2-.7-2-.9 0-.2-.4-.3-1-.3-.5 0-1-.2-1.2-.4-.1-.2-.7-.4-1.2-.4s-1-.2-1.2-.4c-.1-.2-.7-.4-1.2-.4s-1-.2-1.2-.4c-.1-.2-.7-.4-1.2-.4s-1-.2-1.2-.4c-.1-.2-1.2-.5-2.4-.6a6.8 6.8 0 0 1-2.2-.6c0-.2-.7-.4-1.6-.4-.9 0-1.6-.2-1.6-.4s-.6-.4-1.4-.4c-.7 0-1.5-.2-1.6-.4-.1-.2-.9-.4-1.6-.4-.8 0-1.4-.2-1.4-.4s-.9-.4-2-.4-2-.2-2-.4-.9-.4-2-.4-2-.2-2-.4-.9-.4-2-.4c-1 0-2-.2-2.2-.4-.1-.2-1.3-.4-2.6-.4s-2.5-.2-2.6-.4c-.1-.2-1.6-.4-3.2-.4s-3-.2-3.2-.4a20 20 0 0 0-5.6-.4c-3.3 0-5.4-.2-5.4-.4 0-.3-3.3-.4-9.2-.4a43 43 0 0 0-9.2.4m27.4 20.7a278.6 278.6 0 0 1 24.2 4.1c0 .2.6.4 1.4.4.7 0 1.5.2 1.6.4.1.2.8.4 1.4.4.7 0 1.2.2 1.2.4s.6.4 1.4.4c.8 0 1.4.2 1.4.4s.5.4 1.2.4 1.2.2 1.2.4.4.4 1 .4c.5 0 1 .2 1.2.4.1.2.8.4 1.4.4.6 0 1.3.2 1.4.4a45.7 45.7 0 0 1 9.8 3.2 172.7 172.7 0 0 1 39.2 23c33 25.5 58 66.4 64.4 105.2l1 6c2.9 17.8 2.7 39.3-.6 56.6l-.8 4.2a183.4 183.4 0 0 1-18.8 51l-2.3 4a281.3 281.3 0 0 1-12.1 17.6 183.5 183.5 0 0 1-50 44 246.4 246.4 0 0 1-22.8 11.2 189.8 189.8 0 0 1-37 10.4l-12.6 1.6c-6.2.7-26.3.6-32.6-.2a224.8 224.8 0 0 1-17.5-2.5 189 189 0 0 1-49.9-18.3l-5-3a191.8 191.8 0 0 1-27-19.9c-10.8-9.3-23.7-24.5-25.5-29.8 0-.4-.4-.7-.5-.7-.2 0-.4-.3-.4-.6s-.4-.8-.8-1c-.4-.4-.8-.9-.8-1.2 0-.3-.4-.9-.8-1.2-.4-.3-.8-.9-.8-1.2 0-.3-.4-.9-.8-1.2-.4-.3-.8-.9-.8-1.2 0-.3-.4-.9-.8-1.2-.4-.3-.8-.9-.8-1.3s-.2-.7-.4-.7-.4-.4-.4-.8-.1-.8-.3-.8c-.2 0-.7-.8-1-1.7l-1.6-2.8c-.4-.5-.7-1.3-.7-1.7 0-.3-.2-.6-.4-.6s-.4-.3-.4-.8c0-.4-.1-.8-.3-.9-.4-.2-2.9-5.1-2.9-5.8 0-.3-.2-.5-.4-.5s-.4-.4-.4-.8-.2-.8-.4-.8-.4-.3-.4-.8c0-.4-.2-.9-.4-1-.2-.1-.4-.6-.4-1 0-.5-.2-.8-.4-.8s-.4-.3-.4-.8c0-.4-.2-.9-.4-1-.2-.1-.4-.7-.4-1.2 0-.6-.2-1-.4-1s-.4-.4-.4-.8-.2-.8-.4-.8-.4-.5-.4-1.2-.2-1.2-.4-1.2-.4-.5-.4-1.2-.2-1.2-.4-1.2-.4-.4-.4-1c0-.5-.2-1-.4-1.2-.2-.1-.4-.7-.4-1.2s-.2-1-.4-1.2c-.2-.1-.4-.7-.4-1.2 0-.6-.2-1-.4-1s-.4-.5-.4-1.1a41 41 0 0 1-1.9-9c0-.8-.3-1.6-.5-1.7-.2-.1-.4-.9-.4-1.6 0-.7-.2-1.5-.4-1.6-.2-.1-.4-1.2-.4-2.4s-.2-2.2-.4-2.2c-.3 0-.6-2-1-7.4-.2-1.5-.4-3-.6-3.2-.2-.2-.4-2.1-.4-4.3a159.2 159.2 0 0 1 .8-38.5c0-1.5.2-3 .4-3.2.3-.4.5-1.3 1-6.1.1-1 .4-2.3.6-2.7.3-.8.5-1.7 1-5 .2-.8.4-1.6.6-1.8a8 8 0 0 0 .6-2.9c.2-1.4.5-2.5.7-2.5.1 0 .3-.5.3-1.2 0-.6.2-1.3.4-1.4.2-.1.4-.9.4-1.6 0-.8.2-1.4.4-1.4s.4-.4.4-1c0-.5.2-1 .4-1s.4-.5.4-1.2.2-1.2.4-1.2.4-.5.4-1.2.2-1.2.4-1.2.4-.4.4-.8.2-.8.4-.8.4-.5.4-1.2.2-1.2.4-1.2.4-.4.4-.8.2-.8.4-.8.4-.5.4-1.2.2-1.2.4-1.2.4-.4.4-.8.2-.8.4-.8.4-.4.4-.8.2-.8.4-.8.4-.4.4-.8.2-.8.4-.8.4-.4.4-1c0-.5.2-1 .4-1s.4-.4.4-.8.2-.8.4-.8.4-.4.4-.8.2-.8.4-.8.4-.3.4-.8c0-.4.1-.8.3-.9.4-.1 3.3-5.7 3.3-6.3 0-.3.3-.8.7-1.2.4-.3 1-1.2 1.3-1.9.3-.7.7-1.3.9-1.3.2 0 .3-.3.3-.6s.2-.6.4-.6.4-.3.4-.6.2-.6.4-.6.4-.3.4-.7c0-.4.4-1 .8-1.3.4-.3.8-.9.8-1.2 0-.3.4-.9.8-1.2.4-.3.8-.8.8-1 0-.4.5-1.2 1.2-1.9S52 95 52 94.6c0-.2.4-.7.8-1 .4-.3.8-.8.8-1 0-.3.6-1.1 1.3-1.9 1.7-1.7 3.6-4.2 4.3-5.5.3-.5 1.6-2 2.8-3.2l3.2-3.6a16 16 0 0 1 2.1-2.4c.6-.5 3-2.7 5-4.8a88.6 88.6 0 0 1 14-12.3l3.7-2.6a20 20 0 0 1 2.7-1.9l.9-.7c.3-.4 1-1 1.7-1.3.6-.3 1.1-.7 1.1-.9 0-.1.3-.3.7-.3.4 0 1-.4 1.3-.8.3-.4.9-.8 1.2-.8.3 0 .9-.4 1.2-.8.3-.4.9-.8 1.3-.8s.7-.2.7-.4.3-.4.6-.4.6-.2.6-.4.3-.4.6-.4.6-.2.6-.4.4-.4.8-.4.8-.1.8-.3c0-.2.5-.5 1.1-.8l2-1.3c.5-.4 1.1-.8 1.5-.8.3 0 .6-.2.6-.4s.3-.4.7-.4c.4 0 1.6-.5 2.7-1 1-.6 2.2-1 2.5-1 .3 0 .5-.2.5-.4s.4-.4.8-.4.8-.2.8-.4.3-.4.8-.4c.4 0 .9-.2 1-.4.1-.2.6-.4 1-.4.5 0 .8-.2.8-.4s.4-.4.8-.4.8-.2.8-.4.4-.4.8-.4.8-.2.8-.4.5-.4 1.2-.4 1.2-.2 1.2-.4.3-.4.8-.4c.4 0 .9-.2 1-.4.1-.2.7-.4 1.2-.4.6 0 1-.2 1-.4s.5-.4 1.2-.4 1.2-.2 1.2-.4.4-.4 1-.4c.5 0 1-.2 1.2-.4.1-.2.7-.4 1.2-.4.6 0 1-.2 1-.4s.5-.4 1.2-.4 1.2-.2 1.2-.4.5-.4 1.2-.4 1.2-.2 1.2-.4.7-.4 1.6-.4c.9 0 1.6-.2 1.6-.4s.5-.4 1.2-.4c.6 0 1.3-.2 1.4-.4.1-.2 1-.4 1.8-.4.9 0 1.7-.2 1.8-.4.1-.2 1-.4 1.8-.4.9 0 1.6-.2 1.6-.3 0-.2 1.8-.6 4.1-.9l6.9-.8c1.5-.2 4.5-.6 6.5-.7l4-.6c.4-.5 28 0 32.3.4M124 123.6c-22.2 4.3-23 36.3-1 43.2 15.4 4.9 32.2-11.8 27.4-27a22.5 22.5 0 0 0-26.4-16.2m127.3.2c-11 3.1-18.3 13.9-16.5 24.5a22.3 22.3 0 0 0 40.9 8.8c10.5-16.4-5.7-38.6-24.4-33.3M172 231c-9.2.7-23.4 5.7-30.6 10.6a75.7 75.7 0 0 0-27.7 33.3c-2.3 6-2.8 7.6-4 12.8-3.2 15.7-.6 23.8 7.7 23.8 6 0 8.9-4 9.4-12.7a53.2 53.2 0 0 1 39.2-48.1c5.4-1.5 7.7-1.6 28.6-1.6 21 0 23.4.1 28.6 1.6l2.8.7a53.5 53.5 0 0 1 36.7 48.9c.6 7.8 4.5 11.6 10.7 10.6 7.5-1.1 9.3-8.2 6.1-23.6a71.3 71.3 0 0 0-57.9-56c-1.3-.3-45.4-.7-49.6-.3" />
        <path fill="#ffb74d"
            d="M204.8 28.8c-.3.2-2.5.4-4.8.4a17 17 0 0 0-4.6.4c-.2.2-1.7.4-3.2.5a68.9 68.9 0 0 0-10 1.4 5 5 0 0 0-2.4.5c-.2.2-1 .4-1.9.4-.8 0-1.5.2-1.5.4s-.7.4-1.6.4c-.8 0-1.7.2-1.8.4-.1.2-1 .4-1.8.4-.9 0-1.7.2-1.8.4-.1.2-.8.4-1.4.4-.7 0-1.2.2-1.2.4s-.6.4-1.4.4c-.7 0-1.5.2-1.6.4-.1.2-.7.4-1.2.4s-1 .2-1.2.4c-.1.2-.7.4-1.2.4-.6 0-1 .2-1 .4s-.5.4-1.2.4-1.2.2-1.2.4-.5.4-1.2.4-1.2.2-1.2.4-.5.4-1.2.4-1.2.2-1.2.4-.4.4-1 .4c-.5 0-1 .2-1.2.4-.1.2-.6.4-1 .4-.5 0-.8.2-.8.4s-.4.4-1 .4-1 .2-1 .4-.4.4-1 .4-1 .2-1 .4c0 .1-.6.4-1.2.5-.7.2-2.4.8-3.7 1.5a15 15 0 0 1-3 1.2c-.3 0-.5.2-.5.4s-.4.4-.8.4-.8.1-.8.3c0 .4-2 1.3-2.7 1.3-.3 0-.5.1-.5.3 0 .2-.6.6-1.4.9-.8.3-1.4.7-1.4.9 0 .2-.4.3-.8.3s-.8.2-.8.4-.2.4-.5.4-1 .4-1.4.8c-.5.4-1.1.8-1.5.8-.3 0-.6.2-.6.4s-.3.4-.6.4c-.4 0-1 .4-1.5.8s-1 .8-1.4.8c-.3 0-.5.2-.5.4s-.2.4-.5.4-.9.3-1.3.7l-1.9 1.3c-.6.3-1.1.7-1.1.9 0 .1-.2.3-.5.3-.6 0-3.4 2-4.3 2.9-.4.4-1 .7-1.2.7-.2 0-.9.4-1.4 1-.6.6-1.2 1-1.4 1A6 6 0 0 0 103 67c-.7.8-1.5 1.4-1.7 1.4-.2 0-1.2.8-2.2 1.7a47.3 47.3 0 0 1-4.8 4.1l-1 1.2c-.4.5-1.5 1.4-2.5 2.2a46 46 0 0 0-3.9 3.2c-1.2 1.1-4 4-7.3 8a112.2 112.2 0 0 1-4.8 5.4c0 .1-.7 1-1.6 1.9-.9 1-1.6 1.8-1.6 2 0 .2-.7 1-1.6 2a8 8 0 0 0-1.6 2c0 .2-.5.8-1 1.3-.6.6-1 1.2-1 1.4 0 .2-.5.8-1 1.4-.6.5-1 1.2-1 1.5 0 .3-.4.8-.8 1.1-.4.3-.8.7-.8 1 0 .1-.6 1.2-1.4 2.3a7 7 0 0 0-1.4 2.3c0 .2-.4.8-.8 1.3s-.8 1-.8 1.4c0 .3-.2.5-.4.5s-.4.3-.4.6c0 .4-.4 1-.8 1.5s-.8 1-.8 1.4c0 .3-.2.5-.4.5s-.4.4-.4.8-.2.8-.4.8-.4.4-.4.8-.1.8-.3.8c-.2 0-.5.4-.7.9l-2.6 4.7c-.4.4-2 4-2 4.6 0 .3-.2.6-.4.6s-.4.4-.4.8-.2.8-.4.8-.4.4-.4.8-.1.8-.3.8c-.2 0-.6.9-.9 2-.3 1.1-.7 2-.9 2-.2 0-.3.3-.3.8 0 .4-.2.9-.4 1-.2.1-.5 1-.6 1.8-.1.9-.4 1.7-.6 1.8-.2.1-.4.7-.4 1.2 0 .6-.2 1-.4 1s-.4.5-.4 1.2-.2 1.2-.4 1.2-.4.5-.4 1.2-.2 1.2-.4 1.2-.4.5-.4 1.2-.2 1.2-.4 1.2-.4.5-.4 1.2-.2 1.2-.4 1.2-.4.6-.4 1.4c0 .8-.2 1.4-.4 1.4s-.4.5-.4 1.2c0 .6-.2 1.3-.4 1.4-.2.1-.4.9-.4 1.6 0 .7-.2 1.5-.4 1.6-.2.1-.4 1-.4 2s-.2 1.8-.4 1.8-.4.7-.4 1.6c0 .9-.2 1.6-.4 1.6s-.4 1-.4 2.2c0 1.2-.2 2.2-.4 2.2s-.4.9-.4 2c0 1-.2 2-.4 2.2-.2.1-.4 1.6-.4 3.2 0 1.7-.2 3-.4 3s-.4 1.4-.4 3.4a303.9 303.9 0 0 0 0 38.8c0 1.8.2 3.5.4 3.6.2.1.4 1.5.4 3s.2 2.9.4 3c.2.1.4 1.1.4 2.2s.2 2 .4 2 .4 1 .4 2.2c0 1.2.2 2.3.4 2.4.2.1.4.9.4 1.6 0 .7.2 1.5.4 1.6.2.1.4 1 .4 1.8 0 .9.2 1.6.4 1.6s.4.6.4 1.4c0 .7.2 1.5.4 1.6.2.1.4.9.4 1.6 0 .8.2 1.4.4 1.4s.4.5.4 1.2c0 .6.2 1.3.4 1.4.2.1.4.9.4 1.6 0 .8.2 1.4.4 1.4s.4.4.4 1c0 .5.2 1 .4 1.2.2.1.4.7.4 1.2 0 .6.2 1 .4 1s.4.5.4 1.2.2 1.2.4 1.2.4.3.4.8c0 .4.2.8.3 1 .2 0 .5 1 .7 1.8.1.9.4 2 .6 2.3a33.7 33.7 0 0 1 2 5.1c0 .3.1.6.3.6.2 0 .5.5.8 1.2l1 2.4c.3.7.6 1.2.8 1.2.2 0 .3.3.3.6a6 6 0 0 0 1.2 2.6l.7 1.2c.3.5 1 1.5 1.3 2.3a133 133 0 0 0 29 31.4 191.8 191.8 0 0 0 41 25.4 189 189 0 0 0 53.4 14c6.3.7 26.4.8 32.6.1a230.5 230.5 0 0 0 21-3.2 222 222 0 0 0 13.8-3.6 189.8 189.8 0 0 0 19.4-7 196.8 196.8 0 0 0 32.8-19 183.5 183.5 0 0 0 49.8-56 183.4 183.4 0 0 0 18.9-51l.7-4.2c3.3-17.3 3.5-38.8.5-56.6l-1-6A176.8 176.8 0 0 0 261.3 35.2a45.7 45.7 0 0 0-9.8-3.2c-.1-.2-1-.4-1.8-.4-.9 0-1.6-.2-1.6-.4s-1-.4-2.3-.4c-1.3 0-2.5-.2-2.7-.4a11 11 0 0 0-3.4-.6l-7.6-.6a239 239 0 0 0-27.2-.4m154.8 68.7c0 .3.2.5.4.5s.4.3.4.8c0 .4.7 2 1.6 3.7a181.8 181.8 0 0 1 19.6 51.5l.8 3.8c2.5 11.1 3.6 23.3 3.6 38.2a176 176 0 0 1-4.4 42A192.2 192.2 0 0 1 316 344.8c-2.5 2-4.6 3.7-10.2 7.9a264.9 264.9 0 0 1-19.2 12.1 201.6 201.6 0 0 1-51.6 19.7l-3.8.8a190.7 190.7 0 0 1-76.7-.1l-4.1-.8c-2.5-.5-4-.5-4 0 0 .2.4.4 1 .4.5 0 1 .2 1 .4s.4.4 1 .4c.5 0 1 .2 1 .4s.4.4 1 .4c.4 0 1 .1 1.2.3.2.2 1.2.6 2.2.9 1.7.5 2.4.7 4.5 1.6l1.9.5 3.8 1c1.5.5 3.3.9 3.9.9.6 0 1.1.2 1.1.4s.7.4 1.6.4c.8 0 1.7.2 1.8.4.1.2 1 .4 2 .4s1.8.2 1.8.4.8.4 1.8.4 1.9.2 2 .4c.1.2 1 .4 2 .4s1.9.2 2 .4c.1.2 1.4.4 2.8.4 1.5 0 2.6.2 2.6.4s1.3.4 3 .4c1.6 0 3 .2 3.2.4.1.2 2.3.4 5.2.4a101.5 101.5 0 0 0 28.6 0c3.2 0 5.2-.2 5.2-.4s1.3-.4 3-.4c1.6 0 3-.2 3.2-.4.1-.2 1.4-.4 2.8-.4 1.5 0 2.6-.2 2.6-.4s.9-.4 2-.4c1 0 2-.2 2.2-.4.1-.2 1-.4 2-.4s1.8-.2 1.8-.4.8-.4 1.8-.4 1.8-.2 1.8-.4.7-.4 1.6-.4c.9 0 1.6-.2 1.6-.3 0-.2 1.1-.5 2.5-.6l2.9-.6c.2-.2 1-.5 1.8-.7 3-.5 3.6-.7 3.6-1 0-.2.5-.4 1.2-.4s1.2-.2 1.2-.4.4-.4 1-.4c.5 0 1-.1 1.2-.3a7 7 0 0 1 2.2-.9c1-.3 2-.7 2-.9 0-.2.5-.3 1.2-.3s1.2-.2 1.2-.4.4-.4.8-.4.8-.2.8-.4.3-.4.8-.4c.6 0 1.8-.5 4.9-2l1.3-.4c.3 0 .6-.2.6-.4s.4-.4.8-.4.8-.2.8-.4.4-.4.8-.4.8-.2.8-.4.4-.4.8-.4.8-.2.8-.4.4-.4.8-.4.8-.2.8-.4.4-.4.8-.4.8-.2.8-.4.4-.4.8-.4.8-.2.8-.4.3-.4.8-.4c.4 0 .8-.1.9-.3 0-.2.8-.7 1.7-1.1 2.3-1.1 5.6-3.1 5.7-3.5.1-.2.5-.3.8-.3.4 0 1-.4 1.3-.8.3-.4.8-.8 1.1-.8.3 0 1-.4 1.4-.8.5-.4 1-.8 1.4-.8.3 0 .5-.2.5-.4s.2-.4.5-.4.9-.3 1.3-.7c1.5-1.3 4.2-3.3 4.4-3.3.2 0 .8-.5 1.4-1.2.6-.7 1.3-1.2 1.6-1.2.3 0 .8-.3 1.2-.7.3-.4 1.3-1.2 2.2-1.8.9-.5 2.1-1.5 2.8-2.2a213.2 213.2 0 0 0 24.4-24.5l1.3-1.4c.5-.5.9-1.2.9-1.4 0-.3.7-1.2 1.6-2 .9-.8 1.6-1.7 1.6-2 0-.2.1-.4.3-.4.2 0 .6-.5 1-1.1a15 15 0 0 1 1.7-2.3 5 5 0 0 0 1-1.6l.7-1c.4-.3 1-1.1 1.3-1.7.3-.6.7-1.1.9-1.1.1 0 .3-.3.3-.6 0-.4.4-1 .8-1.5s.8-1 .8-1.4c0-.3.2-.5.4-.5.1 0 .5-.5.8-1.2.3-.7.6-1.2.8-1.2.2 0 .5-.5.6-1.2.1-.7.4-1.2.6-1.2.2 0 .4-.3.4-.6s.2-.6.4-.6.4-.4.4-.8.2-.8.4-.8.4-.4.4-.8.2-.8.3-.8c.2 0 .8-.9 1.3-1.9.6-1 1.1-2 1.3-2 .2-.1.3-.5.3-1 0-.4.2-.7.4-.7s.4-.4.4-.8.2-.8.4-.8.4-.4.4-.8.2-.8.4-.8.4-.3.4-.8c0-.4.2-.9.4-1 .2-.1.4-.6.4-1 0-.5.2-.8.4-.8s.4-.4.4-.8.2-.8.4-.8.4-.3.4-.6.2-1 .4-1.3l.8-1.8.8-2.2.8-1.8.4-1.3c0-.3.2-.6.4-.6s.4-.5.4-1.2.2-1.2.4-1.2.4-.4.4-1c0-.5.2-1 .4-1.2.2-.1.5-1.2.6-2.4.2-1.2.5-2.2.6-2.2.2 0 .4-.5.4-1.2s.2-1.2.4-1.2.4-.5.4-1.2c0-.6.2-1.3.4-1.4.2-.1.4-.9.4-1.6 0-.8.2-1.4.4-1.4s.4-.6.4-1.4c0-.7.2-1.5.4-1.6.2-.1.4-.9.4-1.6 0-.7.2-1.5.4-1.6.2-.1.4-1 .4-1.8 0-.9.2-1.7.4-1.8.2-.1.4-1.1.4-2.2s.2-2 .4-2 .4-1 .4-2.2c0-1.2.2-2.3.4-2.4.2-.1.4-1.3.4-2.6 0-1.5.2-2.4.5-2.5.4-.1.5-5.3.5-24.3s-.1-24.2-.5-24.3c-.3-.1-.5-1-.5-2.7 0-1.4-.2-2.7-.4-2.8-.2-.1-.4-1.1-.4-2.2s-.2-2-.4-2-.4-1-.4-2.2c0-1.2-.2-2.2-.4-2.2s-.4-.7-.4-1.6c0-.9-.2-1.6-.4-1.6s-.4-.7-.4-1.6c0-.9-.2-1.6-.4-1.6s-.4-.7-.4-1.6c0-.9-.2-1.6-.4-1.6s-.4-.6-.4-1.4c0-.8-.2-1.4-.4-1.4s-.4-.5-.4-1.2-.2-1.2-.4-1.2-.4-.6-.4-1.4c0-.7-.2-1.5-.4-1.6l-.6-2a12 12 0 0 0-.6-2.7l-.8-1.5c-.2-.4-.4-1-.4-1.4 0-.3-.2-1-.4-1.3l-.8-1.8-.8-2.2-.8-1.8-.4-1.3c0-.3-.2-.6-.4-.6s-.4-.4-.4-.8-.2-.8-.4-.8-.4-.3-.4-.6l-.4-1.4-.8-1.6c-.2-.4-.4-1-.4-1.4 0-.3-.2-.6-.4-.6s-.4-.4-.4-.8-.2-.8-.4-.8-.4-.4-.4-.8-.1-.8-.3-.8c-.2 0-.6-.6-.9-1.4-.3-.8-.7-1.4-.9-1.4-.2 0-.3-.4-.3-.8s-.2-.8-.4-.8-.4-.3-.4-.7c0-.4-.4-1-.8-1.3-.4-.3-.8-.9-.8-1.3s-.2-.7-.4-.7-.4-.4-.4-.8-.2-.8-.4-.8-.5-.5-.6-1.2c-.1-.7-.4-1.2-.6-1.2-.2 0-.4-.2-.4-.5s-.4-1-.8-1.4l-.8-1.1-1.2-2-1.2-2c0-.3-.4-.7-.8-1-.4-.3-.8-.8-.8-1 0-.3-.5-1-1.2-1.7s-1.2-1.5-1.2-1.8c0-.3-.4-.8-.8-1.1-.4-.3-.8-.8-.8-1a7 7 0 0 0-1.6-2.2 7.4 7.4 0 0 1-1.6-2l-.8-1c-.5-.4-.8-.5-.8-.3m-225.4 26.3a22.1 22.1 0 0 1 14.5 31.2c-10.1 21.1-42 13.7-42-9.8a22.2 22.2 0 0 1 27.5-21.4m130 .6a22.3 22.3 0 0 1 3.6 40.2c-15.7 9.4-36.3-5-32.9-22.9a22.3 22.3 0 0 1 29.3-17.3m-42.6 107 3.6 1a71.3 71.3 0 0 1 54.3 55c3.2 15.4 1.4 22.5-6.1 23.6-6.2 1-10-2.8-10.7-10.6a53.5 53.5 0 0 0-39.5-49.6c-5.2-1.5-7.7-1.6-28.6-1.6-20.9 0-23.2.1-28.6 1.6a63.1 63.1 0 0 0-12.5 5.2 53.2 53.2 0 0 0-26.7 43c-.5 8.7-3.5 12.6-9.4 12.6-8.3 0-10.9-8-7.6-23.8a62.5 62.5 0 0 1 8-21.3c5-9 13-17.5 23.6-24.8 7.2-5 21.4-10 30.6-10.6 4.2-.4 48.3 0 49.6.4" />
    </g>
</svg>
