<svg id="Capa_1" enable-background="new 0 0 512.01 512.01" height="512" viewBox="0 0 512.01 512.01"
    width="512" xmlns="http://www.w3.org/2000/svg">
    <path
        d="m207.435 20.333c-16.426-16.767-43.471-16.763-60.45-.556l-3.026 2.888c-1.958 1.869-5.039 1.869-6.997 0l-3.026-2.888c-16.979-16.207-44.024-16.211-60.45.556-16.69 17.036-16.19 44.374 1.009 60.792 1.225 1.169 48.837 46.619 62.47 59.633 1.958 1.869 5.033 1.869 6.991 0 13.633-13.014 61.245-58.463 62.47-59.633 17.199-16.418 17.7-43.756 1.009-60.792z"
        fill="#ff656f" />
    <path
        d="m119.495 68.927c-16.667-15.91-17.652-42.074-2.508-59.182-14.931-4.735-31.875-1.28-43.501 10.588-16.69 17.036-16.189 44.374 1.009 60.792 1.225 1.169 48.837 46.619 62.47 59.633 1.958 1.869 5.033 1.869 6.991 0 5.106-4.874 14.978-14.297 25.394-24.24-19.253-18.38-48.891-46.672-49.855-47.591z"
        fill="#ff4756" />
    <path
        d="m415.047 269.353-219.939-66.873c-38.626-21.326-88.193-15.964-120.368 16.879-39.091 39.901-37.918 103.929 2.363 142.38 2.869 2.739 114.381 109.186 146.311 139.666 4.586 4.378 11.788 4.378 16.374 0 31.93-30.48 143.442-136.927 146.311-139.666 25.823-24.649 35.573-59.809 28.948-92.386z"
        fill="#ff656f" />
    <path
        d="m122.104 349.541c-40.281-38.451-41.454-102.479-2.363-142.38 6.904-7.047 14.614-12.82 22.839-17.345-24.777.754-49.22 10.537-67.839 29.542-39.091 39.901-37.918 103.929 2.363 142.38 2.869 2.739 114.381 109.186 146.311 139.666 4.586 4.378 11.788 4.378 16.374 0 5.115-4.882 12.277-11.72 20.702-19.762-39.264-37.479-135.721-129.555-138.387-132.101z"
        fill="#ff4756" />
    <path
        d="m445.118 137.806c-28.236-28.821-74.724-28.815-103.909-.956l-5.201 4.965c-3.366 3.213-8.662 3.213-12.028 0l-5.201-4.965c-29.185-27.859-75.673-27.866-103.909.956-28.689 29.284-27.829 76.276 1.734 104.496 2.106 2.01 83.947 80.134 107.381 102.504 3.366 3.213 8.651 3.213 12.017 0 23.434-22.37 105.276-100.494 107.381-102.504 29.564-28.22 30.425-75.212 1.735-104.496z"
        fill="#ff656f" />
    <path
        d="m261.604 230.105c-29.563-28.22-30.424-75.212-1.734-104.497 3.505-3.577 7.292-6.708 11.291-9.399-20.352-1.148-40.998 5.987-56.291 21.597-28.689 29.284-27.829 76.276 1.734 104.497 2.106 2.01 83.947 80.134 107.382 102.504 3.366 3.213 8.651 3.213 12.017 0 5.229-4.991 13.37-12.763 22.88-21.841-30.974-29.568-95.413-91.08-97.279-92.861z"
        fill="#ff4756" />
    <path
        d="m140.352 15.451c-35.392-33.787-87.4-7.724-86.678 35.434.227 13.534 5.743 26.134 15.534 35.481 1.276 1.217 61.027 58.255 62.469 59.631 4.865 4.644 12.485 4.643 17.349 0 13.634-13.014 61.246-58.464 62.47-59.632 9.79-9.345 15.307-21.945 15.533-35.479.731-43.462-51.503-69.002-86.677-35.435zm11.703 9.565c22.916-21.877 60.501-5.623 59.977 25.618-.159 9.491-4.028 18.327-10.895 24.881-1.179 1.125-45.31 43.252-60.785 58.025-1.737-1.658-59.978-57.254-60.787-58.025-6.865-6.554-10.733-15.39-10.893-24.881-.533-31.744 37.407-47.158 59.977-25.617l3.025 2.888c4.865 4.644 12.488 4.646 17.354.001z" />
    <path
        d="m330.715 339.196c-.465.444-1.195.444-1.66 0-3.827-3.653-105.334-100.55-107.382-102.503-26.23-25.043-27.613-67.225-1.556-93.824 25.099-25.619 66.985-25.969 93.373-.778l5.201 4.965c6.277 5.991 16.11 5.991 22.386 0 6.078-5.802 16.871-17.614 37.476-22.102 4.048-.881 6.614-4.877 5.732-8.924-.881-4.047-4.879-6.613-8.924-5.732-14.834 3.23-28.473 10.473-39.44 20.943l-5.201 4.965c-.47.448-1.203.446-1.671 0l-5.201-4.964c-52.093-49.729-138.352-13.138-137.561 58.648-71.858-28.693-149.027 24.315-147.738 101.106.485 28.985 12.3 55.97 33.267 75.984l146.312 139.666c7.503 7.161 19.242 7.147 26.73 0l65.669-62.687c2.996-2.86 3.106-7.607.246-10.604-2.861-2.998-7.609-3.107-10.604-.246l-65.669 62.686c-1.688 1.61-4.33 1.61-6.016 0l-146.311-139.666c-18.042-17.222-28.209-40.443-28.627-65.385-1.163-69.523 71.902-115.306 134.797-83.485 3.518 15.356 11.523 29.357 22.973 40.285 1.76 1.679 104.466 99.721 107.381 102.502 6.274 5.989 16.102 5.988 22.375 0l68.297-65.195c1.295 26.621-8.89 52.502-28.559 71.278-1.33 1.27-26.024 24.843-55.31 52.798-2.996 2.86-3.106 7.608-.246 10.604 2.86 2.997 7.608 3.106 10.604.246 29.285-27.955 53.981-51.529 55.311-52.798 25.892-24.717 37.632-60.025 31.868-95.175l25.417-24.262c45.437-43.374 26.089-120.295-34.57-136.412-4.003-1.064-8.11 1.319-9.175 5.323-1.063 4.003 1.32 8.111 5.323 9.174 49.302 13.099 65.074 75.736 28.064 111.064-4.981 4.756-102.948 98.273-107.381 102.505z" />
</svg>