<svg height="512" viewBox="0 0 512 512" width="512" xmlns="http://www.w3.org/2000/svg">
    <g id="Baby_Lullaby" data-name="Baby Lullaby">
        <g id="Filled">
            <path
                d="m71.467 392 19.612 36.868 43.854 5.912-31.733 28.698 7.491 40.522-39.224-19.132-39.225 19.132 7.491-40.522-31.733-28.698 43.854-5.912z"
                fill="#ffd740" />
            <path
                d="m391.7 313.412c-24.665 0-44.66-19.173-44.66-42.824a41.776 41.776 0 0 1 12.595-29.788 56.748 56.748 0 0 0 -9.4-.8c-29.955 0-54.235 23.281-54.235 52s24.28 52 54.23 52c22.292 0 41.434-12.9 49.77-31.338a46.74 46.74 0 0 1 -8.3.75z"
                fill="#ff9e80" />
            <path
                d="m479.423 401.36a52.626 52.626 0 0 0 -51.69-41.36c-23.057 0-42.649 11.71-49.846 32-11.585 1.414-20.554 13.986-20.554 25.778 0 .246.011.489.019.733a23.869 23.869 0 0 0 -5.885-.733 23.114 23.114 0 1 0 0 46.222h120.266a31.731 31.731 0 0 0 7.69-62.64z"
                fill="#b2ebf2" />
            <path
                d="m232 56h48a48 48 0 0 1 48 48 0 0 0 0 1 0 0h-144a0 0 0 0 1 0 0 48 48 0 0 1 48-48z"
                fill="#c9b28f" />
            <circle cx="176" cy="312" fill="#ce93d8" r="40" />
            <path d="m196.292 277.533a47.973 47.973 0 0 1 -44.292 66.467 40 40 0 1 0 44.293-66.467z"
                fill="#c087cc" />
            <path
                d="m392.058 464h79.675a31.731 31.731 0 0 0 7.69-62.64 52.063 52.063 0 0 0 -23.423-33.284 104.027 104.027 0 0 1 -63.942 95.924z"
                fill="#8adfea" />
            <path d="m280 56h-.948a75.915 75.915 0 0 1 -28.43 48h77.378a48 48 0 0 0 -48-48z"
                fill="#c1a784" />
            <circle cx="212" cy="76" fill="#dbd0c1" r="12" />
            <circle cx="240" cy="88" fill="#dbd0c1" r="8" />
            <circle cx="156" cy="300" fill="#e2b9ea" r="12" />
            <circle cx="184" cy="312" fill="#e2b9ea" r="8" />
            <circle cx="316" cy="276" fill="#ffbdab" r="12" />
            <circle cx="336" cy="296" fill="#ffbdab" r="8" />
            <circle cx="348" cy="436" fill="#e0f7fa" r="12" />
            <circle cx="376" cy="448" fill="#e0f7fa" r="8" />
            <circle cx="44" cy="444" fill="#ffe7a4" r="12" />
            <circle cx="72" cy="456" fill="#ffe7a4" r="8" />
            <path
                d="m110.691 504-7.491-40.522 31.733-28.7-41.773-5.629a80.1 80.1 0 0 1 -57.5 56.382l-3.418 18.469 39.225-19.132z"
                fill="#ffc400" />
            <path
                d="m391.7 313.412a45.046 45.046 0 0 1 -38.3-20.791 84.284 84.284 0 0 1 -36.228 40.59 55.49 55.49 0 0 0 33.058 10.789c22.292 0 41.434-12.9 49.77-31.338a46.74 46.74 0 0 1 -8.3.75z"
                fill="#ff8b6c" />
        </g>
        <g id="Outline">
            <path
                d="m136 426.852-39.787-5.364-16.213-30.481v-55.007a8 8 0 0 0 -16 0v53l-17.281 32.488-39.788 5.364a8 8 0 0 0 -4.3 13.862l28.421 25.7-6.68 36.131a8 8 0 0 0 11.374 8.644l35.718-17.421 35.718 17.421a8 8 0 0 0 11.373-8.644l-6.679-36.131 28.42-25.7a8 8 0 0 0 -4.3-13.862zm-38.166 30.692a8 8 0 0 0 -2.5 7.388l4.608 24.923-24.968-12.177a8 8 0 0 0 -7.014 0l-24.967 12.177 4.607-24.923a8 8 0 0 0 -2.5-7.388l-18.952-17.138 26.775-3.606a8 8 0 0 0 5.994-4.172l12.55-23.591 12.549 23.591a8 8 0 0 0 5.994 4.172l26.775 3.609z" />
            <path
                d="m407.29 315.958a8 8 0 0 0 -8.707-11.169 39.03 39.03 0 0 1 -6.883.623c-20.214 0-36.66-15.622-36.66-34.824a33.751 33.751 0 0 1 10.222-24.105 8 8 0 0 0 -4.3-13.577 65.008 65.008 0 0 0 -10.732-.906c-34.313 0-62.23 26.916-62.23 60s27.917 60 62.23 60c24.762 0 47.159-14.147 57.06-36.042zm-103.29-23.958c0-22.358 17.613-40.876 40.328-43.644a49.157 49.157 0 0 0 -5.288 22.232c0 25.835 20.074 47.229 45.96 50.415a47.229 47.229 0 0 1 -34.77 15c-25.491-.003-46.23-19.741-46.23-44.003z" />
            <path
                d="m486.063 395.041a60.657 60.657 0 0 0 -38.063-39.568v-35.473a8 8 0 0 0 -16 0v32.16c-1.413-.1-2.834-.16-4.267-.16-25.5 0-46.393 12.539-55.656 33.032q-.228.129-.446.271c-10.182 3.522-18.547 13.215-21.318 24.5a31.107 31.107 0 0 0 1.154 62.2h120.266c22.2 0 40.267-17.844 40.267-39.777a39.676 39.676 0 0 0 -25.937-37.185zm-14.33 60.959h-120.266a15.116 15.116 0 1 1 0-30.223 15.847 15.847 0 0 1 3.912.488 8 8 0 0 0 9.969-8.008l-.006-.18c0-.1-.009-.2-.009-.3 0-8.07 6.187-16.447 12.9-17.716 12.606.658 13.685 6.868 13.77 8.168a1.978 1.978 0 0 1 0-.229h16c0-6.515-4.124-17.583-18.132-22.046 7.738-11.265 21.474-17.954 37.862-17.954 21.132 0 39.579 14.726 43.862 35.013a8 8 0 0 0 5.955 6.125 23.81 23.81 0 0 1 18.45 23.085c0 13.111-10.886 23.777-24.267 23.777z" />
            <path
                d="m176 264a48 48 0 0 0 -8 95.321v24.679a8 8 0 0 0 16 0v-24.679a48 48 0 0 0 -8-95.321zm0 80a32 32 0 1 1 32-32 32.036 32.036 0 0 1 -32 32z" />
            <path
                d="m328 176v32a8 8 0 0 0 16 0v-32a79.928 79.928 0 0 0 -32.055-64h8.055a112.127 112.127 0 0 1 112 112 8 8 0 0 0 16 0c0-65.319-49.183-119.361-112.46-127.055a56.071 56.071 0 0 0 -55.54-48.945h-16v-32h16a8 8 0 0 0 0-16h-48a8 8 0 0 0 0 16h16v32h-16a56.072 56.072 0 0 0 -55.554 49.053c-28.093 3.817-54.357 17.929-75.2 40.691-23.67 25.856-37.246 60.206-37.246 94.256v40a8 8 0 0 0 16 0v-40c0-63.925 52.336-120 112-120h8.055a79.928 79.928 0 0 0 -32.055 64h-16a8 8 0 0 0 0 16h16v16h-16a8 8 0 0 0 0 16h16v16a8 8 0 0 0 16 0v-16h16a8 8 0 0 0 0-16h-16v-16h16a8 8 0 0 0 0-16h-16a64.072 64.072 0 0 1 64-64v56a8 8 0 0 0 16 0v-56a64.072 64.072 0 0 1 64 64zm-135.2-80a40.071 40.071 0 0 1 39.2-32h48a40.071 40.071 0 0 1 39.2 32z" />
            <circle cx="176" cy="416" r="8" />
            <circle cx="176" cy="448" r="8" />
            <circle cx="256" cy="200" r="8" />
            <circle cx="256" cy="232" r="8" />
            <path d="m256 256a8 8 0 0 0 -8 8v152a8 8 0 0 0 16 0v-152a8 8 0 0 0 -8-8z" />
            <circle cx="256" cy="448" r="8" />
            <circle cx="256" cy="480" r="8" />
            <circle cx="440" cy="256" r="8" />
            <circle cx="440" cy="288" r="8" />
            <circle cx="72" cy="304" r="8" />
        </g>
    </g>
</svg>