<svg id="Capa_1" enable-background="new 0 0 490 490" height="512" viewBox="0 0 490 490" width="512"
    xmlns="http://www.w3.org/2000/svg">
    <g>
        <path
            d="m490 245c0 30.91-5.73 60.49-16.18 87.73-1.48 3.87-3.06 7.68-4.73 11.45-1.63 3.67-3.34 7.28-5.13 10.85-4.16 8.26-8.76 16.24-13.79 23.92-2.13 3.26-4.34 6.47-6.64 9.63-6.87 9.49-14.41 18.47-22.55 26.87-3.81 3.94-7.77 7.76-11.84 11.44-3.18 2.87-6.44 5.66-9.77 8.36-2.9 2.37-5.87 4.66-8.88 6.89-40.69 30.08-91.01 47.86-145.49 47.86-53.21 0-102.45-16.96-142.62-45.77-6.39-4.58-12.56-9.47-18.47-14.64-5.16-4.5-10.13-9.22-14.88-14.14-6.25-6.44-12.14-13.24-17.66-20.34-3.49-4.5-6.84-9.13-10.01-13.88-3.52-5.23-6.83-10.61-9.94-16.12-.07-.13-.15-.27-.22-.4-2.79-4.96-5.41-10.03-7.84-15.2-.29-.58-.56-1.16-.83-1.75-1.32-2.85-2.58-5.73-3.8-8.63-12.06-28.98-18.73-60.78-18.73-94.13 0-37.07 8.24-72.23 22.98-103.73 39.06-83.46 123.79-141.27 222.02-141.27s182.96 57.81 222.02 141.27c14.74 31.5 22.98 66.66 22.98 103.73z"
            fill="#6184c7" />
        <path
            d="m490 245c0 30.91-5.73 60.49-16.18 87.73-1.48 3.87-3.06 7.68-4.73 11.45-1.63 3.67-3.34 7.28-5.13 10.85-4.16 8.26-8.76 16.24-13.79 23.92-2.13 3.26-4.34 6.47-6.64 9.63-6.87 9.49-14.41 18.47-22.55 26.87-3.81 3.94-7.77 7.76-11.84 11.44-3.18 2.87-6.44 5.66-9.77 8.36-2.9 2.37-5.87 4.66-8.88 6.89-40.69 30.08-91.01 47.86-145.49 47.86-53.21 0-102.45-16.96-142.62-45.77-6.39-4.58-12.56-9.47-18.47-14.64-5.16-4.5-10.13-9.22-14.88-14.14-6.25-6.44-12.14-13.24-17.66-20.34-3.49-4.5-6.84-9.13-10.01-13.88-3.52-5.23-6.83-10.61-9.94-16.12-.07-.13-.15-.27-.22-.4-2.79-4.96-5.41-10.03-7.84-15.2-.29-.58-.56-1.16-.83-1.75-1.32-2.85-2.58-5.73-3.8-8.63-12.06-28.98-18.73-60.78-18.73-94.13 0-37.07 8.24-72.23 22.98-103.73h444.04c14.74 31.5 22.98 66.66 22.98 103.73z"
            fill="#3b494d" />
        <g>
            <path
                d="m68.549 177.787c-28.721 0-52.004-23.283-52.004-52.004v-40.185c0-14.675 11.897-26.572 26.572-26.572h50.865c14.675 0 26.572 11.897 26.572 26.572v40.185c-.001 28.721-23.284 52.004-52.005 52.004z"
                fill="#edbba7" />
            <path
                d="m75.988 177.256c-2.43.351-4.91.529-7.437.529-28.723 0-52.007-23.279-52.007-52.001v-45.487l14.88-21.27v66.757c0 26.195 19.368 47.864 44.564 51.472z"
                fill="#dba290" />
            <path
                d="m120.506 74.465c0-26.183-21.225-47.408-47.408-47.408h-9.145c-26.183 0-47.408 21.225-47.408 47.408v33.563c8.094 0 14.656-6.562 14.656-14.656v-18.907h74.696v18.907c0 8.094 6.562 14.656 14.656 14.656v-33.563z"
                fill="#db2b51" />
            <g fill="#2d2636">
                <path
                    d="m89.437 136.489c0 .19 0 .38-.012.57-.055 2.254-.478 4.423-1.201 6.438-.79 2.236-1.954 4.288-3.412 6.095-.643.802-1.348 1.556-2.101 2.242-3.724 3.449-8.698 5.544-14.162 5.544s-10.438-2.095-14.162-5.544c-.753-.686-1.458-1.439-2.101-2.242-1.458-1.807-2.622-3.859-3.412-6.095-.723-2.015-1.145-4.184-1.201-6.438-.012-.19-.012-.38-.012-.57z" />
                <g>
                    <path
                        d="m45.961 99.901c3.129 0 5.666 2.537 5.666 5.666v8.882c0 3.129-2.537 5.666-5.666 5.666-3.129 0-5.666-2.537-5.666-5.666v-8.882c-.001-3.129 2.536-5.666 5.666-5.666z" />
                    <path
                        d="m91.137 99.901c3.129 0 5.666 2.537 5.666 5.666v8.882c0 3.129-2.537 5.666-5.666 5.666-3.129 0-5.666-2.537-5.666-5.666v-8.882c-.001-3.129 2.536-5.666 5.666-5.666z" />
                </g>
            </g>
        </g>
        <g>
            <path
                d="m187.902 177.787c-28.721 0-52.004-23.283-52.004-52.004v-40.185c0-14.675 11.897-26.572 26.572-26.572h50.865c14.675 0 26.572 11.897 26.572 26.572v40.185c-.001 28.721-23.284 52.004-52.005 52.004z"
                fill="#edbba7" />
            <path
                d="m195.342 177.256c-2.43.351-4.91.529-7.437.529-28.723 0-52.007-23.279-52.007-52.001v-45.487l14.88-21.27v66.757c-.001 26.195 19.368 47.864 44.564 51.472z"
                fill="#dba290" />
            <path
                d="m239.859 74.465c0-26.183-21.225-47.408-47.408-47.408h-9.145c-26.183 0-47.408 21.225-47.408 47.408v33.563c8.094 0 14.656-6.562 14.656-14.656v-18.907h74.696v18.907c0 8.094 6.562 14.656 14.656 14.656v-33.563z"
                fill="#3b494d" />
            <g fill="#2d2636">
                <path
                    d="m208.79 136.489c0 .19 0 .38-.012.57-.055 2.254-.478 4.423-1.201 6.438-.79 2.236-1.954 4.288-3.412 6.095-.643.802-1.348 1.556-2.101 2.242-3.724 3.449-8.698 5.544-14.162 5.544s-10.438-2.095-14.162-5.544c-.753-.686-1.458-1.439-2.101-2.242-1.458-1.807-2.622-3.859-3.412-6.095-.723-2.015-1.145-4.184-1.201-6.438-.012-.19-.012-.38-.012-.57z" />
                <g>
                    <path
                        d="m165.314 99.901c3.129 0 5.666 2.537 5.666 5.666v8.882c0 3.129-2.537 5.666-5.666 5.666-3.129 0-5.666-2.537-5.666-5.666v-8.882c0-3.129 2.536-5.666 5.666-5.666z" />
                    <path
                        d="m210.49 99.901c3.129 0 5.666 2.537 5.666 5.666v8.882c0 3.129-2.537 5.666-5.666 5.666-3.129 0-5.666-2.537-5.666-5.666v-8.882c0-3.129 2.536-5.666 5.666-5.666z" />
                </g>
            </g>
        </g>
        <g>
            <path
                d="m307.255 177.787c-28.721 0-52.004-23.283-52.004-52.004v-40.185c0-14.675 11.897-26.572 26.572-26.572h50.865c14.675 0 26.572 11.897 26.572 26.572v40.185c-.001 28.721-23.284 52.004-52.005 52.004z"
                fill="#edbba7" />
            <path
                d="m314.695 177.256c-2.43.351-4.91.529-7.437.529-28.723 0-52.007-23.279-52.007-52.001v-45.487l14.88-21.27v66.757c-.001 26.195 19.368 47.864 44.564 51.472z"
                fill="#dba290" />
            <path
                d="m359.213 74.465c0-26.183-21.225-47.408-47.408-47.408h-9.145c-26.183 0-47.408 21.225-47.408 47.408v33.563c8.094 0 14.656-6.562 14.656-14.656v-18.907h74.696v18.907c0 8.094 6.562 14.656 14.656 14.656v-33.563z"
                fill="#e7c837" />
            <g fill="#2d2636">
                <path
                    d="m328.143 136.489c0 .19 0 .38-.012.57-.055 2.254-.478 4.423-1.201 6.438-.79 2.236-1.954 4.288-3.412 6.095-.643.802-1.348 1.556-2.101 2.242-3.724 3.449-8.698 5.544-14.162 5.544s-10.438-2.095-14.162-5.544c-.753-.686-1.458-1.439-2.101-2.242-1.458-1.807-2.622-3.859-3.412-6.095-.723-2.015-1.145-4.184-1.201-6.438-.012-.19-.012-.38-.012-.57z" />
                <g>
                    <path
                        d="m284.667 99.901c3.129 0 5.666 2.537 5.666 5.666v8.882c0 3.129-2.537 5.666-5.666 5.666-3.129 0-5.666-2.537-5.666-5.666v-8.882c0-3.129 2.536-5.666 5.666-5.666z" />
                    <path
                        d="m329.843 99.901c3.129 0 5.666 2.537 5.666 5.666v8.882c0 3.129-2.537 5.666-5.666 5.666-3.129 0-5.666-2.537-5.666-5.666v-8.882c0-3.129 2.537-5.666 5.666-5.666z" />
                </g>
            </g>
        </g>
        <g>
            <path
                d="m426.608 177.787c-28.721 0-52.004-23.283-52.004-52.004v-40.185c0-14.675 11.897-26.572 26.572-26.572h50.865c14.675 0 26.572 11.897 26.572 26.572v40.185c-.001 28.721-23.284 52.004-52.005 52.004z"
                fill="#edbba7" />
            <path
                d="m434.048 177.256c-2.43.351-4.91.529-7.437.529-28.723 0-52.007-23.279-52.007-52.001v-45.487l14.88-21.27v66.757c0 26.195 19.368 47.864 44.564 51.472z"
                fill="#dba290" />
            <path
                d="m478.566 74.465c0-26.183-21.225-47.408-47.408-47.408h-9.145c-26.183 0-47.408 21.225-47.408 47.408v33.563c8.094 0 14.656-6.562 14.656-14.656v-18.907h74.696v18.907c0 8.094 6.562 14.656 14.656 14.656v-33.563z"
                fill="#3b494d" />
            <g fill="#2d2636">
                <path
                    d="m447.496 136.489c0 .19 0 .38-.012.57-.055 2.254-.478 4.423-1.201 6.438-.79 2.236-1.954 4.288-3.412 6.095-.643.802-1.348 1.556-2.101 2.242-3.724 3.449-8.698 5.544-14.162 5.544s-10.438-2.095-14.162-5.544c-.753-.686-1.458-1.439-2.101-2.242-1.458-1.807-2.622-3.859-3.412-6.095-.723-2.015-1.145-4.184-1.201-6.438-.012-.19-.012-.38-.012-.57z" />
                <g>
                    <path
                        d="m404.02 99.901c3.129 0 5.666 2.537 5.666 5.666v8.882c0 3.129-2.537 5.666-5.666 5.666-3.129 0-5.666-2.537-5.666-5.666v-8.882c0-3.129 2.537-5.666 5.666-5.666z" />
                    <path
                        d="m449.196 99.901c3.129 0 5.666 2.537 5.666 5.666v8.882c0 3.129-2.537 5.666-5.666 5.666-3.129 0-5.666-2.537-5.666-5.666v-8.882c0-3.129 2.537-5.666 5.666-5.666z" />
                </g>
            </g>
        </g>
        <g>
            <path
                d="m68.549 315.784c-28.721 0-52.004-23.283-52.004-52.004v-40.185c0-14.675 11.897-26.572 26.572-26.572h50.865c14.675 0 26.572 11.897 26.572 26.572v40.185c-.001 28.721-23.284 52.004-52.005 52.004z"
                fill="#edbba7" />
            <path
                d="m75.988 315.252c-2.43.351-4.91.529-7.437.529-28.723 0-52.007-23.279-52.007-52.001v-45.487l14.88-21.27v66.757c0 26.195 19.368 47.864 44.564 51.472z"
                fill="#dba290" />
            <g fill="#2d2636">
                <path
                    d="m120.506 212.461c0-26.183-21.225-47.408-47.408-47.408h-9.145c-26.183 0-47.408 21.225-47.408 47.408v33.563c8.094 0 14.656-6.562 14.656-14.656v-18.907h74.696v18.907c0 8.094 6.562 14.656 14.656 14.656v-33.563z" />
                <path
                    d="m89.437 274.485c0 .19 0 .38-.012.57-.055 2.254-.478 4.423-1.201 6.438-.79 2.236-1.954 4.288-3.412 6.095-.643.802-1.348 1.556-2.101 2.242-3.724 3.449-8.698 5.544-14.162 5.544s-10.438-2.095-14.162-5.544c-.753-.686-1.458-1.439-2.101-2.242-1.458-1.807-2.622-3.859-3.412-6.095-.723-2.015-1.145-4.184-1.201-6.438-.012-.19-.012-.38-.012-.57z" />
                <g>
                    <path
                        d="m45.961 237.897c3.129 0 5.666 2.537 5.666 5.666v8.882c0 3.129-2.537 5.666-5.666 5.666-3.129 0-5.666-2.537-5.666-5.666v-8.882c-.001-3.129 2.536-5.666 5.666-5.666z" />
                    <path
                        d="m91.137 237.897c3.129 0 5.666 2.537 5.666 5.666v8.882c0 3.129-2.537 5.666-5.666 5.666-3.129 0-5.666-2.537-5.666-5.666v-8.882c-.001-3.129 2.536-5.666 5.666-5.666z" />
                </g>
            </g>
        </g>
        <g>
            <path
                d="m187.902 315.784c-28.721 0-52.004-23.283-52.004-52.004v-40.185c0-14.675 11.897-26.572 26.572-26.572h50.865c14.675 0 26.572 11.897 26.572 26.572v40.185c-.001 28.721-23.284 52.004-52.005 52.004z"
                fill="#edbba7" />
            <path
                d="m195.342 315.252c-2.43.351-4.91.529-7.437.529-28.723 0-52.007-23.279-52.007-52.001v-45.487l14.88-21.27v66.757c-.001 26.195 19.368 47.864 44.564 51.472z"
                fill="#dba290" />
            <path
                d="m239.859 212.461c0-26.183-21.225-47.408-47.408-47.408h-9.145c-26.183 0-47.408 21.225-47.408 47.408v33.563c8.094 0 14.656-6.562 14.656-14.656v-18.907h74.696v18.907c0 8.094 6.562 14.656 14.656 14.656v-33.563z"
                fill="#db2b51" />
            <g fill="#2d2636">
                <path
                    d="m208.79 274.485c0 .19 0 .38-.012.57-.055 2.254-.478 4.423-1.201 6.438-.79 2.236-1.954 4.288-3.412 6.095-.643.802-1.348 1.556-2.101 2.242-3.724 3.449-8.698 5.544-14.162 5.544s-10.438-2.095-14.162-5.544c-.753-.686-1.458-1.439-2.101-2.242-1.458-1.807-2.622-3.859-3.412-6.095-.723-2.015-1.145-4.184-1.201-6.438-.012-.19-.012-.38-.012-.57z" />
                <g>
                    <path
                        d="m165.314 237.897c3.129 0 5.666 2.537 5.666 5.666v8.882c0 3.129-2.537 5.666-5.666 5.666-3.129 0-5.666-2.537-5.666-5.666v-8.882c0-3.129 2.536-5.666 5.666-5.666z" />
                    <path
                        d="m210.49 237.897c3.129 0 5.666 2.537 5.666 5.666v8.882c0 3.129-2.537 5.666-5.666 5.666-3.129 0-5.666-2.537-5.666-5.666v-8.882c0-3.129 2.536-5.666 5.666-5.666z" />
                </g>
            </g>
        </g>
        <g>
            <path
                d="m307.255 315.784c-28.721 0-52.004-23.283-52.004-52.004v-40.185c0-14.675 11.897-26.572 26.572-26.572h50.865c14.675 0 26.572 11.897 26.572 26.572v40.185c-.001 28.721-23.284 52.004-52.005 52.004z"
                fill="#edbba7" />
            <path
                d="m314.695 315.252c-2.43.351-4.91.529-7.437.529-28.723 0-52.007-23.279-52.007-52.001v-45.487l14.88-21.27v66.757c-.001 26.195 19.368 47.864 44.564 51.472z"
                fill="#dba290" />
            <g fill="#2d2636">
                <path
                    d="m359.213 212.461c0-26.183-21.225-47.408-47.408-47.408h-9.145c-26.183 0-47.408 21.225-47.408 47.408v33.563c8.094 0 14.656-6.562 14.656-14.656v-18.907h74.696v18.907c0 8.094 6.562 14.656 14.656 14.656v-33.563z" />
                <path
                    d="m328.143 274.485c0 .19 0 .38-.012.57-.055 2.254-.478 4.423-1.201 6.438-.79 2.236-1.954 4.288-3.412 6.095-.643.802-1.348 1.556-2.101 2.242-3.724 3.449-8.698 5.544-14.162 5.544s-10.438-2.095-14.162-5.544c-.753-.686-1.458-1.439-2.101-2.242-1.458-1.807-2.622-3.859-3.412-6.095-.723-2.015-1.145-4.184-1.201-6.438-.012-.19-.012-.38-.012-.57z" />
                <g>
                    <path
                        d="m284.667 237.897c3.129 0 5.666 2.537 5.666 5.666v8.882c0 3.129-2.537 5.666-5.666 5.666-3.129 0-5.666-2.537-5.666-5.666v-8.882c0-3.129 2.536-5.666 5.666-5.666z" />
                    <path
                        d="m329.843 237.897c3.129 0 5.666 2.537 5.666 5.666v8.882c0 3.129-2.537 5.666-5.666 5.666-3.129 0-5.666-2.537-5.666-5.666v-8.882c0-3.129 2.537-5.666 5.666-5.666z" />
                </g>
            </g>
        </g>
        <g>
            <path
                d="m426.608 315.784c-28.721 0-52.004-23.283-52.004-52.004v-40.185c0-14.675 11.897-26.572 26.572-26.572h50.865c14.675 0 26.572 11.897 26.572 26.572v40.185c-.001 28.721-23.284 52.004-52.005 52.004z"
                fill="#edbba7" />
            <path
                d="m434.048 315.252c-2.43.351-4.91.529-7.437.529-28.723 0-52.007-23.279-52.007-52.001v-45.487l14.88-21.27v66.757c0 26.195 19.368 47.864 44.564 51.472z"
                fill="#dba290" />
            <path
                d="m478.566 212.461c0-26.183-21.225-47.408-47.408-47.408h-9.145c-26.183 0-47.408 21.225-47.408 47.408v33.563c8.094 0 14.656-6.562 14.656-14.656v-18.907h74.696v18.907c0 8.094 6.562 14.656 14.656 14.656v-33.563z"
                fill="#6184c7" />
            <g fill="#2d2636">
                <path
                    d="m447.496 274.485c0 .19 0 .38-.012.57-.055 2.254-.478 4.423-1.201 6.438-.79 2.236-1.954 4.288-3.412 6.095-.643.802-1.348 1.556-2.101 2.242-3.724 3.449-8.698 5.544-14.162 5.544s-10.438-2.095-14.162-5.544c-.753-.686-1.458-1.439-2.101-2.242-1.458-1.807-2.622-3.859-3.412-6.095-.723-2.015-1.145-4.184-1.201-6.438-.012-.19-.012-.38-.012-.57z" />
                <g>
                    <path
                        d="m404.02 237.897c3.129 0 5.666 2.537 5.666 5.666v8.882c0 3.129-2.537 5.666-5.666 5.666-3.129 0-5.666-2.537-5.666-5.666v-8.882c0-3.129 2.537-5.666 5.666-5.666z" />
                    <path
                        d="m449.196 237.897c3.129 0 5.666 2.537 5.666 5.666v8.882c0 3.129-2.537 5.666-5.666 5.666-3.129 0-5.666-2.537-5.666-5.666v-8.882c0-3.129 2.537-5.666 5.666-5.666z" />
                </g>
            </g>
        </g>
        <g>
            <path
                d="m120.55 364.56v40.18c0 15.8-7.05 29.95-18.17 39.49-34.28-24.58-61.96-57.8-79.85-96.47 4.87-5.97 12.28-9.78 20.59-9.78h50.86c14.68 0 26.57 11.9 26.57 26.58z"
                fill="#edbba7" />
            <path d="m31.42 337.98v27.13c-2.87-5.09-5.56-10.29-8.06-15.6z" fill="#dba290" />
            <path
                d="m120.55 353.42v33.57c-8.09 0-14.65-6.57-14.65-14.66v-18.91h-74.7v11.29c-2.79-4.96-5.41-10.03-7.84-15.2-.29-.58-.56-1.16-.83-1.75-1.32-2.85-2.58-5.73-3.8-8.63 6.06-19.2 24.02-33.12 45.22-33.12h9.15c26.18 0 47.41 21.23 47.41 47.41z"
                fill="#6184c7" />
            <g fill="#2d2636">
                <path
                    d="m89.44 415.45c0 .19 0 .38-.02.57-.05 2.25-.47 4.42-1.2 6.43-.79 2.24-1.95 4.29-3.41 6.1-.29.36-.59.71-.9 1.04-5.16-4.5-10.13-9.22-14.88-14.14z" />
                <g>
                    <path
                        d="m51.63 384.52v8.89c0 .59-.09 1.16-.26 1.7-3.49-4.5-6.84-9.13-10.01-13.88 1.02-1.44 2.7-2.37 4.6-2.37 3.13 0 5.67 2.54 5.67 5.66z" />
                    <path
                        d="m91.137 378.859c3.129 0 5.666 2.537 5.666 5.666v8.882c0 3.129-2.537 5.666-5.666 5.666-3.129 0-5.666-2.537-5.666-5.666v-8.882c-.001-3.13 2.536-5.666 5.666-5.666z" />
                </g>
            </g>
        </g>
        <g>
            <path
                d="m187.902 456.745c-28.721 0-52.004-23.283-52.004-52.004v-40.185c0-14.675 11.897-26.572 26.572-26.572h50.865c14.675 0 26.572 11.897 26.572 26.572v40.185c-.001 28.721-23.284 52.004-52.005 52.004z"
                fill="#edbba7" />
            <path
                d="m195.342 456.213c-2.43.351-4.91.529-7.437.529-28.723 0-52.007-23.279-52.007-52.001v-45.487l14.88-21.27v66.757c-.001 26.195 19.368 47.864 44.564 51.472z"
                fill="#dba290" />
            <path
                d="m239.859 353.423c0-26.183-21.225-47.408-47.408-47.408h-9.145c-26.183 0-47.408 21.225-47.408 47.408v33.563c8.094 0 14.656-6.562 14.656-14.656v-18.907h74.696v18.907c0 8.094 6.562 14.656 14.656 14.656v-33.563z"
                fill="#9fd3e6" />
            <g fill="#2d2636">
                <path
                    d="m208.79 415.446c0 .19 0 .38-.012.57-.055 2.254-.478 4.423-1.201 6.438-.79 2.236-1.954 4.288-3.412 6.095-.643.802-1.348 1.556-2.101 2.242-3.724 3.449-8.698 5.544-14.162 5.544s-10.438-2.095-14.162-5.544c-.753-.686-1.458-1.439-2.101-2.242-1.458-1.807-2.622-3.859-3.412-6.095-.723-2.015-1.145-4.184-1.201-6.438-.012-.19-.012-.38-.012-.57z" />
                <g>
                    <path
                        d="m165.314 378.859c3.129 0 5.666 2.537 5.666 5.666v8.882c0 3.129-2.537 5.666-5.666 5.666-3.129 0-5.666-2.537-5.666-5.666v-8.882c0-3.13 2.536-5.666 5.666-5.666z" />
                    <path
                        d="m210.49 378.859c3.129 0 5.666 2.537 5.666 5.666v8.882c0 3.129-2.537 5.666-5.666 5.666-3.129 0-5.666-2.537-5.666-5.666v-8.882c0-3.13 2.536-5.666 5.666-5.666z" />
                </g>
            </g>
        </g>
        <g>
            <path
                d="m307.255 456.745c-28.721 0-52.004-23.283-52.004-52.004v-40.185c0-14.675 11.897-26.572 26.572-26.572h50.865c14.675 0 26.572 11.897 26.572 26.572v40.185c-.001 28.721-23.284 52.004-52.005 52.004z"
                fill="#edbba7" />
            <path
                d="m314.695 456.213c-2.43.351-4.91.529-7.437.529-28.723 0-52.007-23.279-52.007-52.001v-45.487l14.88-21.27v66.757c-.001 26.195 19.368 47.864 44.564 51.472z"
                fill="#dba290" />
            <g fill="#2d2636">
                <path
                    d="m359.213 353.423c0-26.183-21.225-47.408-47.408-47.408h-9.145c-26.183 0-47.408 21.225-47.408 47.408v33.563c8.094 0 14.656-6.562 14.656-14.656v-18.907h74.696v18.907c0 8.094 6.562 14.656 14.656 14.656v-33.563z" />
                <path
                    d="m328.143 415.446c0 .19 0 .38-.012.57-.055 2.254-.478 4.423-1.201 6.438-.79 2.236-1.954 4.288-3.412 6.095-.643.802-1.348 1.556-2.101 2.242-3.724 3.449-8.698 5.544-14.162 5.544s-10.438-2.095-14.162-5.544c-.753-.686-1.458-1.439-2.101-2.242-1.458-1.807-2.622-3.859-3.412-6.095-.723-2.015-1.145-4.184-1.201-6.438-.012-.19-.012-.38-.012-.57z" />
                <g>
                    <path
                        d="m284.667 378.859c3.129 0 5.666 2.537 5.666 5.666v8.882c0 3.129-2.537 5.666-5.666 5.666-3.129 0-5.666-2.537-5.666-5.666v-8.882c0-3.13 2.536-5.666 5.666-5.666z" />
                    <path
                        d="m329.843 378.859c3.129 0 5.666 2.537 5.666 5.666v8.882c0 3.129-2.537 5.666-5.666 5.666-3.129 0-5.666-2.537-5.666-5.666v-8.882c0-3.13 2.537-5.666 5.666-5.666z" />
                </g>
            </g>
        </g>
        <g>
            <path
                d="m469.09 344.18c-17.33 39.11-44.6 72.83-78.6 97.96-9.8-9.45-15.89-22.71-15.89-37.4v-40.18c0-14.68 11.9-26.58 26.58-26.58h50.86c6.49 0 12.44 2.32 17.05 6.2z"
                fill="#edbba7" />
            <path
                d="m399.37 435.25c-2.9 2.37-5.87 4.66-8.88 6.89-9.8-9.45-15.89-22.71-15.89-37.4v-45.49l14.88-21.27v66.76c0 11.4 3.67 21.95 9.89 30.51z"
                fill="#dba290" />
            <path
                d="m473.82 332.73c-1.48 3.87-3.06 7.68-4.73 11.45-1.63 3.67-3.34 7.28-5.13 10.85v-1.61h-74.7v18.91c0 8.09-6.56 14.66-14.66 14.66v-33.57c0-26.18 21.23-47.41 47.41-47.41h9.15c18.76 0 34.98 10.9 42.66 26.72z"
                fill="#e7c837" />
            <g fill="#2d2636">
                <path
                    d="m420.98 415.45c-3.81 3.94-7.77 7.76-11.84 11.44-.91-1.37-1.65-2.86-2.21-4.44-.72-2.01-1.14-4.18-1.2-6.43-.01-.19-.01-.38-.01-.57z" />
                <g>
                    <path
                        d="m404.02 378.859c3.129 0 5.666 2.537 5.666 5.666v8.882c0 3.129-2.537 5.666-5.666 5.666-3.129 0-5.666-2.537-5.666-5.666v-8.882c0-3.13 2.537-5.666 5.666-5.666z" />
                    <path
                        d="m450.17 378.95c-2.13 3.26-4.34 6.47-6.64 9.63v-4.06c0-3.12 2.54-5.66 5.67-5.66.33 0 .66.03.97.09z" />
                </g>
            </g>
        </g>
    </g>
</svg>