<svg id="Capa_1" enable-background="new 0 0 512 512" height="512" viewBox="0 0 512 512" width="512"
    xmlns="http://www.w3.org/2000/svg">
    <g>
        <g>
            <path
                d="m121.493 29.438-65.642-9.394c-26.704 0-48.351 21.648-48.351 48.351 0 3.224.316 6.374.917 9.422 1.664 8.423 9.169 14.423 17.755 14.423h119.352z"
                fill="#dededc" />
            <path
                d="m55.851 20.044c26.703 0 48.351 21.647 48.351 48.351v375.21c0 26.703 21.647 48.351 48.351 48.351l275.312-48.351v-375.21c0-26.703-21.647-48.351-48.351-48.351z"
                fill="#ececec" />
            <path d="m152.553 491.956v-7.708l14.297-1.749 4.809 7.87-13.343 1.432-4.276.155z"
                fill="#ececec" />
            <path
                d="m464.642 442.288c-.336-12.557-10.691-22.528-23.252-22.528h-217.344c-12.956 0-23.211 10.629-23.143 23.585.001.087.001.173.001.26 0 26.703-21.647 48.351-48.351 48.351h262.889c26.921 0 49.539-22.027 49.214-48.946-.003-.241-.008-.482-.014-.722z"
                fill="#dededc" />
            <path
                d="m427.864 116.598c-25.209 11.759-49.411 28.838-70.89 50.316-43.494 43.494-69.142 99.313-68.608 149.316l.262 24.471 24.471.261c.512.005 1.545.008 1.548.008 37.066 0 77.309-14.352 113.218-39.559v-184.813z"
                fill="#dededc" />
            <path
                d="m483.507 125.064c-36.242 5.882-75.651 26.324-108.855 59.527-40.237 40.237-61.733 89.588-61.288 131.372 41.784.446 91.135-21.05 131.372-61.288 33.203-33.203 53.645-72.613 59.527-108.855 1.967-12.119-8.636-22.722-20.756-20.756z"
                fill="#e4996d" />
        </g>
        <g>
            <path
                d="m184.472 107.264c4.142 0 7.5-3.358 7.5-7.5 0-4.918 4.001-8.919 8.919-8.919s8.919 4.001 8.919 8.919c0 4.141 3.358 7.5 7.5 7.5s7.5-3.358 7.5-7.5c0-13.188-10.73-23.918-23.918-23.918s-23.918 10.73-23.918 23.918c-.002 4.141 3.356 7.5 7.498 7.5z" />
            <path
                d="m338.732 99.764c0-4.918 4.001-8.919 8.918-8.919 4.918 0 8.919 4.001 8.919 8.919 0 4.141 3.358 7.5 7.5 7.5s7.5-3.358 7.5-7.5c0-13.188-10.73-23.918-23.918-23.918s-23.917 10.73-23.917 23.918c0 4.141 3.358 7.5 7.5 7.5s7.498-3.359 7.498-7.5z" />
            <path
                d="m297.34 123.881c2.721-3.122 2.396-7.86-.727-10.581-3.123-2.722-7.86-2.396-10.582.727-6.231 7.149-17.299 7.141-23.523 0-2.722-3.123-7.459-3.448-10.582-.727-3.122 2.721-3.448 7.459-.727 10.581 12.21 14.008 33.945 13.994 46.141 0z" />
            <path
                d="m233.851 369.17c4.142 0 7.5-3.358 7.5-7.5s-3.358-7.5-7.5-7.5h-49.379c-4.142 0-7.5 3.357-7.5 7.5 0 4.141 3.358 7.5 7.5 7.5z" />
            <path
                d="m482.303 117.668c-15.707 2.549-31.507 7.551-46.94 14.737v-64.002c0-30.795-25.054-55.849-55.848-55.849h-323.648c-35.062 0-61.624 32.12-54.789 66.724 2.343 11.86 12.904 20.468 25.112 20.468h70.527v214.249c0 4.142 3.358 7.5 7.5 7.5s7.5-3.358 7.5-7.5c.214-271.48-.021-249.434-.512-253.024-1.753-13.116-8.058-24.812-17.29-33.418h285.603c22.524 0 40.849 18.325 40.849 40.849v71.738c-20.066 11.386-38.28 25.953-53.942 42.143h-181.953c-4.142 0-7.5 3.358-7.5 7.5s3.358 7.5 7.5 7.5h168.58c-8.228 10.021-15.511 20.497-21.73 31.23h-146.85c-4.142 0-7.5 3.358-7.5 7.5s3.358 7.5 7.5 7.5h138.932c-4.903 10.242-8.754 20.24-11.806 31.229h-127.126c-4.142 0-7.5 3.358-7.5 7.5s3.358 7.5 7.5 7.5h123.682c-1.396 7.795-2.156 15.517-2.264 23.094l-28.395 28.395c-4.739 4.739-1.318 12.803 5.303 12.803 1.919 0 3.839-.732 5.303-2.196l28.384-28.384c36.973-.542 74.031-16.56 103.88-38.143v126.945h-196.31c-17.222 0-30.731 14.12-30.642 31.083v.039.004c-.363 23.826-18.965 41.067-40.849 41.067-22.524 0-40.849-18.324-40.849-40.849v-99.603c0-4.142-3.358-7.5-7.5-7.5s-7.5 3.358-7.5 7.5v99.603c0 30.792 25.048 55.843 55.838 55.848h.01 262.877c15.097 0 29.889-6.208 40.583-17.032 10.579-10.707 16.307-24.736 16.129-39.503-.222-18.034-14.404-30.657-30.764-30.657h-6.025v-138.744c16.799-14.295 31.607-30.752 43.688-48.428 2.337-3.42 1.46-8.087-1.959-10.423-3.421-2.338-8.087-1.46-10.424 1.959-30.685 44.894-81.579 82.729-133.814 90.461l120.214-120.214c2.929-2.929 2.929-7.677 0-10.606s-7.677-2.929-10.606 0l-120.228 120.229c11.149-75.848 86.703-151.721 162.473-164.017 7.063-1.147 13.301 5.066 12.15 12.151-2.513 15.488-7.755 31.346-15.578 47.132-1.84 3.711-.322 8.211 3.389 10.05s8.211.321 10.05-3.389c8.49-17.131 14.192-34.42 16.946-51.39 2.789-17.196-12.169-32.149-29.361-29.359zm-456.114-32.921c-5.066 0-9.438-3.522-10.397-8.376-4.943-25.016 14.033-48.5 39.562-48.814l12.454 1.782c16.999 5.203 28.908 21.151 28.908 39.064v16.344zm430.953 357.734c.002.101.014.712.012.611.276 22.857-19.093 41.354-41.713 41.354h-224.812c11.133-10.396 17.578-24.289 17.783-41.149-.046-8.79 6.837-16.045 15.642-16.045h217.334c8.463.001 15.53 6.832 15.754 15.229z" />
        </g>
    </g>
</svg>