<svg id="Capa_1" enable-background="new 0 0 513.369 513.369" height="512"
    viewBox="0 0 513.369 513.369" width="512" xmlns="http://www.w3.org/2000/svg">
    <g>
        <g>
            <g>
                <path
                    d="m483.563 206.192c29.742 27.08 29.742 73.905 0 100.985-49.7 45.253-132.78 104.552-226.878 104.552s-177.178-59.299-226.879-104.552c-29.742-27.08-29.742-73.905 0-100.985 49.7-45.253 132.78-104.552 226.878-104.552s177.178 59.3 226.879 104.552z"
                    fill="#f8f7f8" />
                <path
                    d="m100.194 299.843c-29.742-27.08-29.742-73.905 0-100.985 38.929-35.445 98.34-79.512 167.481-96.946-3.646-.177-7.31-.271-10.991-.271-94.098 0-177.178 59.299-226.878 104.552-29.742 27.08-29.742 73.905 0 100.985 49.7 45.253 132.78 104.552 226.878 104.552 20.393 0 40.28-2.783 59.411-7.607-89.555-4.351-168.145-60.798-215.901-104.28z"
                    fill="#efedee" />
                <circle cx="256.685" cy="256.685" fill="#badafb" r="117.409" />
                <path
                    d="m175.328 256.685c0-58.713 43.1-107.367 99.385-116.04-5.876-.906-11.898-1.369-18.028-1.369-64.843 0-117.409 52.566-117.409 117.409s52.566 117.409 117.409 117.409c6.13 0 12.158-.468 18.035-1.373-56.286-8.673-99.392-57.323-99.392-116.036z"
                    fill="#97c9f9" />
                <circle cx="256.685" cy="256.685" fill="#b3adb5" r="77.083" />
            </g>
            <g>
                <g>
                    <path
                        d="m71.189 454.739-11.729-11.728c-2.619-2.619-2.619-6.865 0-9.484l374.897-374.897c2.619-2.619 6.865-2.619 9.484 0l11.729 11.729c2.619 2.619 2.619 6.865 0 9.484l-374.897 374.896c-2.619 2.619-6.865 2.619-9.484 0z"
                        fill="#e5827f" />
                </g>
            </g>
        </g>
        <g>
            <path
                d="m488.612 200.322c-20.568-18.729-41.953-35.441-63.558-49.675-3.459-2.279-8.111-1.322-10.389 2.137-2.279 3.459-1.322 8.11 2.137 10.389 20.955 13.805 41.718 30.035 61.711 48.239 12.619 11.49 19.856 27.873 19.856 44.947 0 17.075-7.237 33.458-19.856 44.947-37.277 33.94-77.39 61.011-116.003 78.286-3.781 1.691-5.475 6.128-3.784 9.909 1.247 2.787 3.983 4.439 6.851 4.439 1.023 0 2.063-.211 3.058-.656 40.622-18.173 80.988-45.387 119.977-80.887 15.734-14.325 24.757-34.75 24.757-56.038s-9.023-41.712-24.757-56.037z" />
            <path
                d="m333.421 390.923c-26.02 8.614-51.837 12.981-76.737 12.981-24.384 0-49.657-4.189-75.118-12.451-3.942-1.277-8.17.88-9.449 4.819-1.278 3.94.879 8.17 4.819 9.449 26.958 8.748 53.789 13.184 79.748 13.184 26.504 0 53.908-4.623 81.451-13.741 3.933-1.302 6.065-5.545 4.763-9.477-1.301-3.933-5.544-6.065-9.477-4.764z" />
            <path
                d="m372.475 209.498c-1.556-3.84-5.931-5.691-9.768-4.134-3.839 1.556-5.69 5.929-4.134 9.768 5.322 13.131 8.02 27.003 8.02 41.229 0 60.604-49.305 109.909-109.909 109.909-14.226 0-28.098-2.698-41.229-8.02-3.838-1.554-8.212.294-9.768 4.134-1.556 3.839.295 8.212 4.134 9.768 14.929 6.051 30.696 9.119 46.863 9.119 68.875 0 124.909-56.034 124.909-124.909.001-16.168-3.067-31.935-9.118-46.864z" />
            <path
                d="m256.685 325.944c-3.462 0-6.939-.257-10.335-.764-4.095-.612-7.914 2.213-8.525 6.31-.612 4.097 2.213 7.914 6.31 8.525 4.126.617 8.349.929 12.551.929 46.64 0 84.583-37.944 84.583-84.583 0-4.2-.312-8.422-.928-12.55-.611-4.097-4.429-6.919-8.525-6.311-4.097.611-6.922 4.428-6.311 8.525.507 3.397.764 6.875.764 10.336-.001 38.368-31.216 69.583-69.584 69.583z" />
            <path
                d="m366.634 168.778c-2.929-2.929-7.678-2.929-10.606 0l-280.097 280.097-10.606-10.606 373.774-373.775 10.606 10.606-71.077 71.077c-2.929 2.929-2.929 7.678 0 10.606 2.929 2.929 7.678 2.929 10.606 0l71.638-71.638c5.539-5.539 5.539-14.552 0-20.091l-11.729-11.729c-5.539-5.539-14.552-5.539-20.091 0l-64.386 64.386c-36.655-15.845-72.96-23.896-107.983-23.896-43.237 0-88.184 12.171-133.593 36.175-33.368 17.639-66.452 41.301-98.334 70.331-15.733 14.326-24.756 34.752-24.756 56.039s9.023 41.713 24.757 56.038c27.032 24.613 55.01 45.403 83.289 61.936l-53.889 53.889c-5.539 5.539-5.539 14.552 0 20.091l11.729 11.729c2.77 2.77 6.407 4.154 10.045 4.154s7.276-1.385 10.045-4.154l280.658-280.658c2.929-2.929 2.929-7.678 0-10.607zm-179.533 87.582c0-38.369 31.215-69.583 69.583-69.583 11.024 0 21.727 2.58 31.418 7.501l-93.501 93.5c-4.92-9.69-7.5-20.393-7.5-31.418zm-152.245 44.947c-12.619-11.489-19.856-27.871-19.856-44.947s7.237-33.458 19.856-44.947c93.132-84.797 172.036-102.597 221.829-102.597 31.223 0 63.649 6.856 96.531 20.349l-24.886 24.886c-21.039-14.795-45.663-22.6-71.645-22.6-28.233 0-55.904 9.688-77.916 27.278-21.669 17.318-37.139 41.631-43.559 68.461-.964 4.028 1.52 8.076 5.548 9.04.587.141 1.174.208 1.752.208 3.39 0 6.464-2.314 7.288-5.756 5.647-23.599 19.262-44.991 38.336-60.234 19.644-15.698 43.348-23.996 68.551-23.996 21.972 0 42.84 6.337 60.862 18.383l-18.382 18.382c-12.875-7.501-27.436-11.439-42.479-11.439-46.64 0-84.583 37.944-84.583 84.583 0 15.043 3.939 29.604 11.439 42.479l-18.387 18.387c-11.218-16.806-17.511-36.21-18.287-56.614-.158-4.139-3.64-7.357-7.78-7.209-4.139.157-7.367 3.641-7.209 7.78.92 24.199 8.686 47.156 22.5 66.82l-35.359 35.356c-28.528-16.303-56.817-37.154-84.164-62.053z" />
        </g>
    </g>
</svg>