<svg xmlns="http://www.w3.org/2000/svg" width="400" height="400">
    <g fill-rule="evenodd">
        <path fill="#060605"
            d="M179 .3c-2 0-3.8.3-4 .5a8 8 0 0 1-3 .4c-1.6 0-2.8.2-2.8.4s-1 .4-2.4.4c-1.3 0-2.4.2-2.4.4s-1 .4-2.2.4c-1.2 0-2.2.2-2.2.4s-.7.4-1.6.4c-.9 0-1.6.2-1.6.4s-.9.4-2 .4-2 .2-2 .4-.7.4-1.6.4c-.9 0-1.6.2-1.6.4s-.6.4-1.4.4c-.8 0-1.4.2-1.4.4s-.6.4-1.4.4c-.8 0-1.4.2-1.4.4s-.6.4-1.4.4c-.8 0-1.4.2-1.4.4s-.5.4-1.2.4-1.2.2-1.2.4-.5.4-1.2.4-1.2.2-1.2.3c0 .2-.9.5-2 .7-1 .1-2.6.6-3.5 1l-2 .8-1.3.4-1.6.8c-.4.2-1 .4-1.4.4-.3 0-.6.2-.6.4s-.4.4-1 .4c-.5 0-1 .2-1.2.4-.1.2-.6.4-1 .4-.5 0-.8.2-.8.4s-.4.4-.8.4-.8.2-.8.4-.3.4-.6.4-1 .2-1.3.4a232.5 232.5 0 0 1-6.4 3.3c-.1.2-.5.3-1 .3-.4 0-.7.2-.7.4s-.4.4-.8.4-.8.2-.8.4-.4.4-.8.4-.8.2-.8.4-.2.4-.5.4-1 .4-1.4.8c-.5.4-1.1.8-1.5.8-.3 0-.6.2-.6.4s-.4.4-.8.4-.8.1-.8.3c0 .2-.8.7-1.7 1-1.5.8-3.8 2.2-4.3 2.7l-1.3.8c-.6.3-1.1.7-1.1.9 0 .1-.3.3-.7.3-.4 0-1 .4-1.3.8-.3.4-.8.8-1.1.8-.4 0-.9.3-1.3.7-.3.4-1 1-1.7 1.3-.6.3-1.1.7-1.1.9 0 .1-.3.3-.6.3s-.6.2-.6.4-.2.4-.5.4-.8.4-1.1.8c-.3.4-.8.8-1 .8a6 6 0 0 0-2 1.4l-2.7 2.4-2.2 1.6c-.7.3-2.1 1.5-3.2 2.6l-2.4 2c-.2 0-2 1.6-4 3.6L52.5 63.8c-2 2-3.6 3.7-3.6 3.9l-2 2.4a19.3 19.3 0 0 0-2.6 3.2c-.4.6-1 1.6-1.6 2.2l-2.4 2.7a6 6 0 0 0-1.4 2c0 .2-.4.7-.8 1-.4.3-.8.8-.8 1 0 .4-.2.6-.4.6s-.4.3-.4.6-.1.6-.3.6c-.2 0-.6.5-1 1.1-.2.6-.8 1.4-1.2 1.7-.4.4-.7 1-.7 1.3 0 .3-.4.8-.8 1.1-.4.3-.8.9-.8 1.3s-.2.7-.3.7c-.2 0-.6.5-1 1.1-.2.6-.6 1.2-.7 1.3-.5.5-2 2.8-2.6 4.3-.4 1-1 1.7-1.1 1.7-.2 0-.3.4-.3.8s-.2.8-.4.8-.4.3-.4.6c0 .4-.4 1-.8 1.5s-.8 1-.8 1.4c0 .3-.2.5-.4.5s-.4.4-.4.8-.2.8-.4.8-.4.4-.4.8-.2.8-.4.8-.4.3-.4.8c0 .4-.1.8-.3.9a232.5 232.5 0 0 1-3.3 6.4l-.4 1.3c0 .3-.2.6-.4.6s-.4.4-.4.8-.2.8-.4.8-.4.3-.4.8c0 .4-.2.9-.4 1-.2.1-.4.7-.4 1.2 0 .6-.2 1-.4 1s-.4.3-.4.6-.2 1-.5 1.5c-.9 1.8-1.1 2.3-1.1 2.7l-.8 2c-.4 1-.9 2.6-1 3.7-.2 1-.5 1.9-.7 1.9-.1 0-.3.5-.3 1.2s-.2 1.2-.4 1.2-.4.5-.4 1.2-.2 1.2-.4 1.2-.4.6-.4 1.4c0 .8-.2 1.4-.4 1.4s-.4.6-.4 1.4c0 .8-.2 1.4-.4 1.4s-.4.6-.4 1.4c0 .8-.2 1.4-.4 1.4s-.4.7-.4 1.6c0 .9-.2 1.6-.4 1.6s-.4.9-.4 2-.2 2-.4 2-.4.7-.4 1.6c0 .9-.2 1.6-.4 1.6s-.4 1-.4 2.2c0 1.2-.2 2.2-.4 2.2s-.4 1-.4 2.4c0 1.3-.2 2.4-.4 2.4s-.4 1.2-.4 2.7c0 1.7-.2 3-.5 3.2-.7.8-.7 49 0 49.8.3.3.5 1.5.5 3.2 0 1.5.2 2.7.4 2.7s.4 1 .4 2.4c0 1.3.2 2.4.4 2.4s.4 1 .4 2.2c0 1.2.2 2.2.4 2.2s.4.7.4 1.6c0 .9.2 1.6.4 1.6s.4.9.4 2 .2 2 .4 2 .4.7.4 1.6c0 .9.2 1.6.4 1.6s.4.6.4 1.4c0 .8.2 1.4.4 1.4s.4.6.4 1.4c0 .8.2 1.4.4 1.4s.4.6.4 1.4c0 .8.2 1.4.4 1.4s.4.5.4 1.2.2 1.2.4 1.2.4.5.4 1.2.2 1.2.3 1.2c.2 0 .5 1 .7 2a12.3 12.3 0 0 0 1.3 4.4 59 59 0 0 0 1.7 4.1l.4 1.3c0 .3.2.6.4.6s.4.5.4 1.2.2 1.2.4 1.2.4.4.4.8.2.8.4.8.4.4.4.8.2.8.4.8.4.3.4.6c0 .6.2 1 1.1 2.9.3.5.5 1.2.5 1.5 0 .3.1.6.3.6.2 0 .8 1 1.3 2.2.6 1.2 1.1 2.2 1.3 2.2.2 0 .3.4.3.8s.2.8.4.8.4.4.4.8.2.8.4.8.4.2.4.5.4 1 .8 1.4c.4.5.8 1.1.8 1.5 0 .3.2.6.4.6s.4.4.4.8.2.8.4.8.4.4.4.8.2.8.4.8.5.4.6.9c.4 1 3.4 5.6 3.9 5.8.2.1.3.5.3.8 0 .4.4 1 .8 1.3.4.3.8.9.8 1.2 0 .3.4.9.8 1.2.4.3.8.9.8 1.2 0 .3.4.9.8 1.2.4.3.8.8.8 1 0 .3.5 1 1.2 1.7s1.2 1.4 1.2 1.6c0 .2.6 1 1.3 1.8 2.1 2.4 3.4 4 4.5 5.7l2.6 3a41.8 41.8 0 0 0 6 6.6l10.6 10.6c2 2 3.7 3.6 3.9 3.6.1 0 1.4 1 2.7 2.4 1.4 1.3 2.6 2.4 2.8 2.4.2 0 1 .6 1.9 1.4a6 6 0 0 0 1.8 1.4c.2 0 .9.5 1.6 1.2.7.7 1.4 1.2 1.7 1.2.2 0 .7.4 1 .8.3.4.8.8 1 .8.4 0 .6.2.6.4s.2.4.5.4.8.4 1.1.8c.3.4.9.8 1.2.8.3 0 .9.4 1.2.8.3.4.9.8 1.2.8.3 0 .9.4 1.2.8.3.4.9.8 1.2.8.3 0 .9.4 1.2.8.3.4.8.8 1.1.8.3 0 .9.3 1.3.7.5.4 1.3 1 2 1.3l2.6 1.7a11 11 0 0 0 2.8 1.3c.7.2 1.5.7 2 1 .4.5 1 .8 1.3.8.3 0 .5.2.5.4s.4.4.8.4.8.2.8.4.4.4.8.4.8.2.8.4.3.4.8.4c.4 0 .8.1.9.3a232.5 232.5 0 0 1 6.4 3.3l1.3.4c.3 0 .6.2.6.4s.4.4.8.4.8.2.8.4.4.4.8.4.8.2.8.4.5.4 1.2.4 1.2.2 1.2.4.4.4.8.4.8.2.8.4.4.4.8.4a4 4 0 0 1 1.5.4 32.3 32.3 0 0 0 6.3 2.4c.1.2.7.4 1.2.4s1 .2 1.2.4c.1.2 1.2.5 2.4.6 1.2.2 2.2.5 2.2.6 0 .2.6.4 1.4.4.8 0 1.4.2 1.4.4s.6.4 1.4.4c.8 0 1.4.2 1.4.4s.6.4 1.4.4c.8 0 1.4.2 1.4.4s.7.4 1.6.4c.9 0 1.6.2 1.6.4s.9.4 2 .4 2 .2 2 .4.7.4 1.6.4c.9 0 1.6.2 1.6.4s1 .4 2.2.4c1.2 0 2.2.2 2.2.4s1 .4 2.4.4c1.3 0 2.4.2 2.4.4s1.2.4 2.7.4c1.7 0 3 .2 3.2.5.4.4 6 .5 24.9.5 19 0 24.5-.1 24.9-.5.3-.3 1.5-.5 3.2-.5 1.5 0 2.7-.2 2.7-.4s1-.4 2.4-.4c1.3 0 2.4-.2 2.4-.4s1-.4 2.2-.4c1.2 0 2.2-.2 2.2-.4s.7-.4 1.6-.4c.9 0 1.6-.2 1.6-.4s.9-.4 2-.4 2-.2 2-.4.7-.4 1.6-.4c.9 0 1.6-.2 1.6-.4s.6-.4 1.4-.4c.8 0 1.4-.2 1.4-.4s.6-.4 1.4-.4c.8 0 1.4-.2 1.4-.4s.6-.4 1.4-.4c.8 0 1.4-.2 1.4-.4 0-.1 1-.4 2.2-.6 1.2-.1 2.3-.4 2.4-.6.1-.2.7-.4 1.2-.4s1-.2 1.2-.4c.1-.2.6-.4 1-.4.5 0 1.1-.2 1.5-.4a32.3 32.3 0 0 1 5.3-2c.4 0 .8-.2.8-.4s.4-.4.8-.4.8-.2.8-.4.5-.4 1.2-.4 1.2-.2 1.2-.4.4-.4.8-.4.8-.2.8-.4.4-.4.8-.4.8-.2.8-.4.3-.4.8-.4c.4 0 .9-.2 1-.4.1-.2.7-.4 1.2-.4.6 0 1-.2 1-.4s.4-.4.8-.4.8-.1.8-.3c0-.2 1-.8 2.2-1.3 1.2-.6 2.2-1.1 2.2-1.3 0-.2.4-.3.8-.3s.8-.2.8-.4.4-.4.8-.4.8-.2.8-.4.3-.4.7-.4c.4 0 1-.4 1.3-.8.3-.4.8-.8 1.1-.8.8 0 4.9-2 4.9-2.5 0-.2.2-.3.4-.3a7 7 0 0 0 2.2-1.2l2-1.2c.3 0 .7-.4 1-.8.3-.4.9-.8 1.2-.8.3 0 .9-.4 1.2-.8.3-.4.9-.8 1.2-.8.3 0 .9-.4 1.2-.8.3-.4.9-.8 1.2-.8.3 0 .9-.4 1.2-.8.3-.4.8-.8 1-.8.3 0 1-.5 1.7-1.2s1.5-1.2 1.7-1.2c.3 0 1-.5 1.6-1.2.6-.7 1.3-1.2 1.5-1.2.2 0 1-.6 1.8-1.4a6 6 0 0 1 1.9-1.4c.2 0 1.4-1 2.8-2.4a15 15 0 0 1 2.8-2.4c.2 0 2.3-2 4.7-4.4l9.7-9.7a47.7 47.7 0 0 0 6.8-7.5c1.3-1.4 2.4-2.6 2.4-2.8 0-.2.6-1 1.4-1.9a6 6 0 0 0 1.4-1.8c0-.2.5-.9 1.2-1.5s1.2-1.3 1.2-1.6c0-.2.5-1 1.2-1.7s1.2-1.4 1.2-1.7c0-.2.4-.7.8-1 .4-.3.8-.9.8-1.2 0-.3.4-.9.8-1.2.4-.3.8-.9.8-1.2 0-.3.4-.9.8-1.2.4-.3.8-.9.8-1.2 0-.3.4-.9.8-1.2.4-.3.8-.7.8-1l1.2-2c.7-1 1.2-2 1.2-2.2 0-.2.1-.4.3-.4.4 0 2.5-4 2.5-4.9 0-.3.4-.8.8-1.1.4-.3.8-.9.8-1.3s.2-.7.4-.7.4-.4.4-.8.2-.8.4-.8.4-.4.4-.8.1-.8.3-.8c.2 0 .8-1 1.3-2.2.6-1.2 1.1-2.2 1.3-2.2.2 0 .3-.4.3-.8s.2-.8.4-.8.4-.4.4-1c0-.5.2-1 .4-1.2.2-.1.4-.6.4-1 0-.5.2-.8.4-.8s.4-.4.4-.8.2-.8.4-.8.4-.4.4-.8.2-.8.4-.8.4-.5.4-1.2.2-1.2.4-1.2.4-.4.4-.8.2-.8.4-.8.4-.4.4-.8.2-1.1.4-1.5a32.3 32.3 0 0 0 2.4-6.3c.2-.1.4-.7.4-1.2s.2-1 .4-1.2c.2-.1.5-1.2.6-2.4.2-1.2.5-2.2.6-2.2.2 0 .4-.6.4-1.4 0-.8.2-1.4.4-1.4s.4-.6.4-1.4c0-.8.2-1.4.4-1.4s.4-.6.4-1.4c0-.8.2-1.4.4-1.4s.4-.7.4-1.6c0-.9.2-1.6.4-1.6s.4-.9.4-2 .2-2 .4-2 .4-.7.4-1.6c0-.9.2-1.6.4-1.6s.4-1 .4-2.2c0-1.2.2-2.2.4-2.2s.4-1 .4-2.4c0-1.3.2-2.4.4-2.4s.4-1.2.4-2.7c0-1.7.2-3 .5-3.2.7-.8.7-49 0-49.8-.3-.3-.5-1.5-.5-3.2 0-1.5-.2-2.7-.4-2.7s-.4-1-.4-2.4c0-1.3-.2-2.4-.4-2.4s-.4-1-.4-2.2c0-1.2-.2-2.2-.4-2.2s-.4-.7-.4-1.6c0-.9-.2-1.6-.4-1.6s-.4-.9-.4-2-.2-2-.4-2-.4-.7-.4-1.6c0-.9-.2-1.6-.4-1.6s-.4-.6-.4-1.4c0-.8-.2-1.4-.4-1.4s-.4-.6-.4-1.4c0-.8-.2-1.4-.4-1.4s-.4-.6-.4-1.4c0-.8-.2-1.4-.4-1.4-.1 0-.4-1-.6-2.2-.1-1.2-.4-2.3-.6-2.4-.2-.1-.4-.7-.4-1.2s-.2-1-.4-1.2c-.2-.1-.4-.6-.4-1 0-.5-.2-1.1-.4-1.5a32.3 32.3 0 0 1-2-5.3c0-.4-.2-.8-.4-.8s-.4-.4-.4-.8-.2-.8-.4-.8-.4-.5-.4-1.2-.2-1.2-.4-1.2-.4-.4-.4-.8-.2-.8-.4-.8-.4-.4-.4-.8-.2-.8-.4-.8-.4-.3-.4-.6-.2-1-.4-1.3a232.5 232.5 0 0 1-3.3-6.4c-.2-.1-.3-.5-.3-1 0-.4-.2-.7-.4-.7s-.4-.4-.4-.8-.2-.8-.4-.8-.4-.4-.4-.8-.2-.8-.4-.8-.4-.2-.4-.5-.3-.9-.7-1.3c-.4-.5-.9-1.3-1-2-.2-.6-.8-1.9-1.4-2.8A34 34 0 0 1 372 96l-1.3-1.9c-.4-.4-.7-1-.7-1.3 0-.3-.4-.8-.8-1.1-.4-.3-.8-.9-.8-1.2 0-.3-.4-.9-.8-1.2-.4-.3-.8-.9-.8-1.2 0-.3-.4-.9-.8-1.2-.4-.3-.8-.9-.8-1.2 0-.3-.4-.9-.8-1.2-.4-.3-.8-.8-.8-1 0-.4-.2-.6-.4-.6s-.4-.2-.4-.5-.4-.8-.8-1.1c-.4-.3-.8-.8-.8-1 0-.3-.5-1-1.2-1.7a5.6 5.6 0 0 1-1.2-1.6c0-.2-.6-1-1.4-1.8a6.8 6.8 0 0 1-1.4-1.9c0-.2-1-1.4-2.4-2.8a16.2 16.2 0 0 1-2.4-2.7c0-.2-1.6-2-3.6-4A1372 1372 0 0 1 337 53.3a41.8 41.8 0 0 0-6.6-6l-3-2.6a50.5 50.5 0 0 1-5.7-4.5 7 7 0 0 0-1.8-1.3c-.2 0-.9-.5-1.6-1.2-.7-.7-1.4-1.2-1.7-1.2-.2 0-.7-.4-1-.8-.3-.4-.9-.8-1.2-.8-.3 0-.9-.4-1.2-.8-.3-.4-.9-.8-1.2-.8-.3 0-.9-.4-1.2-.8-.3-.4-.9-.8-1.3-.8-.3 0-.7-.1-.8-.3a30.7 30.7 0 0 0-6.7-4.5c0-.2-.4-.4-.8-.4s-.8-.2-.8-.4-.4-.4-.8-.4-.8-.2-.8-.4-.3-.4-.6-.4c-.4 0-1-.4-1.5-.8s-1-.8-1.4-.8c-.3 0-.5-.2-.5-.4s-.4-.4-.8-.4-.8-.2-.8-.4-.4-.4-.8-.4-.8-.1-.8-.3c0-.2-1-.8-2.2-1.3-1.2-.6-2.2-1.1-2.2-1.3 0-.2-.3-.3-.6-.3s-1-.2-1.5-.5c-1.9-1-2.3-1.1-2.9-1.1-.3 0-.6-.2-.6-.4s-.4-.4-.8-.4-.8-.2-.8-.4-.4-.4-.8-.4-.8-.2-.8-.4-.5-.4-1.2-.4-1.2-.2-1.2-.4-.3-.4-.6-.4-1-.2-1.3-.4l-1.8-.8-2.2-.8a12.3 12.3 0 0 0-4.5-1.4c-1-.2-2-.5-2-.7 0-.1-.5-.3-1.2-.3s-1.2-.2-1.2-.4-.5-.4-1.2-.4-1.2-.2-1.2-.4-.6-.4-1.4-.4c-.8 0-1.4-.2-1.4-.4s-.6-.4-1.4-.4c-.8 0-1.4-.2-1.4-.4s-.6-.4-1.4-.4c-.8 0-1.4-.2-1.4-.4s-.7-.4-1.6-.4c-.9 0-1.6-.2-1.6-.4s-.9-.4-2-.4-2-.2-2-.4-.7-.4-1.6-.4c-.9 0-1.6-.2-1.6-.4s-1-.4-2.2-.4c-1.2 0-2.2-.2-2.2-.4s-1-.4-2.4-.4c-1.3 0-2.4-.2-2.4-.4s-1.2-.4-2.7-.4c-1.6 0-3-.2-3.2-.5-.5-.5-37-.8-45.9-.4m38.8 12a157.8 157.8 0 0 1 19.6 3 220.4 220.4 0 0 1 33.3 9.9l2.5 1.1A198.6 198.6 0 0 1 309.8 47a194.4 194.4 0 0 1 55.7 62.9 217.5 217.5 0 0 1 10.2 21.7 197 197 0 0 1 11.5 46.1c.9 7.5 1 10.3 1 22.4a173 173 0 0 1-15.7 75.9 359 359 0 0 1-10.4 20.2 164 164 0 0 1-9.3 14 179.8 179.8 0 0 1-30.9 33.6 202.7 202.7 0 0 1-49.4 30.4 120.4 120.4 0 0 0-5.8 2.3 63.2 63.2 0 0 1-4.5 1.6 205.2 205.2 0 0 1-32.6 8.2c-7.2 1.3-17 2-29.6 2a171.1 171.1 0 0 1-66.8-11.9l-3.8-1.5a160.2 160.2 0 0 1-20.8-10A315 315 0 0 1 92 354.5a195.5 195.5 0 0 1-52.3-55.3l-3.4-5.7a209.2 209.2 0 0 1-12.3-26A220.4 220.4 0 0 1 13.7 229l-1.4-11.8c-.6-6.5-.6-28 0-34.4a174.8 174.8 0 0 1 4.3-26.4 224 224 0 0 1 8.6-27l3-6.8A188.9 188.9 0 0 1 187.9 11.8c.4-.4 25.2.1 29.9.6m-49.5 75c-.6.2-2.3 1.5-4.2 3.3a50.6 50.6 0 0 1-35.7 15.7c-6.8 0-8.8.6-10.1 3.2-4.4 8.6 9.7 11 28.5 5 11.5-3.8 26.5-14.6 28.4-20.3 1.3-4-2.3-7.6-6.9-6.8m60.4 0c-2.7.4-4.7 3.9-4 6.6a50 50 0 0 0 16.1 14.7 71.7 71.7 0 0 0 20.8 8c15.2 2.7 22.8.4 20.5-6.2-1.1-3.5-3-4.2-10.6-4.2-3 0-6.3-.2-7.3-.4l-3.2-.9A50.6 50.6 0 0 1 237.1 92c-4.6-4.5-5.4-5-8.4-4.4m-108.3 42.7a46.5 46.5 0 1 0 5.4 93 46.5 46.5 0 0 0-5.4-93m153.8 0-4.4.6a49 49 0 0 0-21.6 9.4 46.5 46.5 0 1 0 26-10m-147 11.4a32.2 32.2 0 0 1 13.3 4.5 37 37 0 0 1 17.2 23c.3.5.4 3.7.4 7.4 0 6.1-.2 8.2-1.3 10.4l-.4 1.3c0 4.2-8.9 15.2-15 18.7a39.3 39.3 0 0 1-12 4.7c-2.1.5-10 .5-12.7 0a35.8 35.8 0 0 1-28-26 40.4 40.4 0 0 1 .9-20.4c0-.6 1.3-3.2 3.2-6.7 3.3-6 14.3-14.9 18.4-14.9.4 0 .9-.2 1-.4.1-.2.7-.4 1.2-.4s1-.2 1.2-.4c.1-.2 1-.4 2.1-.4 1 0 2.4-.2 3.1-.4 1.8-.5 3.6-.4 7.4 0m155.5.3c1.4 0 2.6.4 2.7.5.1.2.7.4 1.2.4s1 .2 1.2.4c.1.2.6.4 1 .4 2.8 0 11.9 6.4 15.6 11a35.1 35.1 0 0 1-10.4 53c-1.9 2-11 4.4-17.3 4.4a33.5 33.5 0 0 1-18.7-5.6 40 40 0 0 1-9.1-8.2 37.6 37.6 0 0 1-5.7-11.3c-1-2.2-1.3-4.3-1.3-10.6 0-4.5.2-7 .4-7.2.3-.3.5-.9.5-1.4 0-.4.2-1 .4-1.1a35.3 35.3 0 0 1 4.6-9.8c1.7-2.8 8.2-8.8 10.8-10.2a32.8 32.8 0 0 1 10-4.2c2.5-1 7.4-1.2 14.1-.5m-164.1 18c-16.4 5.7-17 26.9-1 33 1.7.6 9.5.8 10.6.2l2.8-1.4a17.2 17.2 0 0 0 7.5-22.7c-1.2-2.4-5.6-7.2-6.7-7.2-.3 0-.6-.2-.6-.3 0-.2-.8-.6-1.7-.9l-2.4-.8c-1-.5-7-.4-8.5.1m154.4 0c-.1.2-.6.4-1 .4-2.4 0-8.6 5-10 8-2.7 5.7-3 8.9-1 14.4 1.4 4.5 5.5 8.4 10.9 10.4 11 4.2 24.3-7.3 22-19.2a9.6 9.6 0 0 0-.8-3c-.2-.2-.3-.6-.3-.9 0-2.7-7.9-9.7-10.8-9.7-.4 0-.9-.2-1-.4-.1-.2-2-.4-4-.4s-3.9.2-4 .4m-77.6 78.6-5.4.6a100.2 100.2 0 0 0-59 25 88 88 0 0 0-12.7 13.2c-2.2 4 1.3 8.7 6 8 1.4-.3 2.7-1.4 8-7 2.9-3 3.3-3.5 7.8-7.3a106.2 106.2 0 0 1 18.1-11.7 104 104 0 0 1 30.2-9c3-.7 20.5-.5 24.6.2l5.8 1a96.4 96.4 0 0 1 49.4 27.2c6.3 6.7 7.2 7.2 10.2 6.4a5.5 5.5 0 0 0 3.4-7.6 106.1 106.1 0 0 0-22.8-21 104.1 104.1 0 0 0-41.7-16.6c-5.2-.9-20.8-1.9-21.9-1.4m-4 24.2c-4.2 2.5-3.3 8.6 1.5 10a47 47 0 0 0 15.6-.5c3.9-2 3.8-7.7-.2-9.7a50 50 0 0 0-17 .2" />
        <path fill="#fbd364"
            d="M197.1 12.2c0 .1-3.6.4-7.8.6A190.3 190.3 0 0 0 98.8 42c0 .2-.3.4-.6.4s-.6.2-.6.4-.3.4-.6.4-.6.2-.6.4-.2.4-.5.4-1.1.5-1.9 1.2c-.8.7-1.6 1.2-1.8 1.2-.2 0-.7.4-1 .8-.3.4-.8.8-1 .8a1614.5 1614.5 0 0 1-8 6A186.3 186.3 0 0 0 42 98.9c-.2 0-.4.2-.4.4a237.6 237.6 0 0 0-18 36.6 124.9 124.9 0 0 0-4.4 14 190.3 190.3 0 0 0-2.4 90.6 220.6 220.6 0 0 0 9.5 30.8c.5 1.4 2 4.7 3 6.5l.7 2.1c0 .3.2.6.4.6s.4.3.4.8c0 .4.1.8.3.9.2 0 1.1 1.7 2.1 3.7A165.4 165.4 0 0 0 46.4 308c0 .3.1.5.3.5.2 0 .6.5 1 1.1.4.6 1 1.6 1.5 2.1l5.1 6.6a221.3 221.3 0 0 0 30.7 30 85.9 85.9 0 0 1 5 3.8l2 1.5c.2.3.6.5.8.5.2 0 .6.2.9.5a17 17 0 0 0 4.7 3.1c.2 0 .4.2.4.4s.3.4.6.4.6.2.6.4.3.4.6.4.6.2.6.4.2.4.4.4l2 1a267.3 267.3 0 0 0 32.9 15.8c.4.2 1 .4 1.5.4.4 0 .9.2 1 .4.1.2.6.4 1 .4a193.6 193.6 0 0 0 20.2 5.4 189.6 189.6 0 0 0 111.1-9.8c13.7-5.3 35.3-24.2 49.9-43.8 7.7-10.3 11.8-17 18-29.2a200.2 200.2 0 0 0 18-49c13-54.6 3.7-117.4-24.4-164.2a219.3 219.3 0 0 0-17-24c-12.2-15.2-32.9-32.4-44.6-37.1l-1.7-.7-1.1-.4a43.8 43.8 0 0 0-4.6-1.8 487.8 487.8 0 0 0-16.7-5c-4.2-1-5-1.3-6.7-1.6-10-2.2-18.5-3.4-28.6-4l-10.4-.6c-2.2-.2-4.1-.2-4.3 0M172.5 87a6.8 6.8 0 0 1 3 9 60 60 0 0 1-16.8 14 59.2 59.2 0 0 1-10.3 4.9l-1.6.8c-.4.2-1.2.4-1.8.4-.5 0-1 .2-1.2.4-.1.2-.9.4-1.6.4-.7 0-1.5.2-1.6.4-.1.2-1 .4-1.8.4a49.3 49.3 0 0 1-10.6.9h-6.8l-1.7-1a6.2 6.2 0 0 1-1.4-9.6c1.3-1.4 3-1.9 8.1-2a38.4 38.4 0 0 0 12.5-1.5c.8 0 1.6-.2 1.7-.4.1-.2.6-.4 1-.4.5 0 1.1-.2 1.5-.4a95.5 95.5 0 0 0 13-6.8c1.2-.4 2.6-1.6 6.9-5.7 4.4-4.3 6.9-5.3 9.5-3.8m60.6.3c.7.4 2.6 2 4.2 3.7a49.7 49.7 0 0 0 36.1 15c6.2.2 6.4.2 8.3 2.2 2.8 3 1.8 7.8-2.1 10a64 64 0 0 1-20.2-.9c-.1-.2-.9-.4-1.6-.4-.7 0-1.5-.2-1.6-.4-.1-.2-.7-.4-1.2-.4-.6 0-1.4-.2-1.8-.4l-1.6-.8-1.3-.4a59.2 59.2 0 0 1-9.6-4.8 61 61 0 0 1-16.2-13.9c-3-5.2 3.5-11.6 8.6-8.5m-105.3 42.4c7 .8 18.5 4.7 19.3 6.5a25.9 25.9 0 0 1 5.4 3.5 81.6 81.6 0 0 1 9.6 10.2c.4.4.7 1 .7 1.3 0 .3.1.5.3.5a1536.3 1536.3 0 0 0 4.1 7.8l.7 1.8a49 49 0 0 1 .2 30.4 39 39 0 0 1-4.2 9 8 8 0 0 0-1.1 2.2c0 .2-.1.4-.3.4-.2 0-.6.5-1 1.2-.7 1-1.1 1.6-4.5 5.3a47.6 47.6 0 0 1-58.5 7.4c-.1-.2-.4-.3-.7-.3-.2 0-.8-.3-1.2-.7a26 26 0 0 0-2.2-1.7c-6-4.2-15.6-17.2-15.6-21.2 0-.4-.2-.9-.4-1-.2-.1-.4-.7-.4-1.2s-.2-1-.4-1.2c-.2-.1-.4-.9-.4-1.6 0-.7-.2-1.5-.4-1.6-.2-.1-.4-1.2-.4-2.3a51.3 51.3 0 0 1 2.4-24.2c0-3.7 8.9-16 14.8-20.4a43 43 0 0 0 2.2-1.8c.4-.4 1-.7 1.3-.7.3 0 .5-.1.5-.3a148.7 148.7 0 0 0 4-2.4 47 47 0 0 1 26.2-4.9m154 0a46.6 46.6 0 0 1 24.6 10c3 2 8.8 8.6 10.9 12.2a43.5 43.5 0 0 1 5.9 14.8 56.6 56.6 0 0 1-.4 21.7 48.6 48.6 0 0 1-7.6 16.5c-1 1.4-9 9.6-9.4 9.6l-2 1.3a48.4 48.4 0 0 1-48.3 3.2 54.3 54.3 0 0 1-19.7-18.7 47.5 47.5 0 0 1 17-64.2c3.7-4 19.7-7.4 29-6.4m-69.2 108.8c.2.2 1.3.4 2.5.4 1.1 0 2.2.2 2.3.4.1.2 1.2.4 2.4.4s2.3.2 2.4.4c.1.2.9.4 1.6.4.7 0 1.5.2 1.6.4.1.2.8.4 1.4.4.6 0 1.3.2 1.4.4.1.2.8.4 1.4.4.6 0 1.3.2 1.4.4.1.2.8.4 1.4.4.6 0 1.3.2 1.4.4.1.2.6.4 1 .4s1.2.3 1.8.6l6.4 2.6 4.8 2.2c1.3.7 3.6 2 5 2.6 1.4.8 3 1.7 3.4 2.1.4.4 1 .7 1.3.7.3 0 .5.1.5.3 0 .2.7.8 1.6 1.3.9.5 1.6 1.1 1.6 1.3 0 .2.2.3.5.3s1 .4 1.4.8c.5.4 1 .8 1.2.8.2 0 1 .7 2 1.5l3.1 2.7c2.3 1.7 11.7 11.3 12.9 13 3.2 5.3-2 11.8-7.6 9.4a47 47 0 0 1-9.4-8.8 51.7 51.7 0 0 0-6.9-6.1 96.3 96.3 0 0 0-15.6-10.2c0-.2-.4-.3-.8-.3s-.8-.1-.8-.3c0-.3-.8-.6-3.4-1.7l-1.9-.7a67.3 67.3 0 0 0-10.5-3.6 91.2 91.2 0 0 0-61.9 3.9l-2.5.8c-.3 0-.6.2-.6.4s-.4.4-.8.4-.8.2-.8.4-.4.4-.8.4-.8.1-.8.3c0 .2-.7.6-1.5 1a63 63 0 0 0-12.6 8 65.8 65.8 0 0 0-9.5 8.5c-8 8.4-9.6 9.3-13.1 7.6-7-3.5-3.9-10.6 9.3-21.6l3.2-2.8c1.4-1.2 2.6-2.2 2.8-2.2l1-.8c.6-.4 1.2-.8 1.5-.8.3 0 .5-.1.5-.3 0-.2.7-.8 1.6-1.3.9-.5 1.6-1.1 1.6-1.3 0-.2.2-.3.5-.3s.9-.3 1.3-.7a230.5 230.5 0 0 0 6.6-3.8l6.2-3c3.1-1.1 5-2 6.8-2.7.6-.3 1.4-.6 1.8-.6.4 0 .9-.2 1-.4.1-.2.8-.4 1.4-.4.6 0 1.3-.2 1.4-.4.1-.2.8-.4 1.4-.4.6 0 1.3-.2 1.4-.4.1-.2.8-.4 1.4-.4.6 0 1.3-.2 1.4-.4.1-.2.8-.4 1.5-.4.8 0 1.5-.2 1.7-.4.2-.2 1.4-.4 2.6-.6 4.8-.4 6.2-.7 7-1 1.5-.7 24.4-.7 25.2 0m-5.4 23c.8.2 1.5.4 1.6.6l1 .6c.4.3 1 .9 1.2 1.3.2.5.5.9.7.9 1.3 0 .2 5.3-1.5 7l-1.8 1.8h-16.8l-1.8-1.8c-1.7-1.7-2.8-7-1.5-7 .2 0 .5-.4.7-.9.2-.5.8-1 1.3-1.3.5-.2.9-.5.9-.7 0-.2.5-.3 1.1-.3a63.1 63.1 0 0 1 14.9-.2" />
        <path fill="#f1f8fb"
            d="M121.4 142c-.7.2-2 .3-3.1.4a36 36 0 0 0-26.6 19.3 46 46 0 0 0-2.9 8.7 45.5 45.5 0 0 0 1.2 17.2c2 8 15 21.6 20.6 21.6a37.9 37.9 0 0 0 12.6 2.4 37 37 0 0 0 20.9-7.2c7-5.6 10.8-11.8 13-20.4.5-2.5.7-12 .1-13.8L156 166a37 37 0 0 0-4.3-9c-2.5-4-12.6-12.2-15-12.2-.4 0-.8-.2-.9-.4-.1-.2-.6-.4-1-.4-.5 0-1.1-.2-1.5-.4-1.2-.6-3.8-1.2-6.5-1.4-1.4 0-3-.3-3.4-.4-.4 0-1.3 0-2 .2m154 0c-.7.2-2 .3-3.2.4-1 0-3 .4-4.4.8l-3.8 1.3c-4.6 1.4-13 8.2-15.8 12.6a47.3 47.3 0 0 0-5.2 12.2 36.3 36.3 0 0 0 3.5 24.2 40.4 40.4 0 0 0 9.2 10.6c7.4 6.8 24.4 9.6 32.4 5.5l1.3-.4c.3 0 1.3-.4 2.3-1l3.3-1.8a38.7 38.7 0 0 0 14.2-16.7c0-.5.2-1 .4-1 .1-.2.4-.8.5-1.4l.8-3.5a37.8 37.8 0 0 0-1.3-19c-.5-1.7-.9-2.4-2.8-5.9a35.9 35.9 0 0 0-31.4-17m-146.8 18c4.5 1 11.4 8.1 11.4 11.7 0 .4.2.9.4 1 1.4.9 0 9.5-2.1 13.4-4.4 7.6-16.7 11-23.6 6.3-.5-.4-1.2-.7-1.4-.7-.8 0-5-4.6-6-6.6-7-14.5 5.3-29.1 21.3-25.2m154 0a18.6 18.6 0 0 1 11.9 13.3c2.2 6-2.8 16.2-9.5 19.5-9.5 4.6-21.6-.1-24.6-9.6l-.9-2.5a18 18 0 0 1 23-20.6" />
        <path fill="#f9b454"
            d="m190.2 12.4-2.8.3h2.6c1.4 0 3.7-.1 5-.3l2.4-.3h-2.2l-5 .3m14.8 0c2.5.3 7.7.5 7.4.2a45.8 45.8 0 0 0-7.4-.2m-25.2.8-1.2.3h1.2a6 6 0 0 0 2-.3l.8-.3h-.8l-2 .3m38.4 0a6 6 0 0 0 2 .3h1.2l-1.2-.3-2-.3h-.8l.8.3m-44.4.8c-1.1.3-1.1.3-.2.3.6 0 1.3 0 1.6-.3.7-.4.3-.4-1.4 0m51 0a4 4 0 0 0 1.8.4c1.5 0 1.2-.2-.8-.6-1.1-.2-1.4-.1-1 .2m-56.6.8c-1.1.3-1.1.3-.2.3.6 0 1.3 0 1.6-.3.7-.4.3-.4-1.4 0m62.2 0c.3.2 1 .4 1.6.4 1.3 0 1-.2-.8-.5-1-.2-1.2-.2-.8 0m-66.4.9c-.8.3-.9.3-.2.4.4 0 1-.2 1.4-.4.7-.5.2-.5-1.2 0m70.8 0c.3.2 1 .4 1.6.4 1.3 0 1-.2-.8-.5-1-.2-1.2-.2-.8 0m4 .9c.3.2 1 .4 1.4.4 1 0 .7-.2-.8-.6-.9-.2-1-.1-.6.2m3.6.8c.3.2 1 .4 1.4.4 1 0 .7-.2-.8-.6-.9-.2-1-.1-.6.2m-89.2.8c-.8.3-.9.3-.2.4.4 0 1-.2 1.4-.4.7-.5.2-.5-1.2 0m92.4 0c.3.2 1 .4 1.4.4 1 0 .7-.2-.8-.6-.9-.2-1-.1-.6.2m9.2 2.5 1.4.5c.9.2 1 .1.6-.2-.5-.3-2.4-.6-2-.3M277 29a170.4 170.4 0 0 1 40.7 36.7c1.6 1.4 11.1 15 15.2 21.8a227.4 227.4 0 0 1 13.1 199c-14.3 34.4-40.4 67.1-66.4 83.2-.9.5-1.5 1-1.4 1a186.7 186.7 0 0 0 23.5-12.6 104 104 0 0 0 12.2-8.6 99.4 99.4 0 0 0 11.4-9.4 208.4 208.4 0 0 0 20.2-21 232.3 232.3 0 0 0 16.6-23.8 295 295 0 0 0 12.5-25.5 272.4 272.4 0 0 0 3.5-9.4c0-.5.1-1.1.3-1.3.2-.2.6-1.2.9-2.2a203.7 203.7 0 0 1 2.4-8.4 188.7 188.7 0 0 0 4.4-74.8 188.7 188.7 0 0 0-13.5-48 225 225 0 0 0-19.3-34.2 205.7 205.7 0 0 0-35.9-38 144.5 144.5 0 0 0-14.5-10.6c0-.2-.3-.4-.6-.4s-.6-.1-.6-.3a82.6 82.6 0 0 1-5.2-3.3 291.3 291.3 0 0 0-19.4-9.9M107 36.6c-1.5.8-1.4 1.2.1.4.7-.3 1.2-.7 1.2-.8 0-.3 0-.3-1.3.4M82.6 53.4 81 55l1.7-1.3c1.5-1 2-1.6 1.6-1.6l-1.7 1.4m-3.1 2.4c-.6.6-1 1-.8 1 .2 0 .8-.4 1.3-1 1.2-1.3 1-1.3-.5 0m-7 6.3L71 63.8l1.7-1.6 1.7-1.7c0-.3-.3 0-1.8 1.6M61.8 72.9l-1.6 1.7 1.7-1.6 1.7-1.7c0-.3-.3 0-1.8 1.6m-6.2 6.9-1 1.2 1.2-1 1-1.3c-.1-.1-.6.4-1.2 1m-2.4 3.1c-.7.9-1.2 1.6-1 1.6l1.4-1.6c.7-.9 1.2-1.6 1-1.6l-1.4 1.6m174.6 4c0 .1.4.2 1 0 .7 0 1.2-.2 1.2-.2 0-.3-2-.2-2.2.1m-57.2 13.9c-2.4 2.4-3.7 3.8-2.8 3.1 2-1.5 7.6-7.2 7.4-7.4a49 49 0 0 0-4.6 4.3m55-3.3 3.1 3.1 3.1 3-3-3.1c-2.8-2.9-3.2-3.3-3.2-3m22 1.9 1.4.8c.4 0-.3-.6-1.6-1.2-.5-.3-.5-.2.2.4m-116 6.4c-.4.3 0 .3 1.2.2 2.2-.4 2.6-.6.8-.6-.8 0-1.7.2-2 .4m133.6-.3 2 .4c1.1.2 1.6.1 1.2-.1-.6-.4-3.5-.6-3.2-.3m-228.6 1.9-.4 1.2s.5-.5.8-1.2l.4-1.2s-.5.5-.8 1.2m80.6 2.4c-.3.6-.4 1.5-.3 1.9.2.5.2.5.3-.2 0-.5.2-1.3.4-1.8.3-.4.4-.8.3-1l-.7 1m164.8-1 .6 1.4c.3.6.6.8.6.5 0-.3-.3-1-.6-1.4-.3-.4-.6-.6-.6-.5m-165.2 4.9c0 .5.1 1 .3 1.2.2 0 .3-.4.2-1-.2-1.5-.5-1.6-.5-.2m22.4 3.8-1.4.3h1.3c.7 0 1.4 0 1.5-.3l.1-.3-1.5.3m120.4.1c.1.2.8.3 1.5.2 1-.1 1-.1-.4-.3-.9-.2-1.3 0-1.1.1m19.2.5c-.9.4-1.1.6-.6.6.4 0 1.3-.3 1.8-.6 1.2-.7.7-.7-1.2 0m-145.9.5h2c.5-.1 0-.2-1.1-.2s-1.5 0-.9.2m132.4 0h2c.5-.1 0-.2-1.1-.2s-1.5 0-.9.2m-139.4.4h1.8c.5-.1 0-.2-.9-.2-1 0-1.4 0-.9.2m146.4 0h1.8c.5-.1 0-.2-.9-.2-1 0-1.4 0-.9.2m-150.8 10.8h2.8c.8 0 .2-.2-1.3-.2s-2.2.1-1.5.2m154 0h2.8c.8 0 .2-.2-1.3-.2s-2.2.1-1.5.2m-160.3.5c-1.4.3-1.4.3-.2.3.7 0 1.6-.1 2-.3 1-.4.2-.4-1.8 0m13.8 0c.8.3 3.3.6 3 .3l-2-.4c-1.2-.2-1.5-.1-1 0m140.2.1c-1.4.3-1.4.3-.2.3.7 0 1.6-.1 2-.3 1-.4.2-.4-1.8 0m13.8 0c.8.3 3.3.6 3 .3l-2-.4c-1.2-.2-1.5-.1-1 0m-176.4 2.3c-1.6.8-.6.8 1 0 .8-.3 1.1-.6.8-.6l-1.8.6m154 0c-1.6.8-.6.8 1 0 .8-.3 1.1-.6.8-.6l-1.8.6m31.7 0 1.8.6c.3 0-.1-.3-.8-.6l-1.8-.6c-.3 0 .1.3.8.6m-150.7 1.2c.4.3 4.4 2.2 4.4 2 0-.2-3.8-2.2-4.3-2.2-.1 0-.2 0 0 .2m114.2.8-1.9 1.2c0 .2 4-1.7 4.4-2 .5-.5-.8 0-2.5.8m47 3.2 1.8 1c.1 0-.4-.5-1.2-1-.8-.6-1.6-1-1.8-1l1.2 1m-207 .4c-.5.3-.8.7-.7.8a3 3 0 0 0 1.1-.6c1.1-1 .7-1-.5-.2m-3.6 3.1-1.2 1.3 1.2-1 1.4-1.1v-.3c-.2-.1-.8.4-1.4 1.1m154-.3c-.6.6-1 1-.7 1 .2 0 .8-.4 1.3-1 1.2-1.3 1-1.3-.6 0m61.2.1c.6.7 1.2 1.2 1.3 1.1.2-.2-.4-.9-1.7-1.8-.4-.3-.3 0 .4.7M87.8 145a63 63 0 0 1-2.9 3.8c.3 0 3.6-4 3.4-4.2 0 0-.3 0-.5.4m70.6.5c0 .2.5.8 1 1.3.9.7 1 .8.6.2-1-1.3-1.6-1.9-1.6-1.5m82 1-1 1.3 1.3-1.2c1.4-1.2 1.5-1.4 1-1.4-.2 0-.7.6-1.3 1.3m72.4-.3 1.1 1.4h.3c.1-.2-.4-.8-1.1-1.4l-1.3-1.2 1 1.2m-75.1 3.8c-.8 1.2-.4 1.3.4.2.4-.6.6-1 .4-1-.2 0-.5.4-.8.8m-155.1 2.1c-1.4 2.3-1.5 2.5-.8 1.7.8-1 1.5-2.2 1.2-2.2 0 0-.3.2-.4.5m-64.6.8-.2 1.4c-.2.7-.2.7.2 0 .2-.4.4-1 .3-1.4-.2-.6-.2-.6-.3 0m-2.4 10.8-.2 1.4c-.2.7-.2.7.2 0 .2-.4.4-1 .3-1.4-.2-.6-.2-.6-.3 0m215.2 2-.2 1.4c-.2.7-.2.7.2 0 .2-.4.4-1 .3-1.4-.2-.6-.2-.6-.3 0m-216 2.2-.2 1.6c-.2.7-.2.7.2 0 .2-.4.4-1.1.3-1.6-.2-.9-.2-.9-.2 0m154.8 1.7c0 1 0 1.4.2.9v-1.8c-.1-.5-.2 0-.2.9m60.1 2a9.5 9.5 0 0 0 0 2.6l.4-2.2c.1-1.4.2-2.6 0-2.7l-.4 2.3m94 1.2.5 2.4c.3.3 0-3-.3-3.8-.2-.5-.3 0-.1 1.4m-248-1a6 6 0 0 0-.2 2.5c0 1.9 0 1.9.3-.5.3-2.5.3-3.1-.2-2m94.3 1c0 .8 0 1 .2.7v-1.4c-.1-.4-.2 0-.2.7m-156 .7-.3 1.6c-.2.7-.2.7.2 0 .2-.4.4-1.1.3-1.6-.2-.9-.2-.9-.2 0m156.4 3.3c0 .8 0 1 .2.7v-1.4c-.1-.4-.2 0-.2.7m-94.9 2.7c0 1.1.2 2.2.4 2.3.2.1.3-.6.1-1.9-.3-2.8-.5-3-.5-.4m248.5.2c0 .8-.2 1.8-.3 2.2-.2.7-.2.7.2 0 .2-.4.4-1.4.3-2.2l-.2-1.5v1.5m-311 .7c-.2 1-.2 1.8-.1 1.9.2.3.7-2.6.5-3.2 0-.3-.3.3-.4 1.3m216.6-.2c0 .7 0 2 .3 2.8.4 2.1.4.2 0-2.2-.2-1.4-.3-1.5-.3-.6m-59.6.6c0 .8 0 1 .2.7v-1.4c-.1-.4-.2 0-.2.7m-.4 3.2c0 1 0 1.4.2.9v-1.8c-.1-.5-.2 0-.2.9m60.8 2c0 .3.1 1 .3 1.4.2.5.3.6.3.2 0-.3-.1-1-.3-1.4-.2-.5-.3-.6-.3-.2m-218.3 6.1c-.1 2.6-.2 4.9 0 5 .2.2.7-8 .5-9 0-.4-.3 1.4-.5 4m219.3-1.8c.3 1.3 1.3 3.6 1.3 3.2a19 19 0 0 0-1.5-4.3l.2 1.1m87.8 7.1c-.7 1.5-.6 1.8.1.5.4-.7.6-1.2.5-1.3 0-.1-.4.3-.6.8m-1.1 2.3c-1.4 2.3-1.5 2.5-.8 1.7.8-1 1.5-2.2 1.2-2.2 0 0-.3.2-.4.5m-306 7.7.4 5c.3.3.1-4.9-.2-7.4-.2-1.6-.3-.9-.1 2.4m72.6-2.4c.5.7 1 1.4 1.2 1.4.4 0-1.1-2.2-1.7-2.6-.2-.1 0 .4.5 1.2m229.9-.2c-.5.7-.8 1.3-.7 1.4l1-1.2c1.1-1.7.9-1.8-.3-.2m-164 10-1.4 1.2 1.5-.9c.8-.5 1.5-1 1.5-1.2 0-.4 0-.4-1.6 1m96.8-1c0 .2.6.7 1.4 1.2 1.8 1.2 1.8.9 0-.5-.8-.6-1.4-.9-1.4-.7m54.2 2.9c-.7.4-1 .8-.8.8.4 0 2.6-1.6 2.2-1.6l-1.4.8m-289 1.4.4 2 .3 1.2v-1.2a6 6 0 0 0-.3-2l-.3-.8v.8m101.1 5 1.2.4c.5 0 .5 0 0-.4l-1.2-.4c-.5 0-.5 0 0 .4m7.7.8a8 8 0 0 0 3 0c1.3-.3 1-.3-1.5-.3-2.6 0-2.8 0-1.5.3m153.7 0c.9.2 2.3.2 3.2 0 1.3-.2 1-.3-1.6-.3s-2.9 0-1.6.3m-261.6 1.8c.4 2 .6 2.3.6.8a4 4 0 0 0-.4-1.8c-.3-.4-.4-.1-.2 1m.9 5.4c.3 1.7.5 2 .5.8 0-.6-.2-1.3-.4-1.6-.3-.4-.3-.2-.1.8m.8 4.4c.3 1.7.5 2 .5.8 0-.6-.2-1.3-.4-1.6-.3-.4-.3-.2-.1.8m172 2.8c-.2.1.6.2 1.6.1 2.8-.3 3-.4.6-.5-1.1 0-2.1.2-2.3.3m21.2-.1c1 .3 4.2.5 4 .2-.2-.2-1.2-.4-2.3-.4-1.2 0-2 .1-1.7.2m-192.4 1.2c.4 1.5.6 1.8.6.8 0-.5-.2-1-.4-1.4-.3-.4-.4-.3-.2.6m166.6-.2c-.4.3-.3.4.6.2 1.5-.4 1.8-.6.8-.6a3 3 0 0 0-1.4.4m32.4-.3c.5.4 2.4.7 2.2.3-.1-.2-.7-.4-1.3-.4-.6 0-1 0-.9.1m-37.4 1.1c-.3.5.1.5 1.2 0 .8-.3.8-.3 0-.4-.6 0-1 .2-1.2.4m43.2 0c1.1.5 1.5.5 1.2 0-.1-.2-.6-.4-1.1-.4-.9 0-.9 0-.1.4m-204 3c.4 1.5.6 1.8.6.8 0-.5-.2-1-.4-1.4-.3-.4-.4-.3-.2.6m.8 3.2c.4 1.5.6 1.8.6.8 0-.5-.2-1-.4-1.4-.3-.4-.4-.3-.2.6m135.3 2.2-1.5 1 1.6-.6c.9-.4 1.6-.9 1.6-1 0-.3 0-.3-1.7.6m-4.8 2.6c-1.5.8-1.4 1.2.1.4.7-.3 1.2-.7 1.2-.8 0-.3 0-.3-1.3.4m46-.3h1.6c.4-.1 0-.2-.9-.2s-1.2 0-.7.2m10.2 0h1.4c.4-.1 0-.2-.7-.2-.8 0-1 0-.7.2m-15.4.4h2.8c.8 0 .2-.2-1.3-.2s-2.2.1-1.5.2m18.8 0h2.8c.8 0 .2-.2-1.3-.2s-2.2.1-1.5.2m-23.3.5-1.6.3h1.4c.8 0 1.8-.1 2.2-.3 1-.4.3-.4-2 0m29 0c.6.4 3.5.6 3.2.3l-2-.4c-1.1-.2-1.6-.1-1.2.1m5.6 1 1.8.3c1 .2 1.4.2 1-.1-.5-.4-3.2-.6-2.8-.3m-42.4.7c-.8.3-.9.3-.2.4.4 0 1-.2 1.4-.4.7-.5.2-.5-1.2 0m-156.4 2.2c0 .5.2 1 .4 1.4.3.4.4.3.2-.6-.4-1.5-.6-1.8-.6-.8m173.6 5.8c-.4.3 1.6.4 6 .4s6.4-.1 6-.4c-.3-.2-3-.4-6-.4s-5.7.2-6 .4m-4.6 2c-.4.4-.6.9-.5 1 .1.1.5-.2.9-.8.8-1.2.6-1.3-.4-.2m78.6-.7 1.9 1.7c1 .9 1.5 1.1 1.1.6-.8-1-3-2.6-3-2.3m-121.2 4.3-1 .8 1.1-.5c.6-.2 1.1-.6 1.1-.8 0-.4 0-.4-1.2.5m-26.4 6.5c-2.7 2.9-3.7 4.5-3.5 5.6.2.9.2.9.2 0 .1-1.3 1-2.7 3.6-5.4 1.3-1.2 2.2-2.3 2-2.4l-2.3 2.2m138.8-1.8c0 .2.6.7 1.2 1.2.7.5 1.2.8 1.2.6 0-.2-.6-.7-1.2-1.2-.7-.5-1.2-.8-1.2-.6m-120 1.2-1 1.1 1.2-1 1.4-1.1-.3-.1c-.2 0-.8.5-1.3 1.1m140.6 1.4a742.8 742.8 0 0 1 2.4 2.2c-.6-.9-4-4.7-4.4-4.7-.2 0 .7 1.1 2 2.5M132.4 279c-1.4 1.4-2.4 2.6-2.2 2.6.4 0 5.3-5.2 5-5.2l-2.8 2.6m136 1.2a20 20 0 0 0 2.4 2.2l-2-2.2a20 20 0 0 0-2.4-2.2l2 2.2m-151.6 1.2c0 .5.1 1 .3 1.2.2 0 .3-.4.2-1-.2-1.5-.5-1.6-.5-.2m1.9 3c.7.8 1.3 1.3 1.4 1.2.1-.1-.5-.7-1.3-1.4l-1.4-1.1 1.3 1.3m162.2 0c-.7.7-1.2 1.2-1 1.2.2 0 .9-.5 1.5-1.2 1.5-1.5 1.2-1.5-.5 0m-159.7 1.7c.1.2 1 .3 1.8.2l1.6-.1-1.9-.2c-1-.1-1.7 0-1.5.1m156-.1-1.8.3h1.7c.9 0 1.8 0 1.9-.3l.1-.3-1.9.3m-240.6 6.8c.3.7.7 1.2.8 1.2.1 0 0-.5-.4-1.2-.3-.7-.7-1.2-.8-1.2-.1 0 0 .5.4 1.2m1 1.8.8 1.4c.6.7.7.7.4.2-.6-1.3-1.2-2-1.2-1.6m7.9 12.4.8.8c.2-.2-.9-1.8-1.2-1.8-.2 0 0 .4.4 1m7.3 9.7 1 1.3c.4 0-.6-1.5-1.3-2-.4-.4-.3-.1.3.7m2.8 3.5c.6.7 1 1.2 1.2 1.1l-1-1.2-1.1-1.1 1 1.2m5.5 6.6c1 1 2 2 2.2 2 .2 0-.5-.9-1.4-2-1-1-2-2-2.2-2-.2 0 .5.9 1.4 2m6.6 6.8c1 1.1 2 2 2.2 2l-1.8-2c-1-1.1-2-2-2.2-2l1.8 2m3.4 3c0 .2 1 1.2 2 2.2 1.1 1 2 1.6 2 1.4 0-.2-1-1.2-2-2.2-1.1-1-2-1.6-2-1.4m12.1 10.5c.4.6 4.7 3.8 4.8 3.7.1-.1-1-1-2.4-2.2-1.4-1-2.5-1.7-2.4-1.5m8.7 6.7 1 .8c.5.3 1 .5 1 .3s-.5-.6-1-.8c-.5-.3-1-.4-1-.3m17 10.5a12 12 0 0 0 3.6 2c.1 0-.8-.7-2-1.3-1-.6-1.8-.9-1.6-.7m5 2.7a14 14 0 0 0 3.4 1.7c.1 0-.5-.5-1.4-1-1.5-.8-2.4-1.1-2-.7m40.4 15.4c.3.2 1 .4 1.6.4 1.3 0 1-.2-.8-.5-1-.2-1.2-.2-.8 0m89.8.1c-1.1.3-1.1.3-.2.3.6 0 1.3 0 1.6-.3.7-.4.3-.4-1.4 0m-85.4 1 1.6.3c1 .2 1.2.2.8 0-.5-.4-2.8-.7-2.4-.4m80 .3c-.4.3-.2.3.8.1 1.7-.3 2-.5.8-.5-.6 0-1.3.2-1.6.4m-76.4.5 1.8.4c1 .2 1.4.2 1-.1-.5-.4-3.2-.6-2.8-.3m72.4.3c-.4.3 0 .3 1 .1 2-.3 2.3-.5.8-.5a4 4 0 0 0-1.8.4m-68 .5 1.8.4c1 .2 1.4.2 1-.1-.5-.4-3.2-.6-2.8-.3m5.2.8 2 .4c1.3.2 1.6.2 1.2 0-.5-.4-3.6-.7-3.2-.4m53 .3c-.5.2-.2.3 1 .1l2-.4c.3-.3-2.2 0-3 .3m-47 .5 2.4.4c1.4.2 1.8.1 1.2 0-1-.4-3.9-.6-3.6-.4m40.4.3c-.6.2-.2.3 1.2.1a13 13 0 0 0 2.4-.4c.3-.2-2.6 0-3.6.3m-28.8.8 5.6.3c2 0 2 0-.8-.3a57 57 0 0 0-5.6-.3c-2.5 0-2.5 0 .8.3m15.8 0c-2.7.3-2.7.3-.6.3l5.6-.3 3.4-.3H211l-5.6.3" />
        <path fill="#9e8446"
            d="M189.7 12.3h2.2c.6-.1.1-.2-1.1-.2-1.2 0-1.7.1-1.1.2m18.4 0h2.2c.6-.1.1-.2-1.1-.2-1.2 0-1.7.1-1.1.2m-24.8.4h3c.8 0 .1-.2-1.5-.2-1.7 0-2.3.1-1.5.2m30.4 0h3c.8 0 .2-.2-1.5-.2-1.6 0-2.3.1-1.5.2m-37.4.8h1.8c.5-.1 0-.2-.9-.2-1 0-1.4 0-.9.2m45.6 0h1.8c.5-.1 0-.2-.9-.2-1 0-1.4 0-.9.2m-51.2.8h1.6c.4-.1 0-.2-.9-.2s-1.2 0-.7.2m57.4 0h1.4c.4-.1 0-.2-.7-.2-.8 0-1 0-.7.2M157 16.8c-.6.3-.3.3.8.1l1.8-.4c.3-.3-1.8 0-2.6.3m-3.4.8c-.4.3-.3.4.6.2 1.5-.4 1.8-.6.8-.6a3 3 0 0 0-1.4.4m90.8-.3 1.4.5c.9.2 1 .1.6-.2-.5-.3-2.4-.6-2-.3M279 29.4c.2.2 1 .7 2 1 1 .5 1.5.7 1.3.4a9 9 0 0 0-2-1c-.9-.4-1.5-.5-1.3-.4M117 31l-2.7 1.6c0 .2 5.6-2.5 6-2.8.5-.5-1 0-3.3 1.2m168 1.5c.8.6 2.1 1.2 2.1 1a10 10 0 0 0-2.8-1.5l.6.5M109.5 35c-1.5.8-1.4 1.2.1.4.7-.3 1.2-.7 1.2-.8 0-.3 0-.3-1.3.4m179.7-.4s.5.5 1.2.8l1.2.4s-.5-.5-1.2-.8l-1.2-.4m5.6 3.2s.5.5 1.2.8l1.2.4s-.5-.5-1.2-.8l-1.2-.4m-195 3c-.7.4-1 .8-.8.8.4 0 2.6-1.6 2.2-1.6l-1.4.8M93 45.3c-2.4 1.7-2.7 2.2-.5.8l2.1-1.7c.4-.6.2-.5-1.6.9m212.4-1c.3.6 3.8 3 3.8 2.8l-2-1.7c-1.2-.8-2-1.3-1.8-1M85 51l-2.3 2c0 .2 1-.6 2.4-1.6 2.1-1.7 2.7-2.2 2.3-2.2L85.1 51m229.4.1c.4.5 2.7 2.3 2.7 2l-1.5-1.3c-.8-.6-1.3-1-1.2-.7m8.7 7 1.3 1.3 1.3 1.2-1.2-1.3c-1-1.2-1.4-1.5-1.4-1.2M71.8 62.5l-2 2.1 2.1-2c2-1.8 2.3-2.2 2-2.2l-2.1 2.1m256-.1c1 1.1 2 2 2.2 2l-1.8-2c-1-1.1-2-2-2.2-2l1.8 2m7 6.6c0 .3 1.1 1.5 2.5 2.8l2.5 2.4-2.4-2.6a82.9 82.9 0 0 1-2.6-2.6M62.2 72.1l-2 2.1 2.1-2c2-1.8 2.3-2.2 2-2.2l-2.1 2.1m278.6 3.7a42 42 0 0 1 1.5 1.8h.3c.1-.2-.6-1-1.5-1.8l-1.7-1.6 1.4 1.6M51.4 84.7c-2.1 2.7-2.3 2.9-2.1 2.9.1 0 1-1 2-2.4l1.8-2.4-1.7 1.9m176 2.6c-1.2.6-2.6 2-2.6 2.5 0 .2.3 0 .6-.5a7 7 0 0 1 2.1-1.7c.8-.4 1.3-.8 1.1-.8-.2 0-.8.2-1.2.5m-53.5 1.2a8 8 0 0 1 1.5 2.6c.3.8.6 1.2.6.8 0-1-1-2.8-2-3.7l-1-.8 1 1m50.2 2.6c-.2.3-.2 1.2-.1 2 .1 1.5.1 1.4.3-.5.2-2.1.1-2.5-.2-1.5M45.4 92.8c-.8 1.2-1.3 2-1 1.8.5-.3 3-3.8 2.7-3.8l-1.7 2m308.6-.2 1.6 2c.3.2-.2-.6-1-1.8-1.8-2.5-2.3-2.7-.6-.2m-178.4 1.3c-.2.8-.1 1.2.1 1 .2-.2.3-.8.2-1.4-.1-.8-.2-.7-.3.4m-16.4.6-1.8 1.3c-.4.3-.7.7-.6.8l2-1.4c1.9-1.6 2.2-2.2.4-.7m12 5.4-3.4 3.5 3.5-3.4a80.9 80.9 0 0 0-.1-.1m57.4.1 3.4 3.2a32 32 0 0 0-3-3.2 40.7 40.7 0 0 0-3.4-3.2 32 32 0 0 0 3 3.2m15-3s.5.5 1.2.8l1.2.4s-.5-.5-1.2-.8l-1.2-.4m114 .7c0 .4 2 3.5 2.3 3.5.2 0-.5-1-1.8-3l-.5-.5m-317 2.4-.7 1.3.9-1c.7-.9 1-1.6.7-1.6 0 0-.5.6-.8 1.3m210.1 1.1 2.6 1.2c.2 0-.6-.6-1.8-1.2L249 100c-.2 0 .6.6 1.8 1.2m-103.2.4c-.8.4-1.2.8-1 .8l1.8-.8c.8-.4 1.2-.8 1-.8a7 7 0 0 0-1.8.8m-9.8 3.2c-.6.3-.3.3.8.1l1.8-.4c.3-.3-1.8 0-2.6.3m132.6 1.5c4.4.3 8.7.3 8.5 0 0-.2-2.4-.3-5.2-.2-2.8 0-4.3.1-3.3.2m-151.6 1.6-1 1.1 1.2-1 1.4-1.1-.3-.1c-.2 0-.8.5-1.3 1.1m160.8-1 1.4 1.1 1.2 1-1-1.1c-.5-.6-1.1-1.1-1.3-1.1-.3 0-.4 0-.3.1M35 109.6l-.4 1.2s.5-.5.8-1.2l.4-1.2s-.5.5-.8 1.2m329.6 0c.3.7.7 1.2.8 1.2.1 0 0-.5-.4-1.2-.3-.7-.7-1.2-.8-1.2-.1 0 0 .5.4 1.2m-206 0c-.7.4-1 .8-.8.8.4 0 2.6-1.6 2.2-1.6l-1.4.8m124.3 2.6c0 .9 0 1.2.2.7v-1.6c-.1-.4-.2 0-.2.9m-131.1.8c-1.1.5-2.3 1-2.6 1-.3 0-.4.1-.1.2.4.2 4.9-1.6 4.9-2 0-.3 0-.3-2.2.8M31 117.2l-1.3 3 1.6-2.8 1.3-3-1.6 2.8m112.2-1.2c-.4.3-.3.4.6.2 1.5-.4 1.8-.6.8-.6a3 3 0 0 0-1.4.4m111.6-.3 1.4.5c.9.2 1 .1.6-.2-.5-.3-2.4-.6-2-.3m114.3 2.5c.6 1.2 1.1 2.1 1.2 2 .2-.2-1.8-4.2-2.1-4.2a8 8 0 0 0 .9 2.2m-233.9-.6c-1.3.4.1.4 1.8 0 1-.3 1.1-.3.2-.3-.5 0-1.4.1-2 .3m127.8 0c1.7.4 3.1.4 1.8 0a7 7 0 0 0-2-.3c-.9 0-.9 0 .2.3M117 130a16.7 16.7 0 0 0 4.6-.2c.3-.3-3.8-.1-4.6.2m7.4-.3 2.8.4c1.5.1 2.3 0 1.8-.1-.8-.3-4.9-.5-4.6-.3m146.6.3a16.7 16.7 0 0 0 4.6-.2c.3-.3-3.8-.1-4.6.2m7.4-.3 2.8.4c1.5.1 2.3 0 1.8-.1-.8-.3-4.9-.5-4.6-.3m-165.8 1.1c-.3.5.1.5 1.2 0 .8-.3.8-.3 0-.4-.6 0-1 .2-1.2.4m19-.3 1.4.5c.9.2 1 .1.6-.2-.5-.3-2.4-.6-2-.3m134.8.3c-.4.3-.3.4.6.2 1.5-.4 1.8-.6.8-.6a3 3 0 0 0-1.4.4m19.8 0c1.1.5 1.5.5 1.2 0-.1-.2-.6-.4-1.1-.4-.9 0-.9 0-.1.4M99.4 136c-.7.4-1 .8-.8.8.4 0 2.6-1.6 2.2-1.6l-1.4.8m47.4.1c0 .1 1 .9 2.3 1.7 1.3.8 1.8 1 1.2.5-1.2-1-3.5-2.4-3.5-2.2m103.3 1.9-1.7 1.4c0 .2 2.3-1.3 3.4-2.3 1-.8-.2-.2-1.7.9m53.1-.3c0 .2.5.6 1.2 1.1l1.2.7c0-.2-.5-.6-1.2-1.1l-1.2-.7M156 143.4c1.2 1.3 2.3 2.4 2.4 2.3 0 0-.9-1.2-2.2-2.4l-2.4-2.3 2.2 2.4m-37.6-1.4-2.2.3h2c1.1 0 2.5-.1 3.2-.3 1.6-.4.2-.4-3 0m125.2 1.4a9 9 0 0 0-1.6 1.8l2-1.8a9 9 0 0 0 1.6-1.8l-2 1.8m35-1.4c1.2.3 5.3.5 5 .3a21.3 21.3 0 0 0-5-.3m-151.7.3h2c.5-.1 0-.2-1.1-.2s-1.5 0-.9.2m144.4 0h2c.5-.1 0-.2-1.1-.2s-1.5 0-.9.2m38.9 1.3 1.8 1.6a7 7 0 0 0-1.4-1.6l-1.8-1.6a7 7 0 0 0 1.4 1.6m-222 1.5c-1.1 1.2-1.8 2.1-1.5 2 .5-.4 3.9-4.3 3.6-4.3l-2.2 2.3m23.5-1.5c-.8.3-.9.3-.2.4.4 0 1-.2 1.4-.4.7-.5.2-.5-1.2 0m175.6 0c.3.2.8.4 1.1.4.3 0 1.3.4 2.2.8.9.4 1.7.7 1.8.6.2-.2-3.1-1.6-4.5-2-.9-.2-1-.1-.6.2m-46.6 3.3-1.2 1.3 1.3-1.2a10 10 0 0 0 1.3-1.3c0-.3-.3 0-1.4 1.2m-99.2.4a30 30 0 0 1 3 2c.8.8.9.8.4.1-.6-.8-4.5-3.4-5-3.4-.3 0 .5.6 1.6 1.3m153.8-.2a194.5 194.5 0 0 1 4.7 3.3c.4 0-3-2.6-4.4-3.3-1.3-.7-1.3-.7-.3 0m-39 1.5-1.6 1.5 1.7-1.3c1.6-1.2 2-1.6 1.6-1.6-.1 0-.9.6-1.7 1.4m57.8-.8c0 .3.6 1 1.2 1.8l1.3 1.4-1.2-1.6a21706 21706 0 0 0-1.3-1.6m-229.3 1.5c-1 1.2-2.3 3.5-1.8 3.1a35 35 0 0 0 3-4.4l-1.2 1.3m76.9.8 1.5 1.9c.3 0-1.3-2.5-2-3.1-.5-.4-.2.2.5 1.2m-14 2.1a20 20 0 0 0 2.4 2.2l-2-2.2a20 20 0 0 0-2.4-2.2l2 2.2m104.4.1-2.2 2.3 2.3-2.2a34 34 0 0 0 2.3-2.3c0-.3-.4 0-2.4 2.2m-154-.1-1.2 1.5c.1.1.8-.5 1.5-1.4 1.7-1.9 1.5-2-.3-.1m203.6 0c.8 1 1.5 1.6 1.6 1.5 0 0-.5-.8-1.4-1.6l-1.6-1.5 1.4 1.6m-65 .3c-1.4 2.3-1.5 2.5-.8 1.7.8-1 1.5-2.2 1.2-2.2 0 0-.3.2-.4.5m-219.2 1.3-.2 1.3c0 .4.2.2.4-.5.4-1.2.3-1.9-.2-.8m77.6 2c-1.3 1.7-2.1 3-1.5 2.4 1-1 3-3.9 2.8-4l-1.3 1.5m208.6-1.5a24 24 0 0 0 3 4.2c.3 0 .1-.3-1.4-2.4-.9-1.2-1.6-2-1.6-1.8m-287 3-.2 1.8c0 .4.2.1.4-.8.4-1.6.3-2.5-.1-1m366.2-.4c0 1 .6 2.7.6 1.8 0-.4-.1-1.2-.3-1.6-.2-.5-.3-.6-.3-.2m-230.3 1.8 1.5 2.4c.6.6-1.2-2.7-1.9-3.6-.4-.4-.2.1.4 1.2m93.8 1-.6 1.6s.6-.7 1-1.6l.6-1.6s-.6.7-1 1.6m-154.1.5-.8 1.3.9-1c.7-.9 1-1.6.7-1.6 0 0-.5.6-.8 1.3m214.5-1.1.8 1.4c.6.7.7.7.4.2-.6-1.3-1.2-2-1.2-1.6m-188.4.6c-.4.3 0 .3 1 .1 2-.3 2.3-.5.8-.5a4 4 0 0 0-1.8.4m6.4-.3 1.8.4c1 .2 1.4.2 1-.1-.5-.4-3.2-.6-2.8-.3m147.6.3c-.4.3 0 .3 1 .1 2-.3 2.3-.5.8-.5a4 4 0 0 0-1.8.4m6.4-.3 1.8.4c1 .2 1.4.2 1-.1-.5-.4-3.2-.6-2.8-.3m-163.3 1.3-1.1.8c0 .1.5 0 1.1-.3l1.7-.8c.5-.2.5-.2 0-.3l-1.7.6m15.8.7a25 25 0 0 1 5.7 5c.8 1 1.4 1.6 1.4 1.4 0-.8-4.4-5.1-6-6l-1-.4m23 .4.6 1.4c.3.6.6.8.6.5 0-.3-.3-1-.6-1.4-.3-.4-.6-.6-.6-.5m90.5.7c-.3.4-.5 1-.5 1.3 0 .3.3 0 .6-.7.7-1.3.6-1.8-.1-.6m-133.7 1.2-1.4 1.3 1.3-.9c1.1-.7 2-1.6 1.6-1.6l-1.5 1.2m56.8-.2c0 .5.2 1 .4 1.4.3.4.4.3.2-.6-.4-1.5-.6-1.8-.6-.8m96.2 1.1-1.2 1.3 1.3-1.2a10 10 0 0 0 1.3-1.3c0-.3-.3 0-1.4 1.2m25.6.4a16 16 0 0 0 1.7 1.9c.3 0-1.4-2.2-2.3-3-.5-.4-.3 0 .6 1.1m-212.3-.6c-.2.1-.3.6-.3 1 0 .8 0 .8.4 0 .4-1 .3-1.5-.1-1m78.3 1.1.7 1.8c.2.4.2.2 0-.6 0-.7-.4-1.5-.6-1.8-.2-.4-.2-.2 0 .6m87.7.3-.2 1.4c-.2.7-.2.7.2 0 .2-.4.4-1 .3-1.4-.2-.6-.2-.6-.3 0m18.6 1.1c-.4.4-.6.9-.5 1 .1.1.5-.2.9-.8.8-1.2.6-1.3-.4-.2m-93.3 0c0 1 .6 2.7.6 1.8 0-.4-.1-1.2-.3-1.6-.2-.5-.3-.6-.3-.2m61.7.6-.2 1.5c0 .6.2.4.4-.5.4-1.5.3-2-.2-1m92.5.8.4 1.8c.3.3 0-1.8-.3-2.6-.3-.6-.3-.3-.1.8m-246.5-.4-.2 1.7c0 .8.2.7.4-.5.3-1.7.3-2.3-.2-1.2m215.4 0c.6 1.3 1.2 2 1.2 1.6l-.8-1.4c-.6-.7-.7-.7-.4-.2m-135.1.8c0 .4.1 1.2.3 1.6.4 1 .4 0 0-1.4-.3-.8-.3-.8-.3-.2m-68.2.7c-.2.5-.3 1.3-.3 1.7 0 .4.2.1.4-.8.4-1.6.3-2.5-.1-1m222.2-.2c0 .4.1 1.3.3 1.8l.3 1v-1c0-.6-.1-1.4-.3-1.8l-.3-.8v.8M14 171.4c0 .9 0 1.2.2.7v-1.6c-.1-.4-.2 0-.2.9m279.3-.4c.4 1.5.6 1.8.6.8 0-.5-.2-1-.4-1.4-.3-.4-.4-.3-.2.6m92.3.2c0 .8 0 1 .2.7v-1.4c-.1-.4-.2 0-.2.7m-215.9 5.6c0 5.3 0 5.5.4 2.9a27 27 0 0 0 0-5.8c-.4-2.6-.4-2.4-.4 2.9m60-2.3v5.3c.4 2 .4 1.7.4-2.9 0-6 0-6.5-.4-2.4m94 2.3c0 4.4 0 4.7.3 2.5a21 21 0 0 0 0-5c-.3-2.2-.3-1.9-.3 2.5m-247.9-2.1v4.3c.3 1.5.4 1 .4-2.3 0-4.8 0-5.4-.4-2m64.4-.6c.3 2.3.5 2.4.5.4 0-1-.2-1.8-.4-1.9-.2-.1-.2.5-.1 1.5m101.8.3c0 1.2 0 1.7.2 1.1v-2.2c-.1-.6-.2-.1-.2 1.1m17.3-1c-.3 1-.2 6.3.1 6.9.2.2.3-1.4.3-3.5 0-4.3 0-4.3-.4-3.4m34.8 3.4c0 2.2.1 3.7.3 3.5.2-.3.3-1.9.3-3.5 0-1.7-.1-3.2-.3-3.5-.2-.2-.3 1.3-.3 3.5m17.5-.2c0 1.8.1 2.4.2 1.5v-3.2c0-.8-.2 0-.2 1.7m-223.6.2c0 1.6.1 2.3.2 1.5v-3c0-.8-.2-.2-.2 1.5m17.2 0c0 1.2 0 1.7.2 1.1v-2.2c-.1-.6-.2-.1-.2 1.1m281.2.2c0 1.1.1 1.5.2.9v-2c-.1-.5-.2 0-.2 1.1m-373.2.2c0 1 0 1.4.2.9v-1.8c-.1-.5-.2 0-.2.9m228.7 2 .2 2.2.1-2c0-1 0-2-.2-2.2-.2-.2-.2.7-.1 2m-101.5-.5c0 .7-.2 1.6-.3 2-.2.7-.2.7.2 0a4 4 0 0 0 .3-2l-.2-1.3v1.3m-34.8 1.3c0 1 .6 2.7.6 1.8 0-.4-.1-1.2-.3-1.6-.2-.5-.3-.6-.3-.2m-93.2 4.8c0 1.6.1 2.3.2 1.5v-3c0-.8-.2-.2-.2 1.5m76-2c0 .5 0 1.3.3 1.6.5.8.5 0 0-1.6l-.3-1v1m222.5.6c-.1.8-.2 1.6 0 1.7 0 0 .3-.5.4-1.3.2-.8.2-1.5.1-1.6-.1-.1-.3.4-.5 1.2m76.3 1.4c0 1.6.1 2.3.2 1.5v-3c-.1-.8-.2-.2-.2 1.5m-230.3-1c-.1.8-.2 1.6 0 1.7l.4-1.3c.1-.8.2-1.6 0-1.7l-.4 1.3m85.5-.6c0 1 .6 2.7.6 1.8 0-.4-.1-1.2-.3-1.6-.2-.5-.3-.6-.3-.2m-166 .8c0 .6.1 1.4.3 1.8.3.6.3.3.1-.8-.2-1.9-.5-2.4-.5-1m215.9 1c-.4.8-.6 1.4-.5 1.4.3 0 1.5-2.4 1.3-2.6 0-.1-.5.4-.8 1.2m31-.7-.3 1.6c-.2.7-.2.7.2 0 .2-.4.4-1.1.3-1.6-.2-.9-.2-.9-.2 0m-92.8.3c0 .4.1 1.2.3 1.6.4 1 .4 0 0-1.4-.3-.8-.3-.8-.3-.2m-61.4 1c-.4 1.7 0 2 .3.4.2-.7.2-1.3 0-1.4 0-.1-.2.3-.3 1m-13.3 2.4a7.1 7.1 0 0 0-.5 2.2c.1.1.5-.7.8-1.9.4-1 .6-2 .6-2.2-.1 0-.5.8-.9 2m87.6-1.1.7 1.8c.2.4.2.2 0-.6 0-.7-.4-1.5-.6-1.8-.2-.4-.2-.2 0 .6m-134.3.8c.6.7 1 1.2 1.2 1.1l-1-1.2-1.1-1.1 1 1.2m212.9 1c-.1.5-.2 1 0 1 0 .2.3-.1.4-.6.1-.5.2-1 0-1 0-.2-.3.1-.4.6m-12.7-.1c-.2.1-.3.6-.3 1 0 .8 0 .8.4 0 .4-1 .3-1.5-.1-1M12 190.8c0 1.2.1 1.7.2 1.1v-2.2c-.1-.6-.2-.1-.2 1.1m276-.6c-1 .8-1.7 1.4-1.5 1.4a14 14 0 0 0 3.4-2.8l-2 1.4m99.7 1c0 1.4.1 2 .2 1.3v-2.6c-.1-.7-.2-.1-.2 1.3m-275.8-.6c.7.6 1.3 1 1.5 1l-1-1c-.6-.5-1.2-1-1.4-1-.1 0 .3.5 1 1m42 1.8-.6 1.6s.6-.7 1-1.6l.6-1.6s-.6.7-1 1.6m91.6 0c.4.9 1 1.6 1 1.6l-.6-1.6c-.4-.9-1-1.6-1-1.6l.6 1.6m-80.7 5.2c-1.1 2.3-1.8 3.8-1.4 3.4a43 43 0 0 0 3.7-7.6c-.1 0-1.1 1.8-2.3 4.2m-40.4-3.3h1.4c.4-.1 0-.2-.7-.2-.8 0-1 0-.7.2m27.7 1.3c-.4.7-1.2 2-2 2.7-.7 1-.8 1.2-.2.7 1-1 3.4-4.2 3.1-4.4 0-.1-.5.4-.9 1m94.6-1a16 16 0 0 0 3.3 4.4c.8.7.8.7-.1-.4l-2.1-2.8c-.6-.9-1.1-1.4-1.1-1.3m58.2 2.7c-.8 1.1-2.6 3.2-4 4.5-1.5 1.6-1.9 2-.9 1.3 1.8-1.4 7.2-7.8 6.6-7.8l-1.7 2m-209.8.7c0 .2.9 1.2 2 2.3 1.8 2 1.6 1.6-.7-1.1-.7-.8-1.3-1.4-1.3-1.2m140 .7a42.2 42.2 0 0 0 6.3 8.7 62.8 62.8 0 0 1-6.3-8.7m153 1.4v.9c.2-.5.2-1.3 0-1.8v.9m-239.8.4a12 12 0 0 1-2.4 2.4c-1.4 1-2.3 2-2.1 2 .5 0 5.5-4.8 5-4.8-.3 0-.5.2-.5.4m103.8 1c.8 1 1.6 1.7 1.7 1.6.1-.1.2-.2 0-.3l-1.7-1.5-1.6-1.4 1.6 1.7m-168.7 1a8 8 0 0 0 1.3 1.6c.3.3 0-.3-.6-1.2-1.3-2-1.8-2.3-.7-.5m76 3.7c-.7 1-1 1.4-.6 1.1.8-.5 2.5-2.8 2.2-2.8l-1.5 1.7m136.8-.7c-1.9 1.4-2 1.6-.6.9l1.8-1.3c.7-.8.5-.7-1.2.4m16.3 1.6c-1 1.2-1.9 2.2-1.9 2.4a29 29 0 0 0 3.6-3.9c1-1.4.1-.6-1.7 1.5m-224.9 1 1.8 1.6a7 7 0 0 0-1.4-1.6l-1.8-1.6a7 7 0 0 0 1.4 1.6m205-.4c-.7.6-.7.7-.2.4 1.3-.6 2-1.2 1.6-1.2l-1.4.8m95 1.4v1c.2-.6.2-1.7 0-2.3v1.3m-375.7.2c0 1.2.1 1.7.2 1.1v-2.2c-.1-.6-.2-.1-.2 1.1m122.1.4c-.3.5.1.5 1.2 0 .8-.3.8-.3 0-.4-.6 0-1 .2-1.2.4m-21.8.5 1.4.5c.9.2 1 .1.6-.2-.5-.3-2.4-.6-2-.3m-21 1.4a17 17 0 0 0 2.4 2.2c1.4 1 1.1.6-1.6-1.7-1.5-1.3-1.7-1.4-.8-.5m216.4.6-1.6 1.7 1.6-1.4a42 42 0 0 1 1.8-1.5v-.3c-.2-.1-1 .6-1.8 1.5m-191.2-.9c.7.2 1.7.3 2.4.3 1 0 1 0-.4-.3-2-.4-3.7-.4-2 0m10.8 0c-1.7.4 0 .4 2 0 1.3-.3 1.4-.3.4-.3-.7 0-1.7.1-2.4.3m117-.3c.1 0 1 .7 1.8 1.5l1.6 1.4-1.4-1.5a6 6 0 0 0-1.7-1.5c-.3 0-.4 0-.3.1m26.2.3c2 .4 3.7.4 2 0-.7-.2-1.7-.3-2.4-.3-1 0-1 0 .4.3m10.8 0c-1.7.4 0 .4 2 0 1.3-.3 1.4-.3.4-.3-.7 0-1.7.1-2.4.3m-268.9 4c0 1.7.1 2.3.2 1.5v-3c0-.8-.2-.1-.2 1.5m374.8 0c0 1.7.1 2.3.2 1.5v-3c-.1-.8-.2-.1-.2 1.5m-291.7-.3c.5.7 2 1.7 2 1.4l-1.3-1.1c-.8-.6-1-.7-.7-.3m53.3.9c-1.9 1.3-2.1 1.7-.6.8l1.8-1.3c.6-.7.3-.6-1.2.5m101-.6c.5.6 2.9 2.2 2.9 1.9l-1.7-1.3c-1-.6-1.5-.9-1.2-.6M98 216.5c0 .3 3.6 2.4 3.8 2.2 0 0-.7-.6-1.8-1.2l-2-1m201.2 1.5c-.7.6-.7.7-.2.4 1.3-.6 2-1.2 1.6-1.2l-1.4.8m-285.9 4.8c0 1 0 1.4.2.9v-1.8c-.1-.5-.2 0-.2.9m373.2.2c0 1.1.1 1.5.2.9v-2c-.1-.5-.2 0-.2 1.1m-275.3-.6 1.2.4c.5 0 .5 0 0-.4l-1.2-.4c-.5 0-.5 0 0 .4m4 .8c.3.2 1 .4 1.6.4h1l-1-.4c-1.5-.5-2.4-.5-1.6 0m14.2 0c-1 .3-1.1.3-.2.3.6 0 1.4-.1 1.8-.3 1-.4 0-.4-1.6 0m139.6 0c.8.3 3 .6 2.6.3l-1.8-.4c-1.1-.2-1.4-.2-.8 0m14.4.1c-1 .3-1.1.3-.2.3.6 0 1.4-.1 1.8-.3 1-.4 0-.4-1.6 0m-269.3 5.6c0 .8 0 1 .2.7v-1.4c-.1-.4-.2 0-.2.7m371.6.2c0 .9 0 1.2.2.7V228c-.1-.4-.2 0-.2.9m-192.2 9.3h4.2c1.2 0 .2-.2-2.1-.2-2.3 0-3.3.1-2.1.2m9.2 0h4c1 0 .1-.2-2.1-.2s-3 .1-1.9.2m-14 .4h1.6c.4-.1 0-.2-.9-.2s-1.2 0-.7.2m21.2 0h1.6c.4-.1 0-.2-.9-.2s-1.2 0-.7.2m-24.6.4h1.4c.4-.1 0-.2-.7-.2-.8 0-1 0-.7.2m28 0h1.4c.4-.1 0-.2-.7-.2-.8 0-1 0-.7.2m-34.3 1c-.5.1-.2.2 1 0l2-.4c.3-.3-2.2 0-3 .3m39-.3 2 .4c1.2.2 1.5.1 1 0-.8-.4-3.3-.7-3-.4m-42.8 1.1c-.4.3-.3.4.6.2 1.5-.4 1.8-.6.8-.6a3 3 0 0 0-1.4.4m47.6-.3 1.4.5c.9.2 1 .1.6-.2-.5-.3-2.4-.6-2-.3m160.3 1.6c-.2.7-.2 1.3-.1 1.4l.4-1.1c.2-.7.2-1.3 0-1.4 0-.1-.2.3-.3 1m-210.7-.4c-.4.3-.3.4.6.2 1.5-.4 1.8-.6.8-.6a3 3 0 0 0-1.4.4m53.2-.3 1.4.5c.9.2 1 .1.6-.2-.5-.3-2.4-.6-2-.3M17.2 245c0 .5.2 1 .4 1.4.3.4.4.3.2-.6-.4-1.5-.6-1.8-.6-.8m178.1 5.3h3c.8 0 .1-.2-1.5-.2-1.7 0-2.3.1-1.5.2m6.4 0h3c.8 0 .2-.2-1.5-.2-1.6 0-2.3.1-1.5.2m47.5-.1s.5.5 1.2.8l1.2.4s-.5-.5-1.2-.8l-1.2-.4m-58.7.5h2.2c.6-.1.1-.2-1.1-.2-1.2 0-1.7 0-1.1.2m16.8 0h2.2c.6-.1.1-.2-1.1-.2-1.2 0-1.7 0-1.1.2m-62.2 2.3c-1.5.8-1.4 1.2.1.4.7-.3 1.2-.7 1.2-.8 0-.3 0-.3-1.3.4m108.5-.4s.5.5 1.2.8l1.2.4s-.5-.5-1.2-.8l-1.2-.4m4 2.6 1.8 1.2c.5.3.5.2-.2-.4l-1.8-1.2c-.5-.3-.5-.2.2.4m-120.2 3-1.7 1.4a17 17 0 0 0 3.9-2.6c0-.3 0-.3-2.2 1.2m125.4.3 1.5 1.3c.8.6 1.3 1 1.2.7-.4-.5-2.7-2.3-2.7-2m3.2 2.4 1.3 1.3 1.3 1.2-1.2-1.3c-1-1.2-1.4-1.5-1.4-1.2m-55.9 2.6c1.3 1.7 1.7 2.8 1.4 5-.2 1-.1 1.5.1 1 1-1.5.2-5-1.6-6.5-.8-.7-.8-.6.1.5m37.5-.6 2.8 2 2.8 1.7s-1-.9-2.3-1.7c-2.8-1.9-3.3-2.2-3.3-2m-98.1 1.7-1.5 1.2 1.6-.8c1.4-1 1.9-1.4 1.5-1.4l-1.6 1m-20.4.4c-.7.6-1.1 1.1-1 1.2 0 .1.7-.3 1.3-1 1.4-1.5 1.2-1.5-.3-.2m59 2.4c0 1 .2 2.1.9 3.2.5.9 1 1.5 1 1.3l-.7-1.4c-.4-.6-.8-1.9-1-2.9l-.2-1.8v1.6m-62.5.8a9 9 0 0 0-1.6 1.8l2-1.8a9 9 0 0 0 1.6-1.8l-2 1.8m149.2.8 2.8 2.6-2.4-2.6a27.4 27.4 0 0 0-2.8-2.6l2.4 2.6m-20-1.3c0 .2.5.6 1.2 1.1l1.2.7c0-.2-.5-.6-1.2-1.1l-1.2-.7m-113.7 3c-.6.5-1 .9-.8.9.2 0 .8-.5 1.3-1 1.2-1.3 1-1.3-.5 0m-20.8 3.4a16.9 16.9 0 0 0-2.3 2.6c0 .2 0 .3.1.2a143.3 143.3 0 0 1 4.6-5.2s-1.2 1-2.4 2.4m159.3.1 1.9 1.9c.3 0 0-.4-1.8-2l-1.9-1.8 1.8 1.9m-72.8-.9c-.8.3-.9.3-.2.4.4 0 1-.2 1.4-.4.7-.5.2-.5-1.2 0m55.6.9 1.4 1.1 1.2 1-1-1.1c-.5-.6-1.1-1.1-1.3-1.1-.3 0-.4 0-.3.1m-128.6 3.2-2.8 2.9 2.9-2.8a54.8 54.8 0 0 0-.1-.1m131.4-1c0 .2 1 1.3 2.3 2.5l2.3 2.2-2.2-2.4a73.9 73.9 0 0 1-2.4-2.4m17.7 3.6c0 .9 0 1.2.2.7v-1.6c-.1-.4-.2 0-.2.9m-253.3 0c0 .4 2.8 5.8 3 5.8.1 0-.4-1.3-1.2-2.9-1.5-3-1.8-3.4-1.8-3m339 3-1.2 2.9c.3 0 3-5.6 3-5.8-.2-.1-.9 1.2-1.7 2.8m-251.5-.7.8 1.4.8.9-.7-1.2c-.9-1.6-.9-1.6-.9-1.1m164.7 1-.7 1.3.8-1c.7-.7 1-1.6.7-1.6l-.8 1.3m-8.3 2c.3.4 1 .7 1.6 1 1.3.3 1 0-.8-.9-1-.4-1.2-.5-.8 0m-240.8 1.2a8 8 0 0 0 1.4 2.6c.1 0 0-.6-.4-1.3-.8-1.5-1-1.8-1-1.3m1.6 3.2.8 1.4c.6.7.7.7.4.2-.6-1.3-1.2-2-1.2-1.6m330.3 1.1-.8 1.3.9-1c.7-.9 1-1.6.7-1.6 0 0-.5.6-.8 1.3m-324.9 8.2c1.4 2 1.8 2.7 1.8 2.4 0-.4-2-3.5-2.3-3.5-.1 0 .1.5.5 1.1m315.3 7.2a26 26 0 0 0-3 4.5c.2 0 1-1.2 2-2.6 1.8-2.6 2.2-3.3 1-1.9m-308.3 3.3 1 1.2c.2 0-.1-.5-.6-1.2l-1-1.2c-.2 0 .1.5.6 1.2m2.4 3.3 2.6 3.3c.8.9.3.1-1-1.7-2.6-3.4-3.8-4.6-1.6-1.6m299.4 2.4c-1 1.4-1.3 1.9-.6 1.1 1.4-1.6 3-3.6 2.7-3.6l-2 2.5m-291.5 7.6 1.3 1.3 1.3 1.2-1.2-1.3c-1-1.2-1.4-1.5-1.4-1.2m282.5 3c-1.5 1.7-2.5 3-2.2 2.8.5-.4 5.5-5.9 5.2-5.9l-3 3M61 326.9l1.8 1.6a7 7 0 0 0-1.4-1.6l-1.8-1.6a7 7 0 0 0 1.4 1.6m12 12 1.8 1.6a7 7 0 0 0-1.4-1.6l-1.8-1.6a7 7 0 0 0 1.4 1.6m252.2 1.3-3 2.8 2.9-2.5c2.6-2.2 3.6-3.2 3.2-3.2l-3.1 2.9m-248.7 1.7c.8.9 1.5 1.5 1.6 1.4.1-.1-.6-.8-1.5-1.6l-1.6-1.4 1.5 1.6m238.5 6.6c-2.4 2-3.2 2.8-1.6 1.7 1.5-1 4-3.3 3.8-3.3l-2.2 1.6m-228.2 1.7c0 .2.5.6 1.2 1.1l1.2.7c0-.2-.5-.6-1.2-1.1l-1.2-.7m2.8 2c0 .2.5.6 1.2 1.1l1.2.7c0-.2-.5-.6-1.2-1.1l-1.2-.7m218.6 1.3-2.6 2c-.3.4.6-.2 2.1-1.2l2.7-2c0-.3 0-.3-2.2 1.2m-18 11.4c-.7.4-1 .8-.8.8.4 0 2.6-1.6 2.2-1.6l-1.4.8m-7.8 4a13 13 0 0 0-2.7 1.6c.4 0 5.9-2.8 5.9-3 0-.3.1-.3-3.2 1.4m-164 .8a7 7 0 0 0 1.8.8c.2 0-.2-.4-1-.8a7 7 0 0 0-1.8-.8c-.2 0 .2.4 1 .8m5.6 2.6 1.4.6c.2 0 0-.3-.6-.6l-1.4-.6c-.2 0 0 .3.6.6m36.4 11.8c.3.2 1 .4 1.4.4 1 0 .7-.2-.8-.6-.9-.2-1-.1-.6.2m78 0c-.8.3-.8.3-.2.3.4 0 1.2-.1 1.6-.3 1-.4 0-.4-1.4 0m-74.2.8c.8.3 3 .6 2.6.3l-1.8-.4c-1.1-.2-1.4-.2-.8 0m70 .1c-1 .3-1.1.3-.2.3.6 0 1.4-.1 1.8-.3 1-.4 0-.4-1.6 0m-64.1 1c.4.2 1 .2 1.4 0l-.7-.1c-.8 0-1 0-.7.2m58.4 0h1.4c.4-.1 0-.2-.7-.2-.8 0-1 0-.7.2m-53 .8h1.8c.5-.1 0-.2-.9-.2-1 0-1.4 0-.9.2m47.2 0h1.8c.5-.1 0-.2-.9-.2-1 0-1.4 0-.9.2m-40.4.8h2.8c.8-.1.2-.2-1.3-.2s-2.2.1-1.5.2m32.4 0h2.8c.8-.1.2-.2-1.3-.2s-2.2.1-1.5.2m-25.4.4h2c.5-.1 0-.2-1.1-.2s-1.5.1-.9.2m19.6 0h2c.5-.1 0-.2-1.1-.2s-1.5.1-.9.2m-10.8.4h3.8c1 0 .2-.2-1.9-.2-2 0-3 .1-1.9.2" />
        <path fill="#7e622c"
            d="M186.8 12a114.8 114.8 0 0 0 12.6-.2c.8-.3-11.2 0-12.6.2m13.8-.2a115.3 115.3 0 0 0 12.4.2c-1.5-.3-13.2-.5-12.4-.2m-22.6 1c-.6.2-.2.3 1.4.1l2.6-.3c.3-.3-3-.1-4 .2m40-.3 2.6.4c1.6.2 2 .1 1.4 0-1-.4-4.3-.6-4-.3m-46.2 1-.8.3h.8l2.4-.3 1.6-.3h-1.6c-.9 0-2 .1-2.4.3m52.6-.3 2.4.4c1.4.2 2 .1 1.4 0-.8-.4-4.1-.7-3.8-.4m-57.2 1.1c-1.3.4.1.4 1.8 0 1-.3 1.1-.3.2-.3-.5 0-1.4.1-2 .3m63.8 0c1.7.4 3.1.4 1.8 0-.6-.2-1.5-.3-2-.3-.9 0-.9 0 .2.3m-68.4.8-.8.3h.8c.4 0 1.3-.1 1.8-.3l1-.3h-1c-.6 0-1.4.1-1.8.3m73 0 1.8.3h.8l-.8-.3c-.4-.2-1.3-.3-1.8-.3h-1l1 .3m-76.4.8c-.8.5.2.5 1.4 0l.8-.3h-.8c-.4 0-1 0-1.4.3m80.2 0c.4.2 1.2.3 1.6.3h.8l-.8-.3c-.4-.2-1.2-.3-1.6-.3h-.8l.8.3m-83.8.8c-.8.3-.8.3-.2.3.4 0 1.2-.1 1.6-.3 1-.4 0-.4-1.4 0m87.4 0c.4.2 1.2.3 1.6.3.6 0 .6 0-.2-.3-1.4-.4-2.4-.4-1.4 0m-90.8.8-.8.3h.8c.4 0 1 0 1.4-.3.8-.5-.2-.5-1.4 0m94.2 0c.3.2 1 .4 1.4.4h.8l-.8-.4c-1.2-.5-2.2-.5-1.4 0m-96.8.8c-.5.3-.5.4 0 .4l1.2-.4c.5-.3.5-.4 0-.4l-1.2.4m99.6 0c.3.2 1 .4 1.4.4h.8l-.8-.4c-1.2-.5-2.2-.5-1.4 0m-102.6.8c-.5.2-.6.3-.2.3.3 0 1-.1 1.4-.3.5-.2.6-.3.2-.3a4 4 0 0 0-1.4.3m105.6 0c.4.2 1 .3 1.4.3.4 0 .3 0-.2-.3-.4-.2-1-.3-1.4-.3-.4 0-.3 0 .2.3m-109.6 1.2a6 6 0 0 0-1.7.8 24 24 0 0 0 4.7-1.4c0-.3-1-.1-3 .6M255 20c.4.2 1 .3 1.4.3.4 0 .3 0-.2-.3-.4-.2-1-.3-1.4-.3-.4 0-.3 0 .2.3m-116.6 1.8a783.2 783.2 0 0 1-7 2.9l2.7-.8a298.6 298.6 0 0 1 6.3-2.6c0-.2-.5 0-2 .5m121.6-.2 3.2 1.2a57.1 57.1 0 0 1 5.5 1.9c.2-.2-.7-.6-5.7-2.4-3.3-1.1-4-1.3-3-.7M110.3 34.2c-1.5.8-1.4 1.2.1.4.7-.3 1.2-.7 1.2-.8 0-.3 0-.3-1.3.4m178.1-.4s.5.5 1.2.8l1.2.4s-.5-.5-1.2-.8l-1.2-.4m2.8 1.5a168.3 168.3 0 0 1 14 8.8c1.6 1 2.8 1.8 2.6 1.5a48.5 48.5 0 0 0-8.9-6 49.4 49.4 0 0 0-7.7-4.3m-187.7 2.8a27 27 0 0 0-4 2.7 18 18 0 0 0 3.6-2c3.5-2.1 4.5-2.8 4-2.8l-3.6 2.1m-8 5a23 23 0 0 0-3.3 2.5c-.2.3 5.8-3.5 6.6-4.2.7-.7-.8.1-3.3 1.8m-6 4.2-2.7 2c-.6.7 3.3-1.9 4.4-2.9 1-.9.3-.5-1.8 1m219.1-1.2a21.1 21.1 0 0 0 5 3.4 20.3 20.3 0 0 0-5-3.4m5.5 4c0 .2.8.8 1.7 1.5A77 77 0 0 1 320 55c2.9 2.4 3.7 2.8 1.2.6a45.8 45.8 0 0 0-7-5.4M82 53c-2.2 1.7-5 4.2-4.7 4.2.2 0 4.9-3.8 6.2-5 1-1 .2-.6-1.5.8m-9.2 8.1c-2 2-2.6 2.6-1.3 1.5a289 289 0 0 1 5.2-5c-.2 0-2 1.6-3.9 3.5m251.6-2a135 135 0 0 1 6.3 5.6c0-.3-4.1-4.3-6.3-6-1.9-1.7-2-1.3 0 .4M66.6 66.8c-1 1.1-1.8 2-1.6 2 .4 0 4-3.6 3.8-3.8l-2.2 1.8M331.2 65a40 40 0 0 0 4 4.4c2.1 2.3 4.6 5 5.6 5.9l1.7 1.8-1.6-2a95.6 95.6 0 0 0-9.7-10M61 72.8a32 32 0 0 0-3.4 4 135 135 0 0 1 7.1-7.7c-.1 0-1.8 1.6-3.7 3.7m-5.3 6a26 26 0 0 0-3.6 4.7l2.9-3.3c2.4-3 3-4 .7-1.4m287.1-1.5 2.1 2.7a77 77 0 0 1 3.3 4.2 7 7 0 0 0 1.5 1.7 41.6 41.6 0 0 0-7-8.6M49.2 87.1c-.9 1-3.3 4.8-2.6 4.1.8-.8 3.6-4.8 3.4-4.8l-.8.7m302.5 1.7 2.1 2.7a18 18 0 0 0-3.4-4.9c-.2-.2.3.8 1.3 2.2m-183.4-1.6c-.5.2 0 .3 1.5.3 1.2 0 2-.2 1.8-.4-.6-.4-2.3-.3-3.3 0m60.3 0c-.4.3.3.4 1.7.4 1.3 0 2-.2 1.5-.4-1-.4-2.6-.4-3.2 0m-56.1.6s.6.6 1.3 1l1.3 1-1-1c-.8-1-1.6-1.4-1.6-1m53.8.7c-.6.5-1 1-.9 1 .1.2.7-.2 1.3-.8 1.3-1.2 1.1-1.3-.4-.2m10 2.6a49 49 0 0 0 13.3 9.8l-2.3-1.6a45 45 0 0 1-9.5-7.3 57 57 0 0 0-4.2-3.8c-.5-.3.7 1 2.7 2.9m-192 2.9a24.5 24.5 0 0 0-3 4.9 63 63 0 0 0 4.6-6.8l-1.6 1.9m312 1.5c1.3 1.9 2.4 3.3 2.5 3.2.2-.2-3.7-6-4.3-6.4a13 13 0 0 0 1.9 3.2m-196.9-.7c-2 1.8-5 3.7-9.2 6-3.7 2-3.8 2.3-.2.5a53.5 53.5 0 0 0 11.2-7.8c-.1 0-1 .5-1.8 1.3m65-.7c0 2 9.2 11 14.2 13.8a79.8 79.8 0 0 1-9-7.7 24 24 0 0 1-4.4-5c-.4-1-.8-1.4-.8-1m-52.6 4.6a62.3 62.3 0 0 1-10.3 8.7c-2.4 1.6-3.3 2.5-1 1a70 70 0 0 0 14.1-12.3c-.2 0-1.5 1.2-2.8 2.6m-132.3 2.6c-2 3.1-3.6 5.9-3.4 5.9a39 39 0 0 0 2.6-4c2.6-4.2 3.1-5.6.8-1.9m321.8 1.9 2.5 4a415.6 415.6 0 0 1-4.7-8c-.1 0 .8 1.8 2.2 4M250 101c0 .3 2.4 1.5 2.6 1.3.1 0-.4-.5-1.2-.8-.8-.4-1.4-.6-1.4-.5m-106.8 2.6c-.5.3-.5.4 0 .4l1.2-.4c.5-.3.5-.4 0-.4l-1.2.4m112.4 0 1.2.4c.5 0 .5 0 0-.4l-1.2-.4c-.5 0-.5 0 0 .4m-118 1.6c-.8.3-.8.3-.2.3.4 0 1.2-.1 1.6-.3 1-.4 0-.4-1.4 0m123.6 0c.3.2 1 .4 1.4.4h.8l-.8-.4c-1.2-.5-2.2-.5-1.4 0m-128.6.8-1.6.3h1.8c1 0 2.2-.1 2.6-.3 1-.4-.3-.4-2.8 0m132 0c.8.3 4.5.6 4.2.3l-2.6-.4c-1.6-.2-2.1-.2-1.6 0M120 107.4c-2.2 1.4-3.8 6-2.5 6.9.2 0 .3-.6.2-1.5-.2-2.4.8-4.2 3-5.4 1-.5 1.6-.9 1.2-.9a5 5 0 0 0-2 1m160.8.6c.5.6 1.1 1.7 1.5 2.6.3.9.6 1.3.6.9 0-1-1-2.8-2-3.7l-1-.8.9 1m83.3-.3 1.1 2.2a14 14 0 0 1 1.4 2.7c.2.4.4.6.5.5.2-.1-.4-1.4-1.2-2.8-1.6-2.6-1.8-3-1.8-2.6m-329.8 2.7-.4 1.2s.5-.5.8-1.2l.4-1.2s-.5.5-.8 1.2m207-1s.6.5 1.3.8l1.3.6-1-.8c-1-.8-1.6-1-1.6-.6m4 2.2a7 7 0 0 0 1.8.8c.2 0-.2-.4-1-.8a7 7 0 0 0-1.8-.8c-.2 0 .2.4 1 .8m37 1.8a5.5 5.5 0 0 1-3.5 4c-1.2.4-1.3.5-.5.4 2.3-.4 4.9-3.2 4.5-4.9 0-.5-.2-.4-.4.5m84.9.3c0 .5 1.3 2.7 1.5 2.6.2-.2-1-2.7-1.3-2.7l-.2.1m-220 .7c-.5.3-.5.4 0 .4l1.2-.4c.5-.3.5-.4 0-.4l-1.2.4m-29.2.7c0 .4 2 2.3 2.2 2l-1-1.2c-.7-.6-1.2-1-1.2-.8m136 .1 1.2.4c.5 0 .5 0 0-.4l-1.2-.4c-.5 0-.5 0 0 .4m-112 .8c-.5.3-.5.4 0 .4l1.2-.4c.5-.3.5-.4 0-.4l-1.2.4m114.8 0 1.2.4c.5 0 .5 0 0-.4l-1.2-.4c-.5 0-.5 0 0 .4m-118.6.8-1.2.3h1.2a6 6 0 0 0 2-.3l.8-.3h-.8l-2 .3m121.8 0a7 7 0 0 0 2 .3c.9 0 .9 0-.2-.3-1.7-.4-3.1-.4-1.8 0m-128 .8-2.2.3h2.2c1.2 0 2.7-.1 3.2-.3l1-.3h-1l-3.2.3m132.8 0c1 .3 5.5.5 5.2.3a21.4 21.4 0 0 0-5.2-.3m105.6 2.6.8 1.8c.4.8.8 1.2.8 1l-.8-1.8c-.4-.8-.8-1.2-.8-1m1.6 3.7a10 10 0 0 0 1.6 2.8c0-.4-1.2-3.1-1.4-3.1-.1 0-.2.1-.2.3m2.4 5.5 1.2 3.3c.7 1.7 2.3 6 3.4 9.5 2.3 6.8 3 8 1 1.7a107.1 107.1 0 0 0-4.8-13.7c0-.3-.2-.7-.4-.8-.2-.1-.4-.2-.4 0m-254.8.6c-2.2.3-2.2.3-.4.3 1 0 2.6-.1 3.6-.3 2.3-.4.2-.4-3.2 0m157.6 0c1.8.3 5.5.5 5.2.3a26 26 0 0 0-5.2-.3m-151.5.3h2c.5-.1 0-.2-1.1-.2s-1.5 0-.9.2m146.8 0h2c.5-.1 0-.2-1.1-.2s-1.5 0-.9.2m-158.7.5c-.5.2 0 .3 1.2.1l2.2-.4c.3-.3-2.6 0-3.4.3m15-.3 2.4.4c1.4.2 1.8.1 1.2 0-1-.4-3.9-.6-3.6-.4m138.8.3c-.6.2-.2.3 1.2.1a13 13 0 0 0 2.4-.4c.3-.2-2.6 0-3.6.3m15.2-.3 2.2.4c1.3.2 1.7.1 1.2-.1-.8-.3-3.7-.6-3.4-.3m-258.7 1.8-1.7 4.5c-.6 1.8-1.1 3.4-1 3.5l.8-1.8a300.9 300.9 0 0 1 2.5-7.2c-.1 0-.4.4-.6 1m86.3-.7c-.4.3-.3.4.6.2 1.5-.4 1.8-.6.8-.6a3 3 0 0 0-1.4.4m24 0c1.4.4 2.4.4 1.4 0-.4-.2-1.2-.3-1.6-.3-.6 0-.6 0 .2.3m129.4 0a211.5 211.5 0 0 1-2.1 1l2.5-.6c1.3-.4 2-.8 1.6-.7-.4 0-1.3.1-2 .4m23.8-.4 1.4.5c.9.2 1 .1.6-.2-.5-.3-2.4-.6-2-.3m-149.8 1.3c2 .8 3.3 1 1.6.2l-2.2-.8c-.3 0 0 .3.6.6m153.2-.2c1.1.5 1.5.5 1.2 0-.1-.2-.6-.4-1.1-.4-.9 0-.9 0-.1.4m-148.2 2.1a83 83 0 0 0 5 2.5 23 23 0 0 0-4.9-2.6c-.1 0-.2 0 0 .1m110.4 1.7c-1 .6-1.7 1.2-1.6 1.3l2.1-1c2.4-1.6 1.9-1.7-.5-.3m47.5.6c1 .8 1.6 1 1.6.6 0 0-.6-.5-1.3-.8l-1.3-.6 1 .8m-206 2.5a52.5 52.5 0 0 0-11 11.9c-.5 1 .3 0 2.3-2.6a52.7 52.7 0 0 1 11.1-10.8c0-.3 0-.3-2.4 1.5m208.9-.8 3.6 3c1.4 1.1 3.3 3 4.3 4.3 1 1.2 2 2.2 2.1 2.2a27 27 0 0 0-5.7-6.3c-2.4-2-6.2-4.9-4.3-3.2m-153.7.2a35.4 35.4 0 0 1 5.2 4.4c1.5 1.5 2.8 2.6 2.8 2.4a67 67 0 0 0-6.9-6.4c-.6-.4-1.1-.6-1.1-.4m97.8 1.3a41.7 41.7 0 0 0-5.8 5.6c0 .1 1.3-1 2.8-2.5a35.4 35.4 0 0 1 5.2-4.4c0-.4 0-.4-2.2 1.3m-227.6 3a7 7 0 0 0-.5 2.5c.1 0 .5-.9.9-2.1.8-3 .6-3.3-.4-.4m101.7-1.5h2.4c.6-.1 0-.2-1.3-.2s-1.8.1-1 .2m154 0h2.3c.6-.1 0-.2-1.3-.2s-1.8.1-1 .2m15.2 3c0 .2.5.6 1.2.9l1.2.4s-.5-.5-1.2-.8l-1.2-.4M19 147c-.1.6-.2 1.2 0 1.3l.4-1c.1-.5.2-1 0-1.2l-.4 1m139.4-1c0 .2.6 1.1 1.4 2.1.8 1 1.4 1.7 1.4 1.5 0-.2-.6-1-1.4-2l-1.4-1.6m82.1 1.2a32.4 32.4 0 0 0-3.3 4.6c-.8 1.6-.1 1 1.4-1.4a34.8 34.8 0 0 1 3-4.1c-.2 0-.6.4-1 .9m-138.1.7a11 11 0 0 0-1.9 1.6c-.2.4 3-1.8 3.8-2.6.6-.6-.6 0-1.9 1m153.6.3c-.8.8-1 1.1-.5.7.5-.5 1.4-1.2 2-1.5.5-.4.8-.7.5-.7-.2 0-1.1.7-2 1.5m39.5-1.4a43.9 43.9 0 0 0 3.3 2.3 11 11 0 0 0-3.3-2.3m85.6 2.5c0 .4.2 1 .4 1.4.5.8.5-.2 0-1.4l-.3-.8v.8m-363.1.6c-.1.5-.2 1 0 1 0 .2.3-.1.4-.6.1-.5.2-1 0-1 0-.2-.3.1-.4.6m297.6 1.1c.6 1 1.2 1.7 1.3 1.7.3 0-1-2.3-1.7-2.8-.4-.4-.2.1.4 1.1m-168 .9c1 1.1 2 2 2.2 2l-1.8-2c-1-1.1-2-2-2.2-2l1.8 2m104 .1-2 2.1 2.1-2c2-1.8 2.3-2.2 2-2.2l-2.1 2.1M98 151.9l-1.4 1.5 1.6-1.4 1.8-1.5-.3-.1a6 6 0 0 0-1.7 1.5m202-1.4c.1 0 1 .7 1.8 1.5l1.6 1.4-1.4-1.5a6 6 0 0 0-1.7-1.5c-.3 0-.4 0-.3.1m-282.6 2.1v1.3c0 .1.3-.3.4-.9.2-.6.2-1.1.1-1.2-.1-.1-.3.2-.5.8m145-.8 1.2 2c1.5 2.4 1.6 2 .2-.4-1-1.6-1.4-2.1-1.4-1.6m219.6.4c0 .4.2 1 .4 1.4.5.8.5-.2 0-1.4l-.3-.8v.8m-300 1.6c-.5 1-1 1.9-.8 2l1.2-1.8c1.4-2.5 1.1-2.6-.3-.2m235.6.5c.3.7.7 1.3.8 1.3.4 0 .2-.6-.6-1.6l-.8-1 .6 1.3m-222.7.8c-1.1 1.4-1.6 2.1-1.4 2.1a6 6 0 0 0 1.3-1.4c1-1.4 1.2-2 .1-.7m55.7.3c1.6 2 1.7 2 1.3 1.2a5 5 0 0 0-1.4-1.6c-.9-.8-.9-.8 0 .4m98.2-.1-1.1 1.5c-.3.6-.2.5 1.4-1.3l.7-1.1-1 .9m56 .4 1.4 1.5c.3 0-1.5-2.3-2-2.7-.2-.1 0 .4.7 1.2m77.8-.5c0 .6.2 1.4.4 1.8.3.6.3.3.1-.8-.2-1.9-.5-2.4-.5-1m-366.2.9c-.3 1.6 0 2 .4.3.2-.7.2-1.3 0-1.4l-.4 1m302.2 0a25.2 25.2 0 0 0 2.4 5.2c0-.6-2.3-5.6-2.4-5.2m-239.2 3-.3 1.3c.1 0 .4-.4.6-1 .6-1.6.2-1.7-.3-.2m304-.1.4 1.6.3.8v-.8c0-.4-.1-1.2-.3-1.6l-.3-.8v.8m-367.8.4a3 3 0 0 0-.3 1.3c0 .5.2.4.4-.3.2-.5.4-1.1.3-1.3 0-.3-.3-.1-.4.3m106.2 0c.6.2 1.5.2 2 0h-2m154 0c.6.2 1.5.2 2 0h-2m-43.4 1.9-.7 2.3c0 .3.4-.4.8-1.6 1-2.6.8-3.2-.1-.7m-78.1.3c.3.7.7 1.2.8 1.2.1 0 0-.5-.4-1.2-.3-.7-.7-1.2-.8-1.2-.1 0 0 .5.4 1.2m114.4-.4c-1.6 1-1 1 .7 0 .7-.4 1.1-.8.9-.8l-1.6.8m14.2-.6a10 10 0 0 0 2.8 1.4c.3 0-1.3-1-2.1-1.3-.4-.2-.7-.2-.7-.1m-204.7 1.7c-.7 2.3-1 3.7-.6 2.7.7-1.5 1.4-3.9 1.2-4 0-.1-.4.5-.6 1.3m306 .1c0 .5.1 1.4.3 2l.3 1v-1c0-.6-.1-1.5-.3-2l-.3-1v1m-369.5 1c-.2.8-.2 1.5-.1 1.6.1.1.3-.4.5-1.2.1-.8.2-1.6 0-1.7 0 0-.3.5-.4 1.3m250.7 0c-1 .8-2 2-2.5 2.7l-.9 1.3 1.2-1.3c.6-.8 1.8-2 2.7-2.7l1.4-1.4-1.9 1.4m20.7-1.3 2.1 2c1.2.9 1.8 1.4 1.5 1a17 17 0 0 0-3.6-3m34.8 0c.1.9 1.6 5.5 1.6 5 0-.9-1.2-5.1-1.4-5.1l-.2.1m-186 2.5c.7.8 1.4 1.4 1.6 1.4l-1.2-1.4a8.7 8.7 0 0 0-1.6-1.4l1.2 1.4m32.8.2.4 1.4.3.8v-.8c0-.4 0-1-.3-1.4-.3-.5-.4-.5-.4 0m63.4.2-.2 1.5c0 .6.2.5.5-.4.4-1.4.2-2.2-.3-1M77 167.5a5 5 0 0 0 0 1.9l.4-1.5c.2-1 .2-1.7 0-1.8l-.4 1.4m308.3-.8c0 .5.1 1.5.3 2.2l.3 1.2V169c0-.7-.1-1.7-.3-2.2l-.3-1v1M14.2 168c-.2 1-.2 1.7 0 1.8l.4-1.4a5 5 0 0 0 0-1.9l-.4 1.5m123.4-.2 1 1.4c.3 0-1-2.3-1.4-2.6-.2-.1 0 .4.4 1.2m31.5 1.8.4 2.4c.2.3 0-2.6-.3-3.6-.2-.6-.3-.2-.1 1.2m61.6-.5a21 21 0 0 0-.2 3.3c0 1.3.1.9.3-1.4.4-3.3.3-4.5-.1-2m-73.2 1.3c.3 2 .5 2.2.5.4 0-.8-.2-1.6-.4-1.7-.2-.1-.3.4-.1 1.3m84.8-1.2c-.2.1-.3 1-.3 1.9l.1 1.6.3-1.8c.3-1.9.3-2.2-.1-1.7m69.2 1.8c.2 2.9.4 3.3.5.9a7 7 0 0 0-.4-2.5c-.1-.3-.2.3-.1 1.6M88 172c0 1.2 0 1.7.2 1.1v-2.2c-.1-.6-.2-.1-.2 1.1m235.3 4.8c0 5.8 0 6.4.2 3.4.2-2 .2-5.1 0-7-.2-2.7-.2-2-.2 3.6m-247-3.1v6.5c.2 2.5.3 1.8.3-3.3.1-7-.1-8.6-.4-3.2m309.8-1.9c0 .7.1 1.7.3 2.4l.3 1.2V174c0-.8-.1-1.8-.3-2.4-.3-1-.3-1-.3.2m-372.6.2a10 10 0 0 0-.3 2.4c0 1.3.1 1.3.4-.4.5-2 .3-3.6-.1-2m126.2.2c0 .4.1 1.3.3 1.8.3.8.3.8.3.2 0-.4-.1-1.3-.3-1.8-.3-.8-.3-.8-.3-.2m120.2 1c-.4 1.7 0 2 .3.4.2-.7.2-1.3 0-1.4 0-.1-.2.3-.3 1m-154.1.8c-.2 1-.2 1.7 0 1.8l.4-1.4a5 5 0 0 0 0-1.9l-.4 1.5m187.9-1.2c0 1 .6 2.7.6 1.8 0-.4-.1-1.2-.3-1.6-.2-.5-.3-.6-.3-.2m-124 4c0 1.6.1 2.3.2 1.5v-3c0-.8-.2-.2-.2 1.5m-11.6 0c0 1.4.1 2 .2 1.3v-2.6c-.1-.7-.2-.1-.2 1.3m-70.4 0c0 1.2 0 1.7.2 1.1v-2.2c-.1-.6-.2-.1-.2 1.1m142.4 0c0 1.2 0 1.7.2 1.1v-2.2c-.1-.6-.2-.1-.2 1.1m82-.2c0 1.1 0 1.5.2.9v-2c-.1-.5-.2 0-.2 1.1m74.8 1 .3 2.8.3 1.8v-1.6c0-.9-.1-2.1-.3-2.8-.3-1-.3-1.1-.3-.2m-374.2.8c-.2.7-.3 1.9-.3 2.5 0 1 .2.6.5-.9.4-2.4.2-3.8-.2-1.6m93 0c0 .6.1 1.4.3 1.8.3.6.3.3.1-.8-.2-1.9-.5-2.4-.5-1m188.4.2-.2 1.8-.2 1 .4-1c.2-.5.4-1.3.3-1.8-.2-.8-.2-.8-.3 0m-34.3.4c0 .4.1 1.3.3 1.8.3.8.3.8.3.2 0-.4-.1-1.3-.3-1.8-.3-.8-.3-.8-.3-.2m-119.8 1c-.4 1.7 0 2 .3.4.2-.7.2-1.3 0-1.4 0-.1-.2.3-.3 1M88 181.7c0 1.2 0 1.7.2 1.1v-2.2c-.1-.6-.2-.1-.2 1.1m142.3 0c0 1.2.2 2.7.4 3.2.2.6.2-.3.1-2-.2-3.6-.5-4.2-.5-1.2m81.3 0c0 1.2.1 1.7.2 1.1v-2.2c-.1-.6-.2-.1-.2 1.1M169 183.5a9.2 9.2 0 0 0-.1 2.5c.2.3.7-3.3.5-4.2 0-.4-.3.4-.4 1.7m73-1c0 .8 0 1.7.3 2 .2.4.3 0 .1-1.2-.3-2.2-.5-2.6-.5-.8m-84.3 0c0 .7-.2 1.5-.3 1.9-.2.7-.2.7.2 0a3 3 0 0 0 .3-1.8l-.2-1.1v1m-69 2.6c0 .7.4 1.5.6 1.8.2.4.2.2 0-.6 0-.7-.4-1.5-.6-1.8-.2-.4-.2-.2 0 .6m299.2 6.6c.1 3.6.3 6.7.4 6.8.2.3 0-10.2-.3-11.8-.2-1-.2 1.2 0 5m-376.1-4.2c-.2 1-.3 4.3-.2 7.2v5.2l.3-7c.3-7.3.3-8.5-.1-5.4m96.4-1.2a5 5 0 0 0 1.4 1.6c.9.8.9.8 0-.4-1.7-2-1.8-2-1.4-1.2m182.5.7c-1.7 2.3-2.1 3-.8 1.5 1.2-1.4 2.2-2.8 1.9-2.8l-1.1 1.3m31.7-.2-.3 1.6c-.2.7-.2.7.2 0 .2-.4.4-1.1.3-1.6-.2-.9-.2-.9-.2 0M135.8 188a34 34 0 0 1-3.8 3.7c1.2-.7 4-3.1 4.8-4.3 1.2-1.5.9-1.4-1 .6m95.5-1.1c0 .4.1 1.2.3 1.6.4 1 .4 0 0-1.4-.3-.8-.3-.8-.3-.2m-63 .8c-.2.6-.2 1.2-.1 1.3 0 .1.3-.3.4-.9.2-.6.2-1.1.1-1.2-.1-.1-.3.2-.5.8M78 189.2c.1.8.5 2 .8 2.6.6 1.3.6 1.3-.3-2.1-.5-1.8-.9-2.2-.5-.5m186.1-.8c0 .3 3 2.8 4 3.4.3.1 0-.2-.8-.9l-2.3-2c-.5-.5-.9-.7-.9-.5m56.7 4c-.6 1.9-.9 3.1-.7 3 .4-.6 2-5.4 2-5.8-.1-.2-.7 1.1-1.3 2.9m-88.7-2.2c0 .5.2 1 .4 1.1.5.3.5-.1 0-1.2-.3-.8-.3-.8-.4 0m-141.6 0c0 .6 2 4.2 2.2 4.2.2 0 0-.4-1.6-3.4-.3-.7-.6-1-.6-.8m76.6 1.6-.5 2c.1.2.5-.6.9-1.6s.6-2 .5-2c-.1-.2-.5.6-.9 1.6m141.2.6-.9 2a14 14 0 0 0 2.2-3.9c-.1 0-.7.8-1.3 1.9m-187 1.7h3.8c1.7-.3 1.5-.4-1.8-.4-3 0-3.5 0-2 .4m153.8 0h4c1.7-.3 1.4-.4-2-.4s-3.7 0-2 .3m-195.4.2c0 .5 1.2 3 1.4 3 .2 0-.2-1-.9-2.4-.3-.6-.5-.8-.5-.6m154 .3a36 36 0 0 0 3 5.9c.1 0-.4-1.3-1.2-2.9-1.5-3-1.8-3.4-1.8-3m-84.8 6c-1.4 1.6-2.3 2.6-1.9 2.3.9-.6 4.9-5.2 4.6-5.2l-2.7 2.9m168.7-.9-1 2c.4 0 2.4-3.6 2.2-3.8l-1.2 1.8M96 199.4c.6.7 1 1.2 1.2 1.1l-1-1.2-1.1-1.1 1 1.2m153.8.1 2.3 2.5c1 1 .9.7-.6-1.1-2.3-2.7-3-3.2-1.7-1.4m52.9.9c-1 1.1-1.6 2-1.5 2 .1 0 1-.9 1.9-2 1-1.1 1.6-2 1.5-2-.1 0-1 .9-1.9 2m-220.8-1 .8 1.4c.6.7.7.7.4.2-.6-1.3-1.2-2-1.2-1.6m-70.3 6.4c0 3 0 6.3.3 7.2.1.9.2-1.4.1-5.2-.2-8.4-.4-9.5-.4-2m149.7-2.7c-1 1.6-1.1 2-.4 1.1 1-1.2 2.4-3.4 2-3.4l-1.6 2.3m226.7 2.3-.3 6.8c-.2 2.7-.2 2.7.2.9.2-1 .4-4.1.3-6.8l-.1-4.9-.1 4m-303-1c1 1.2 2.3 2.8 3 3.4l1.3 1.2-1.2-1.4a54.4 54.4 0 0 1-4.5-5.6l1.5 2.3m228.7.7-2 2.8a48 48 0 0 0 4.3-5.3c.7-1.2-.2-.3-2.3 2.5m-16.6.2c-.7.7-1.2 1.2-1 1.2.4 0 2.6-2 2.4-2.2l-1.4 1m-57.4.3a13 13 0 0 0 1.7 1.9c.5.4.3 0-.6-1.1-1.6-2-2.3-2.6-1-.8m-84 4c-2.2 2.5-1.8 2.6.6 0 1-1 1.8-1.9 1.6-1.9a9 9 0 0 0-2.1 1.9m-18.9-.7c-.8.4-1.3.8-1 .8.3 0 2.6-1.2 2.6-1.4 0-.3 0-.3-1.6.6m124-.6c0 .3 2.4 1.5 2.6 1.3.1 0-.4-.5-1.2-.8-.8-.4-1.4-.6-1.4-.5m-18.4.5c0 .2.4.8 1 1.3.5.5 1 .8 1 .7 0-.2-.5-.8-1-1.3-.6-.6-1-.9-1-.7m-153.2.7c.2.5 4 4 4 3.7l-2-2.1c-1.2-1-2-1.8-2-1.6m24 1.4c.3.2 1 .4 1.4.4 1 0 .7-.2-.8-.6-.9-.2-1-.1-.6.2m12.6.8-2.4.3h2.2c1.2 0 2.7-.1 3.2-.3 1.2-.4.5-.4-3 0m144.6 0c1 .3 5.5.5 5.2.3a21.4 21.4 0 0 0-5.2-.3m-151.9.3h2.2c.6-.1.1-.2-1.1-.2-1.2 0-1.7 0-1.1.2m32.8 1.5c-2.7 2.1-3.1 2.6-.9 1 2.6-1.7 3.4-2.4 3.2-2.5-.1-.1-1.1.5-2.3 1.5m94.8-1.1c.7.8 4.3 3.5 4.3 3.2a22.2 22.2 0 0 0-4.3-3.2m32.4-.4h2.2c.6-.1.1-.2-1.1-.2-1.2 0-1.7 0-1.1.2m28.3.3a32 32 0 0 1-3.6 2.7 16 16 0 0 0-3 2.2c.2.2 6-3.7 6.8-4.7.4-.4.6-.8.5-.8l-.7.6m-212 2.2c.8.6 2.1 1.6 3 2 2.2 1.2 1.3.5-1.8-1.6-2-1.2-2.2-1.3-1.2-.4m51.1 2.6-1.1.8c0 .4.6.2 1.6-.6 1.2-1 1-1-.5-.2m106.9.2 1.4.8c.2 0 0-.4-.6-.8l-1.4-.8c-.2 0 0 .4.6.8m-153.2.2c0 .3 4 2.3 4.2 2.1.1 0-.8-.6-2-1.2s-2.2-1-2.2-.9m-87.6 2c0 .9.2 2 .4 2.6.2.6.3.2.1-1.4-.2-2.8-.5-3.4-.5-1.2m374.7 1a9.9 9.9 0 0 0-.2 2.7c.3.3.8-3.2.6-4.3 0-.6-.3.1-.4 1.5m-245.3-1a44 44 0 0 1-10.5 3.4c1.4.3 11.9-3 11.9-3.7 0-.3-.5-.2-1.3.3m115.9.2c2.5 1.3 9 3.3 10.7 3.3.8 0 .8-.1.1-.3-3.7-.7-8.4-2.2-10.3-3.2-1.5-.7-2-.6-.5.2m36.8.3c-1.1.6-1.6.9-1 .8 1.1-.3 4-1.8 3.4-1.7-.2 0-1.3.4-2.4 1m-187.4.8 1.6.7c.7.2.8.1.4-.1l-1.6-.7c-.7-.2-.8-.1-.4.1m184 .3a26 26 0 0 1-5.7 1.4c-.5 0-.7.2-.3.3.6.2 4.4-.6 6.2-1.4.7-.2 1-.5.6-.5s-.8 0-.9.2m-178.7 1.4a4 4 0 0 0 1.8.4c1.5 0 1.2-.2-.8-.5-1-.2-1.4-.2-1 .1m-99.2 3.4c0 .9.2 2 .4 2.4.2.5.3 0 .1-1.4-.3-2.6-.5-3.1-.5-1m373 1a6.7 6.7 0 0 0 0 2.3c.2.2.7-3.3.5-4-.1-.3-.3.5-.5 1.6m-372.1 4.1c0 .5.1 1.4.3 2 .4 1.3.4-.1 0-1.8-.3-1-.3-1.1-.3-.2m371.3 1.2c-.2 1-.2 1.7 0 1.9l.4-1.5c.2-1 .2-1.7 0-1.9l-.4 1.5m-370.5 3.6c0 .6.1 1.4.3 1.8l.3.8v-.8c0-.4-.1-1.3-.3-1.8l-.3-1v1m369.7.8c-.2 1-.2 1.7 0 1.9l.4-1.5c.2-1 .2-1.7 0-1.9l-.4 1.5M189 238.8l-2 .3h2.2c1.2 0 3.2-.1 4.4-.3l2.2-.3h-2.4c-1.3 0-3.3.1-4.4.3m17.4 0c1.2.2 3.2.3 4.4.3h2.2l-2.2-.3a37 37 0 0 0-4.4-.3h-2.2l2.2.3m-190.7.6c0 .4.1 1.2.3 1.6l.3.8v-.8c0-.4-.1-1.2-.3-1.6l-.3-.8v.8m368.1.6c-.2.7-.2 1.3 0 1.5l.4-1.1c.2-.7.2-1.3 0-1.5l-.4 1.1m-200.6-.4c-1.4.3-1.4.3-.2.3.7 0 1.7-.1 2.2-.3 1.3-.4 0-.4-2 0m31.6 0c1 .3 3.5.5 3.2.3l-2.2-.4c-1.3-.2-1.7-.1-1 0m-36.4.9-1.4.3h1.4c.8 0 1.8-.1 2.2-.3l.8-.3h-.8l-2.2.3m41.2 0c.3.2 1.2.4 2 .4 1.8 0 1.4-.2-.8-.6-1.3-.1-1.6 0-1.2.2m-44.6.8c-.8.3-.8.3 0 .4.6 0 1-.2 1.2-.4.3-.5-.1-.5-1.2 0m-3 .8c-.8.3-.9.3-.2.4.4 0 1-.2 1.4-.4.7-.5.2-.5-1.2 0m54.8 0c.3.2 1 .4 1.4.4 1 0 .7-.2-.8-.6-.9-.2-1-.1-.6.2m-210.3.8c0 1 .6 2.7.6 1.8 0-.4-.1-1.2-.3-1.6-.2-.5-.3-.6-.3-.2m152.7 0c-.8.3-.9.3-.2.4.4 0 1-.2 1.4-.4.7-.5.2-.5-1.2 0m60.4 0c.3.2 1 .4 1.4.4 1 0 .7-.2-.8-.6-.9-.2-1-.1-.6.2m153.5.5c-.2.5-.3 1.3-.3 1.7 0 .4.2.1.4-.8.4-1.6.3-2.5-.1-1m-216.3.3c-2.4.8-12.8 5-13 5.3-.1.2 8.7-3.2 13.6-5.2.9-.4.4-.5-.6-.1m65.6 0c.3.3 1 .5 1.4.5 1 0 .7-.2-.8-.6-.9-.2-1-.1-.6.2m2.6.7a34 34 0 0 0 4.8 2.1 109.2 109.2 0 0 1 8.2 3.4 27 27 0 0 0-6.3-3c-6.4-2.6-7-2.8-6.7-2.5m-217.8 2.1.4 1.4.3.8v-.8c0-.4 0-1-.3-1.4-.3-.5-.4-.5-.4 0m365 .2-.2 1.3c0 .5.2.4.4-.3.2-.5.4-1.1.3-1.3 0-.3-.3-.1-.4.3M18 249.2l.4 1.4.3.8v-.8c0-.4 0-1-.3-1.4-.3-.5-.4-.5-.4 0m363.5.2a3 3 0 0 0-.3 1.3c0 .5.2.4.4-.3.2-.5.4-1.1.3-1.3 0-.3-.3-.1-.4.3m-182.2.5h1.4c.4-.1 0-.2-.7-.2-.8 0-1 0-.7.2m-49.8 1c-2.3 1.4-2.3 1.7 0 .5a9.3 9.3 0 0 0 2.1-1.2c0-.4-.6-.1-2 .8m38.8-.6a24 24 0 0 0 5.6-.3c.3-.2-4.6 0-5.6.3m17.6-.3a26.4 26.4 0 0 0 5.8.3c-1.2-.3-6-.5-5.8-.3m-22.4 1.1-1 .3h1c.6 0 1.5-.1 2-.3l1-.3h-1c-.5 0-1.4.1-2 .3m30.8 0c.5.2 1.4.3 2 .3h1l-1-.3c-.6-.2-1.5-.3-2-.3h-1l1 .3m35.6-.2 2 1.2c1.1.6 2 1 2 .8l-2-1.2c-1.1-.6-2-1-2-.8m-231.1 1c0 .3.1 1 .3 1.4.2.5.3.6.3.2 0-.3-.1-1-.3-1.4-.2-.5-.3-.6-.3-.2m159.9 0c-1.3.4.1.4 1.8 0 1-.3 1.1-.3.2-.3-.6 0-1.5.1-2 .3m40.6 0c1.7.4 3.1.4 1.8 0-.5-.2-1.4-.3-2-.3-.9 0-.9 0 .2.3m160.8 2a9.9 9.9 0 0 0-.5 2.7c.1 0 .5-1 .9-2.3.4-1.4.6-2.5.5-2.6 0-.1-.5.9-.9 2.3M176 252.8c-.8.3-.9.3-.2.4.4 0 1-.2 1.4-.4.7-.5.2-.5-1.2 0m46.8 0c.3.2 1 .4 1.4.4 1 0 .7-.2-.8-.6-.9-.2-1-.1-.6.2m-79.3 1.6-2.1 1.7 2-1.1c2-1.4 2.5-1.8 2-1.8l-2 1.2m29.8-.8c-.8.3-.9.3-.2.4.4 0 1-.2 1.4-.4.7-.5.2-.5-1.2 0m52.4 0c.3.2 1 .4 1.4.4 1 0 .7-.2-.8-.6-.9-.2-1-.1-.6.2m28.8-.3c0 .1 1 .9 2.3 1.7 1.6 1 2 1.1 1.1.4-1.2-1-3.4-2.4-3.4-2m-84 1c-.8.3-.9.3-.2.4.4 0 1-.2 1.4-.4.7-.5.2-.5-1.2 0m58 0c.3.2 1 .4 1.4.4 1 0 .7-.2-.8-.6-.9-.2-1-.1-.6.2m-208.7.4c0 .3.1 1 .3 1.4.2.5.3.6.3.2 0-.3-.1-1-.3-1.4-.2-.5-.3-.6-.3-.2m147.5.8c-1 .4-1.6.8-1.3.8a9 9 0 0 0 3.3-1.4c0-.3.1-.3-2 .6m-4.3 1.7c-1.2.4-2 .9-2 1 .2.2 3.6-1 4-1.6.6-.4.4-.4-2 .6m74.1.3 2 .8c.2 0-.3-.4-1.2-.8a8 8 0 0 0-2-.8c-.2 0 .3.4 1.2.8m142 .5c-.3 1-1.3 3.9-2.8 7.7-1.5 3.7-1.8 5-1.4 4.8.2-.1.4-.5.4-.8 0-.3.2-1 .4-1.3.6-1.2 1.1-2.6 1.8-4.5a230 230 0 0 1 2-6.7l-.4.8m-222.3 2c-2 1.3-2.4 1.8-.5.8 2-1 3-1.7 2.4-1.7l-1.9 1m84.5-.8a48 48 0 0 0 5.4 2.7 47.7 47.7 0 0 0-5.3-2.7m-220 .2a151.6 151.6 0 0 0 3.4 9l-.4-1.5c-.4-.7-1-2.5-1.5-3.9-.8-2.4-1.6-4-1.6-3.6m113.4 1a394.5 394.5 0 0 0-7.1 6.2l-4.9 5-3.9 4.4 4.4-4.5a127.6 127.6 0 0 1 12.9-11.9c-.1 0-.7.3-1.4.9m131.6 1c1 1 2.1 1.9 2.3 1.9.2 0-.5-.7-1.4-1.5-2.6-2.3-3.2-2.5-1-.4m-75.5 1.2c-1 .8-2.2 2.7-2.2 3.6 0 .3.4-.3.9-1.2a7 7 0 0 1 2-2.5c.7-.5 1.1-.8.9-.8a4 4 0 0 0-1.6.8m17.6-.3 1.6 1c.5.4.3.2-.3-.4-.6-.6-1.3-1.1-1.6-1-.3 0-.1.1.3.4m-57 .7-1 .8 1.3-.6c.7-.3 1.3-.7 1.3-.8 0-.4-.6-.2-1.6.6m120.7 3.5 4.5 4.3c3 3.6 5.7 6.3 5.3 5.5-.7-1.2-11.9-12.5-12.4-12.5-.3 0 .9 1.2 2.6 2.7m-126.5.4a83.8 83.8 0 0 0-5.6 4.2l-3.6 3.1-4 4a279.5 279.5 0 0 1-6 6.4l5.8-5.6c6-6.1 8.2-8 13.1-11.4 3.1-2.2 4.1-3 3.6-3l-3.3 2.3m107-1.3 3.1 2.3a125.7 125.7 0 0 1 9.9 7.9 95 95 0 0 0-13-10.2m-41.7 4.2c-.7 1.4-1.2 1.8-3.9 3h.5c2-.4 5-3.6 4.2-4.4 0-.1-.5.5-.8 1.4m-20 2.2c.4.3 1.3.7 2 .8 1 .2 1 .2-.2-.3-.7-.3-1.4-.6-1.5-.8-.2-.2-.5-.3-.8-.3-.2 0 0 .3.4.6m182.6 1.1-.6 1.7-.4 1.4c.3 0 1.4-2.9 1.2-3.1-.1-.1-.2-.1-.2 0m-255.4 4.3c-1.3 2.6.5 7.5 2.8 7.6.1 0-.2-.4-.8-.9a5.6 5.6 0 0 1-1.6-6.7l.4-1.2s-.5.5-.8 1.2m149.7.9 3.3 3.6a6 6 0 0 0 1.7 1.5c.2 0 0-.4-.6-1a301.7 301.7 0 0 1-6.2-6.2c-.1 0 .6 1 1.8 2.1m103.6-.2c-.4.7-.6 1.5-.5 1.6l.8-1.3c.8-2 .5-2.2-.3-.3m-89 1.7c0 1.3.2 2.1.4 1.9.4-.6.4-3.8 0-4-.2-.1-.3.8-.3 2.1m-1.4 3.8c-1 1.1-3.6 2-5 1.6-.7-.2-.7-.2 0 .2 1.2.8 4.7-.4 5.7-2 .7-1 .4-1-.7.2m87 1c-.3.8-.5 1.4-.4 1.5l.8-1.1c.9-1.7.6-2-.3-.3m-245.9.8a5 5 0 0 0 2.1 0c1.2-.3 1-.4-.8-.4-1.6 0-2 .1-1.3.4m244.2 2.3c-.3.7-.5 1.4-.4 1.5l.8-1.1c.4-.7.6-1.4.5-1.5-.1 0-.5.4-.9 1.1m-331.4 2.6c.6 1.3 1.2 2 1.2 1.6l-.8-1.4c-.6-.7-.7-.7-.4-.2m329.8.4-.6 1.3c0 .2-.4.8-.8 1.3a4 4 0 0 0-.8 1.4c0 .5.8-.7 2.2-3.1 1-2 1.1-2.6 0-1m-328.2 2.5c.6 1.3 1.2 2 1.2 1.6l-.8-1.4c-.6-.7-.7-.7-.4-.2m1.5 2.8 1 1.6.7.8-.3-.8-1-1.6-.7-.8.3.8m323.9-.1c-1.4 2.3-1.5 2.5-.8 1.7.8-1 1.5-2.2 1.2-2.2 0 0-.3.2-.4.5m-322.2 3c.3.8 5.8 8.9 6 8.9.2 0-1-2-2.7-4.5-3-4.5-3.5-5.3-3.3-4.5m317.5 4.4c-1.7 2.5-3 4.6-2.8 4.6a64 64 0 0 0 6-9l-3.2 4.4m-4.3 6.3a255 255 0 0 1-2.7 3.9 34 34 0 0 0 3.6-4.7c.6-1 0-.5-.9.8M48 311.4l1.6 2c.3.2-.2-.6-1-1.8-1.8-2.5-2.3-2.7-.6-.2m4 5.2a50 50 0 0 0 5.2 6c0-.2-4.8-6-6.3-7.8-.6-.5 0 .3 1.1 1.8m294.8 1a56.7 56.7 0 0 1-4 4.9c0 .2.6-.3 1.4-1.1 2-2.3 5.9-7.4 5.7-7.4a39 39 0 0 0-3 3.5m-287.7 7.7c2.2 2.7 14.8 15.3 16.6 16.5a249.3 249.3 0 0 1-16.5-16.5m280.8.3a251.7 251.7 0 0 1-16.3 16.5 158.8 158.8 0 0 0 16.3-16.5m-20.3 19.4a2645.3 2645.3 0 0 1-3 2.9 27 27 0 0 0 5.8-5c-.2 0-1.5 1-2.8 2.1M78 343.4c0 .3 1.3 1.4 5.1 4.4 4.3 3.3 3.5 2.4-1.1-1.3a35 35 0 0 0-4-3m8.4 6.7c0 .2 3.7 3 4.8 3.6 1 .6 0-.4-2.5-2.2l-2.3-1.4m224.6 1.6c-2.4 1.9-3.2 2.6-2.2 2 1-.6 4.8-3.4 4.8-3.6 0-.3-.1-.3-2.6 1.6m-219 2.5c0 .2.7.7 1.4 1.2l1.2.6c-.4-.7-2.6-2.2-2.6-1.8m211.3 2.9c-2.5 1.6-4.4 3-4.3 3.1l4.5-2.7c5-3.3 4.7-3.2 4.5-3.3-.1 0-2.2 1.2-4.7 2.9m-208.1-.7c0 .3 3.1 2.3 3.5 2.3.1 0 0-.2-.5-.5-2-1.3-3-2-3-1.8m4 2.6c0 .4 1.6 1.4 1.9 1.2 0-.1-.3-.5-.9-.9-.5-.3-1-.5-1-.3m3 2 1.6 1 .8.3-.8-.6a7 7 0 0 0-1.6-1l-.8-.4.8.6m194.7.2c-1.4 1-1.8 1.5-.6.8 1-.5 2.4-1.6 2.1-1.6l-1.5.8M105.4 363c1.7 1.1 4.8 2.7 3.8 1.8a4 4 0 0 0-1.4-.8l-1.4-.8a4 4 0 0 0-1.4-.8c-.2 0 0 .2.4.6m188.2.2-1.4.8a4 4 0 0 0-1.4.8c-.7.6-.5.6 1-.2 2.4-1.3 3.7-2.2 3.2-2.2a4 4 0 0 0-1.4.8m-183.2 2.6c0 .2 2.2 1.4 2.7 1.4.2 0-.3-.4-1-.8-1.3-.8-1.7-1-1.7-.6m177.5.5c-.7.3-1 .7-1 .8.2.2 2.7-1 2.7-1.3 0-.3-.5-.2-1.7.5m-174.3 1c0 .3 2.2 1.5 2.7 1.5.2 0-.3-.4-1-.8-1.3-.8-1.7-1-1.7-.6m171 .6c-.7.4-1 .8-.9.8.5 0 2.7-1.2 2.7-1.4 0-.4-.6-.1-1.8.6m-167.8 1c0 .3 2.4 1.5 2.6 1.3.1 0-.4-.5-1.2-.8-.8-.4-1.4-.6-1.4-.5m161.2 2.2c-.8.4-1.3.8-1.1.8.4 0 3.1-1.2 3.1-1.4 0-.4-.6-.2-2 .6m-140.2 6.7a13 13 0 0 0 4.9 1.5 386.6 386.6 0 0 1-4.9-1.5m120.7 1a14 14 0 0 0-3.6 1.4 37 37 0 0 0 7.3-2.4c.5-.4.5-.4-3.7 1m-113.1 1.5c1.3.5 2.4.7 2.5.6.2-.1-4-1.4-4.6-1.4l2 .8m107.1.4c-.4.3-.3.4.6.2 1.5-.4 1.8-.6.8-.6a3 3 0 0 0-1.4.4m-102.4 1 2.8.7c.8.2.3 0-1-.5-2.7-.9-4-1-1.8-.2m99.6-.2c-.4.3-.3.4.6.2 1.5-.4 1.8-.6.8-.6a3 3 0 0 0-1.4.4m-3 .8c-1 .4 0 .4 1.4 0 .8-.3.8-.3.2-.3-.4 0-1.2.1-1.6.3m-92.2.5 1.8.4c1.1.2 1.4.2.8 0-.8-.4-3-.7-2.6-.4m88.6.3-.8.3h.8c.4 0 1.3-.1 1.8-.3l1-.3h-1c-.6 0-1.4.1-1.8.3m-84 .8c1.2.5 2.2.5 1.4 0-.3-.2-1-.4-1.4-.4h-.8l.8.4m80.8 0c-.5.2-.6.3-.2.3.3 0 1-.1 1.4-.3.5-.2.6-.3.2-.3a4 4 0 0 0-1.4.3m-77.4.8c.5.2 1.4.3 1.8.3h.8l-.8-.3c-.4-.2-1.3-.3-1.8-.3h-1l1 .3m73.4 0-.8.3h.8c.4 0 1.3-.1 1.8-.3l1-.3h-1c-.5 0-1.4.1-1.8.3m-69 .8c.5.2 1.4.3 2 .3h1l-1-.3c-.6-.2-1.5-.3-2-.3h-1l1 .3m64.6 0c-1 .3-1.1.3-.2.3.6 0 1.5-.1 2-.3 1.3-.4-.1-.4-1.8 0m-59.8.8c.6.2 1.5.3 2.2.3h1.2l-1.2-.3c-.7-.2-1.7-.3-2.2-.3h-1l1 .3m54.6 0-1.2.3h1.2c.7 0 1.7-.1 2.2-.3l1-.3h-1a9 9 0 0 0-2.2.3m-48.6.8c.6.2 1.6.3 2.4.3h1.4l-1.6-.3c-2.1-.5-3.6-.4-2.2 0m42.4 0-1.4.3h1.4c.8 0 1.8-.1 2.4-.3l1-.3h-1l-2.4.3m-33.6.8c1.8.3 10.3.5 10 .3a68 68 0 0 0-10-.3m21.2 0-4.2.2h4.2c2.3.1 5 0 6-.2l1.8-.3h-1.8l-6 .3" />
    </g>
</svg>
