<svg height="512" viewBox="0 0 512 512" width="512" xmlns="http://www.w3.org/2000/svg">
    <g id="Filled_outline" data-name="Filled outline">
        <path
            d="m416 456h-160l35.292-134.108a24 24 0 0 1 23.208-17.892h110.367a24 24 0 0 1 23.21 30.108z"
            fill="#348ed8" />
        <path
            d="m392 224 24-16-63.824-62.265 31.824-41.735 66.379 49.784a74.053 74.053 0 0 1 29.621 59.242 74.051 74.051 0 0 1 -37.312 64.3l-18.688 10.674z"
            fill="#fcb079" />
        <path
            d="m144 200 64-24-16-40 104-16 8-48h-121.356a58.6 58.6 0 0 0 -53.867 35.52 58.6 58.6 0 0 0 -1.731 41.618z"
            fill="#fcb079" />
        <path
            d="m289.024 75.9-46.984 39.215 16.867 7.022-18.069 41.463a17.823 17.823 0 0 0 9.64 23.606l16.868 7.023-25.3 58.044 67.471 28.09 72.283-165.842z"
            fill="#fdc8a2" />
        <path
            d="m389.02 97.94-32.52 74.62-6.03-31.89-29.25 54.91a24 24 0 0 1 -31.53 10.37l-39.21-18.75a17.811 17.811 0 0 1 -9.64-23.6l5.71-13.11 7.24-16.59 5.12-11.76 42.17 17.55 39.26-27.52a9.012 9.012 0 0 0 -.71-15.21l-50.61-21.06a26.882 26.882 0 0 1 -16.69-24.78 26.59 26.59 0 0 1 2.23-10.63 27.823 27.823 0 0 1 36.15-14.34l59.03 24.57a35.642 35.642 0 0 1 19.28 47.22z"
            fill="#91563a" />
        <path d="m286.005 99.796h18.09v16h-18.09z" fill="#91563a"
            transform="matrix(.4 -.917 .917 .4 78.346 335.202)" />
        <path d="m144 200 64-24 24 48 104 32 56-32 32 64-64 48-40 120h-200l48-184z"
            fill="#d65246" />
        <path
            d="m284.1 155.87a22.537 22.537 0 0 1 -13.71 4.14 34.8 34.8 0 0 1 -12.07-2.27 34.242 34.242 0 0 1 -11.77-7.25l7.24-16.59c.77 2.07 2.95 5.94 10.1 8.85 5.48 2.22 9.55 1.13 10.52.38z"
            fill="#fdc8a2" />
        <path d="m24 456h464v32h-464z" fill="#91563a" />
        <path d="m56 424h240v32h-240z" fill="#cececc" />
        <path
            d="m203.8 456h-135.508a16 16 0 0 1 -15.459-11.877l-28.355-106.332a14.148 14.148 0 0 1 -.478-3.645 14.146 14.146 0 0 1 14.146-14.146h141.182a16 16 0 0 1 15.572 12.335l24.471 104a16 16 0 0 1 -15.571 19.665z"
            fill="#dfdfdd" />
        <ellipse cx="119.937" cy="392" fill="#f1f1f1" rx="15.31" ry="16.721"
            transform="matrix(.691 -.723 .723 .691 -246.21 207.648)" />
        <path d="m384 352h72v104h-72z" fill="#d65246" />
        <path d="m286.005 99.796h18.09v16h-18.09z"
            transform="matrix(.4 -.917 .917 .4 78.346 335.202)" />
        <path
            d="m121.349 416a22.413 22.413 0 0 0 22.557-24.7 25.684 25.684 0 0 0 -25.381-23.3 22.412 22.412 0 0 0 -22.557 24.7 25.682 25.682 0 0 0 25.381 23.3zm-7.8-29.934a6.634 6.634 0 0 1 4.98-2.066 9.819 9.819 0 0 1 9.443 8.7 6.745 6.745 0 0 1 -1.64 5.231 6.631 6.631 0 0 1 -4.983 2.069 9.819 9.819 0 0 1 -9.443-8.7 6.748 6.748 0 0 1 1.639-5.234z" />
        <path
            d="m476.37 432a19.652 19.652 0 0 0 19.63-19.63v-32.74a19.652 19.652 0 0 0 -19.63-19.63h-12.37v-8a8 8 0 0 0 -8-8h-72a8 8 0 0 0 -8 8v96h-44.9l35.7-107.1 38.533-28.9h19.537a16.006 16.006 0 0 1 15.473 20.077l15.474 4.067a32 32 0 0 0 -29.216-40.1l1.8-1.347 18.263-10.436a82.057 82.057 0 0 0 8.52-136.886l-59.1-45.547a44.892 44.892 0 0 0 .771-34.282 43.811 43.811 0 0 0 -24.035-24.212l-59.038-24.574a35.889 35.889 0 0 0 -46.551 18.531 34.329 34.329 0 0 0 -.4 26.709h-84.191a66.856 66.856 0 0 0 -30.94 7.621l7.434 14.168a50.784 50.784 0 0 1 23.506-5.789h88.983l-34.708 28.968a7.975 7.975 0 0 0 -.235 12.062l-45.9 7.063a8 8 0 0 0 -6.211 10.878l12.964 32.409-48.571 18.214-14.326-42.985a51.261 51.261 0 0 1 1.494-35.939 50.158 50.158 0 0 1 13.34-18.284l-10.481-12.086a66.948 66.948 0 0 0 -17.563 24.068 67.631 67.631 0 0 0 -1.966 47.3l16.951 50.863 23.249 69.745-6.5 24.937 15.483 4.039 7.1-27.233a7.994 7.994 0 0 0 -.152-4.55l-21.562-64.686 50.038-18.764 20.78 41.558a8 8 0 0 0 4.8 4.068l104 32a8 8 0 0 0 6.319-.7l48.657-27.8 25.233 50.464-58.656 43.991a8 8 0 0 0 -2.789 3.87l-38.177 114.53h-10.234v-24a8 8 0 0 0 -8-8h-73.193l-20.118-85.5a23.907 23.907 0 0 0 -23.361-18.5h-141.182a22.146 22.146 0 0 0 -21.4 27.853l5.922 22.209 15.46-4.124-5.922-22.209a6.144 6.144 0 0 1 5.94-7.729h141.182a7.97 7.97 0 0 1 7.787 6.167l24.471 104a8 8 0 0 1 -7.786 9.833h-135.508a8.011 8.011 0 0 1 -7.73-5.938l-18.562-69.596-15.46 4.123 18.559 69.6c.164.617.356 1.221.566 1.815h-21.665a8 8 0 0 0 -8 8v32a8 8 0 0 0 8 8h464a8 8 0 0 0 8-8v-32.004a8 8 0 0 0 -8-8h-24v-16zm-190.131-218.834a32.259 32.259 0 0 0 42.044-13.826l18.553-34.83 1.346 7.125-30.649 70.313-54.891-16.89 8.358-19.176zm-4.023-169.345c3.054-7.011 9.978-12.409 18.263-11.733 4.55.371 8.851 2.142 13.067 3.892l45.126 18.735c21.141 8.776 30.048 23.024 20.7 45.118q-9.712 22.967-19.909 45.727c.035-3.575-.77-7.327-3.143-10s-6.583-3.9-9.677-2.112c-2.05 1.188-3.258 3.39-4.365 5.484l-24.978 47.235c-7.007 13.252-15.547 16.831-29.63 10.06l-31.07-14.94c-3.528-1.7-7.369-3.723-8.729-7.394-2.305-6.221 3.778-12.2 5.31-18.659a30.209 30.209 0 0 0 30.989.729l-9.72-12.794a16.824 16.824 0 0 1 -14.84-2.66l3.492-7.969 32.847 13.707c4.443 1.854 7.51 1.5 11.506-1.281l32.688-22.79c3.582-2.5 7.26-5.094 9.586-8.789a16.892 16.892 0 0 0 -2.68-20.674c-2.905-2.713-6.674-4.268-10.353-5.768l-37.223-15.168c-5.525-2.252-11.287-4.673-15.079-9.28-4.573-5.557-4.781-12.697-2.178-18.676zm8.211 41.326 45.462 18.927a1.017 1.017 0 0 1 -.136 1.544l-35.665 25-42.788-17.818zm-87.26 57.229 40.939-6.3-10.606 24.324a25.54 25.54 0 0 0 -.291 19.884 25.868 25.868 0 0 0 13.991 14.216l9.358 4.474-9.3 21.347-9.626-2.963zm131.872 104.959-2.116-.651 33.2-76.168 37.215 36.309zm67.275-20.6 18.124-12.083a8 8 0 0 0 1.149-12.383l-48.629-47.444 16.132-37.014 56.49 42.365a66.046 66.046 0 0 1 -6.859 110.194l-11.347 6.484zm74.056 149.265a3.634 3.634 0 0 1 3.63 3.63v32.74a3.634 3.634 0 0 1 -3.63 3.63h-12.37v-40zm-249.21 58.5-.589-2.5h61.429v16h-61.566a23.886 23.886 0 0 0 .726-13.5zm252.84 45.5h-448v-16h448zm-88-32v-88h56v88z" />
    </g>
</svg>